<svg width="24" height="24" viewBox="0 0 24 24" fill="none" xmlns="http://www.w3.org/2000/svg">
<path fill-rule="evenodd" clip-rule="evenodd" d="M1 12C1 5.92409 5.9222 1 12 1C18.0739 1 23 5.9242 23 12C23 18.0758 18.0739 23 12 23C5.9222 23 1 18.0759 1 12ZM12 0C5.3698 0 0 5.37191 0 12C0 18.6281 5.3698 24 12 24C18.6261 24 24 18.6282 24 12C24 5.3718 18.6261 0 12 0ZM14 12C14 12.3713 13.8985 12.719 13.7218 13.017L18.3531 17.6465C18.5484 17.8417 18.5485 18.1583 18.3533 18.3536C18.158 18.5489 17.8415 18.5489 17.6462 18.3537L13.0141 13.7235C12.7164 13.8992 12.3697 14 12 14C10.8934 14 10 13.1037 10 12C10 11.2599 10.4017 10.6131 11 10.2672V6.5C11 6.22386 11.2239 6 11.5 6C11.7761 6 12 6.22386 12 6.5V10C13.1017 10 14 10.8954 14 12ZM12.703 12.7056C12.7143 12.6943 12.7259 12.6837 12.7379 12.6738C12.9005 12.4959 13 12.2593 13 12C13 11.4486 12.5503 11 12 11C11.4466 11 11 11.4477 11 12C11 12.5523 11.4466 13 12 13C12.2582 13 12.4943 12.9012 12.6721 12.7394C12.6818 12.7278 12.6921 12.7165 12.703 12.7056Z" fill="#5B6D83"/>
</svg>
