<svg width="48" height="32" viewBox="0 0 48 32" fill="none" xmlns="http://www.w3.org/2000/svg">
<path fill-rule="evenodd" clip-rule="evenodd" d="M0 3C0 1.34315 1.34315 0 3 0H45C46.6569 0 48 1.34315 48 3V29C48 30.6569 46.6569 32 45 32H3C1.34315 32 0 30.6569 0 29V3Z" fill="url(#paint0_radial)"/>
<path fill-rule="evenodd" clip-rule="evenodd" d="M0 3C0 1.34315 1.34315 0 3 0H45C46.6569 0 48 1.34315 48 3V29C48 30.6569 46.6569 32 45 32H3C1.34315 32 0 30.6569 0 29V3Z" fill="#E5E5E5" fill-opacity="0.01"/>
<mask id="path-3-outside-1" maskUnits="userSpaceOnUse" x="4.38086" y="10.9531" width="41" height="11" fill="black">
<rect fill="white" x="4.38086" y="10.9531" width="41" height="11"/>
<path fill-rule="evenodd" clip-rule="evenodd" d="M11.1674 16.6926L12.1835 14.456H12.2054L13.1888 16.6926H11.1674ZM11.3309 12.9531L8.38086 19.0484H10.1072L10.7191 17.691H13.6364L14.2264 19.0484H16.0074L13.0901 12.9531H11.3309ZM16.6845 12.9534V19.0486H18.2907V14.7717H18.3125L20.2246 19.0486H21.5467L23.4588 14.729H23.4806V19.0486H25.0868V12.9534H22.6721L20.9458 17.1449H20.9239L19.0992 12.9534H16.6845ZM26.5952 12.9534V19.0486H32.5173V17.9217H28.3107V16.4278H32.0911V15.3863H28.3107V14.0802H32.4298V12.9534H26.5952ZM35.5874 15.8559L32.8668 19.0486H34.7898L36.5271 16.94L38.2316 19.0486H40.2748L37.5542 15.8644L40.0563 12.9534H38.177L36.5927 14.8997L35.063 12.9534H33.0744L35.5874 15.8559Z"/>
</mask>
<path fill-rule="evenodd" clip-rule="evenodd" d="M11.1674 16.6926L12.1835 14.456H12.2054L13.1888 16.6926H11.1674ZM11.3309 12.9531L8.38086 19.0484H10.1072L10.7191 17.691H13.6364L14.2264 19.0484H16.0074L13.0901 12.9531H11.3309ZM16.6845 12.9534V19.0486H18.2907V14.7717H18.3125L20.2246 19.0486H21.5467L23.4588 14.729H23.4806V19.0486H25.0868V12.9534H22.6721L20.9458 17.1449H20.9239L19.0992 12.9534H16.6845ZM26.5952 12.9534V19.0486H32.5173V17.9217H28.3107V16.4278H32.0911V15.3863H28.3107V14.0802H32.4298V12.9534H26.5952ZM35.5874 15.8559L32.8668 19.0486H34.7898L36.5271 16.94L38.2316 19.0486H40.2748L37.5542 15.8644L40.0563 12.9534H38.177L36.5927 14.8997L35.063 12.9534H33.0744L35.5874 15.8559Z" fill="#1793C0" fill-opacity="0.01"/>
<path d="M11.1674 16.6926L9.34652 15.8653L8.06205 18.6926H11.1674V16.6926ZM12.1835 14.456V12.456H10.8955L10.3627 13.6287L12.1835 14.456ZM12.2054 14.456L14.0363 13.651L13.5108 12.456H12.2054V14.456ZM13.1888 16.6926V18.6926H16.2529L15.0196 15.8876L13.1888 16.6926ZM11.3309 12.9531V10.9531H10.077L9.53071 12.0818L11.3309 12.9531ZM8.38086 19.0484L6.58063 18.1771L5.19093 21.0484H8.38086V19.0484ZM10.1072 19.0484V21.0484H11.3994L11.9305 19.8703L10.1072 19.0484ZM10.7191 17.691V15.691H9.42682L8.89576 16.8691L10.7191 17.691ZM13.6364 17.691L15.4706 16.8937L14.9478 15.691H13.6364V17.691ZM14.2264 19.0484L12.3922 19.8457L12.915 21.0484H14.2264V19.0484ZM16.0074 19.0484V21.0484H19.1819L17.8114 18.1849L16.0074 19.0484ZM13.0901 12.9531L14.8941 12.0897L14.3501 10.9531H13.0901V12.9531ZM16.6845 12.9534V10.9534H14.6845V12.9534H16.6845ZM16.6845 19.0486H14.6845V21.0486H16.6845V19.0486ZM18.2907 19.0486V21.0486H20.2907V19.0486H18.2907ZM18.2907 14.7717V12.7717H16.2907V14.7717H18.2907ZM18.3125 14.7717L20.1384 13.9554L19.6092 12.7717H18.3125V14.7717ZM20.2246 19.0486L18.3988 19.8649L18.928 21.0486H20.2246V19.0486ZM21.5467 19.0486V21.0486H22.8486L23.3755 19.8581L21.5467 19.0486ZM23.4588 14.729V12.729H22.1569L21.6299 13.9195L23.4588 14.729ZM23.4806 14.729H25.4806V12.729H23.4806V14.729ZM23.4806 19.0486H21.4806V21.0486H23.4806V19.0486ZM25.0868 19.0486V21.0486H27.0868V19.0486H25.0868ZM25.0868 12.9534H27.0868V10.9534H25.0868V12.9534ZM22.6721 12.9534V10.9534H21.3328L20.8228 12.1917L22.6721 12.9534ZM20.9458 17.1449V19.1449H22.285L22.795 17.9066L20.9458 17.1449ZM20.9239 17.1449L19.0901 17.9432L19.6133 19.1449H20.9239V17.1449ZM19.0992 12.9534L20.933 12.1551L20.4099 10.9534H19.0992V12.9534ZM26.5952 12.9534V10.9534H24.5952V12.9534H26.5952ZM26.5952 19.0486H24.5952V21.0486H26.5952V19.0486ZM32.5173 19.0486V21.0486H34.5173V19.0486H32.5173ZM32.5173 17.9217H34.5173V15.9217H32.5173V17.9217ZM28.3107 17.9217H26.3107V19.9217H28.3107V17.9217ZM28.3107 16.4278V14.4278H26.3107V16.4278H28.3107ZM32.0911 16.4278V18.4278H34.0911V16.4278H32.0911ZM32.0911 15.3863H34.0911V13.3863H32.0911V15.3863ZM28.3107 15.3863H26.3107V17.3863H28.3107V15.3863ZM28.3107 14.0802V12.0802H26.3107V14.0802H28.3107ZM32.4298 14.0802V16.0802H34.4298V14.0802H32.4298ZM32.4298 12.9534H34.4298V10.9534H32.4298V12.9534ZM35.5874 15.8559L37.1097 17.153L38.2239 15.8455L37.0995 14.5467L35.5874 15.8559ZM32.8668 19.0486L31.3445 17.7514L28.5349 21.0486H32.8668V19.0486ZM34.7898 19.0486V21.0486H35.7334L36.3334 20.3204L34.7898 19.0486ZM36.5271 16.94L38.0825 15.6827L36.5419 13.7769L34.9835 15.6683L36.5271 16.94ZM38.2316 19.0486L36.6762 20.3059L37.2766 21.0486H38.2316V19.0486ZM40.2748 19.0486V21.0486H44.6142L41.7954 17.7494L40.2748 19.0486ZM37.5542 15.8644L36.0374 14.5607L34.9202 15.8605L36.0336 17.1636L37.5542 15.8644ZM40.0563 12.9534L41.573 14.257L44.4126 10.9534H40.0563V12.9534ZM38.177 12.9534V10.9534H37.2261L36.6259 11.6908L38.177 12.9534ZM36.5927 14.8997L35.0202 16.1356L36.5653 18.1016L38.1438 16.1623L36.5927 14.8997ZM35.063 12.9534L36.6355 11.7175L36.0349 10.9534H35.063V12.9534ZM33.0744 12.9534V10.9534H28.6973L31.5624 14.2625L33.0744 12.9534ZM12.9883 17.5199L14.0044 15.2832L10.3627 13.6287L9.34652 15.8653L12.9883 17.5199ZM12.1835 16.456H12.2054V12.456H12.1835V16.456ZM10.3745 15.2609L11.3579 17.4975L15.0196 15.8876L14.0363 13.651L10.3745 15.2609ZM13.1888 14.6926H11.1674V18.6926H13.1888V14.6926ZM9.53071 12.0818L6.58063 18.1771L10.1811 19.9197L13.1312 13.8244L9.53071 12.0818ZM8.38086 21.0484H10.1072V17.0484H8.38086V21.0484ZM11.9305 19.8703L12.5424 18.5129L8.89576 16.8691L8.28389 18.2264L11.9305 19.8703ZM10.7191 19.691H13.6364V15.691H10.7191V19.691ZM11.8022 18.4883L12.3922 19.8457L16.0606 18.2511L15.4706 16.8937L11.8022 18.4883ZM14.2264 21.0484H16.0074V17.0484H14.2264V21.0484ZM17.8114 18.1849L14.8941 12.0897L11.286 13.8166L14.2033 19.9118L17.8114 18.1849ZM13.0901 10.9531H11.3309V14.9531H13.0901V10.9531ZM14.6845 12.9534V19.0486H18.6845V12.9534H14.6845ZM16.6845 21.0486H18.2907V17.0486H16.6845V21.0486ZM20.2907 19.0486V14.7717H16.2907V19.0486H20.2907ZM18.2907 16.7717H18.3125V12.7717H18.2907V16.7717ZM16.4867 15.588L18.3988 19.8649L22.0505 18.2323L20.1384 13.9554L16.4867 15.588ZM20.2246 21.0486H21.5467V17.0486H20.2246V21.0486ZM23.3755 19.8581L25.2876 15.5385L21.6299 13.9195L19.7179 18.2391L23.3755 19.8581ZM23.4588 16.729H23.4806V12.729H23.4588V16.729ZM21.4806 14.729V19.0486H25.4806V14.729H21.4806ZM23.4806 21.0486H25.0868V17.0486H23.4806V21.0486ZM27.0868 19.0486V12.9534H23.0868V19.0486H27.0868ZM25.0868 10.9534H22.6721V14.9534H25.0868V10.9534ZM20.8228 12.1917L19.0965 16.3832L22.795 17.9066L24.5214 13.715L20.8228 12.1917ZM20.9458 15.1449H20.9239V19.1449H20.9458V15.1449ZM22.7577 16.3466L20.933 12.1551L17.2654 13.7516L19.0901 17.9432L22.7577 16.3466ZM19.0992 10.9534H16.6845V14.9534H19.0992V10.9534ZM24.5952 12.9534V19.0486H28.5952V12.9534H24.5952ZM26.5952 21.0486H32.5173V17.0486H26.5952V21.0486ZM34.5173 19.0486V17.9217H30.5173V19.0486H34.5173ZM32.5173 15.9217H28.3107V19.9217H32.5173V15.9217ZM30.3107 17.9217V16.4278H26.3107V17.9217H30.3107ZM28.3107 18.4278H32.0911V14.4278H28.3107V18.4278ZM34.0911 16.4278V15.3863H30.0911V16.4278H34.0911ZM32.0911 13.3863H28.3107V17.3863H32.0911V13.3863ZM30.3107 15.3863V14.0802H26.3107V15.3863H30.3107ZM28.3107 16.0802H32.4298V12.0802H28.3107V16.0802ZM34.4298 14.0802V12.9534H30.4298V14.0802H34.4298ZM32.4298 10.9534H26.5952V14.9534H32.4298V10.9534ZM34.0652 14.5587L31.3445 17.7514L34.3891 20.3458L37.1097 17.153L34.0652 14.5587ZM32.8668 21.0486H34.7898V17.0486H32.8668V21.0486ZM36.3334 20.3204L38.0707 18.2118L34.9835 15.6683L33.2463 17.7768L36.3334 20.3204ZM34.9717 18.1973L36.6762 20.3059L39.787 17.7913L38.0825 15.6827L34.9717 18.1973ZM38.2316 21.0486H40.2748V17.0486H38.2316V21.0486ZM41.7954 17.7494L39.0747 14.5652L36.0336 17.1636L38.7542 20.3478L41.7954 17.7494ZM39.0709 17.1681L41.573 14.257L38.5395 11.6497L36.0374 14.5607L39.0709 17.1681ZM40.0563 10.9534H38.177V14.9534H40.0563V10.9534ZM36.6259 11.6908L35.0415 13.6372L38.1438 16.1623L39.7281 14.2159L36.6259 11.6908ZM38.1651 13.6639L36.6355 11.7175L33.4905 14.1892L35.0202 16.1356L38.1651 13.6639ZM35.063 10.9534H33.0744V14.9534H35.063V10.9534ZM31.5624 14.2625L34.0754 17.165L37.0995 14.5467L34.5864 11.6442L31.5624 14.2625Z" fill="white" mask="url(#path-3-outside-1)"/>
<defs>
<radialGradient id="paint0_radial" cx="0" cy="0" r="1" gradientUnits="userSpaceOnUse" gradientTransform="translate(16.1191 6.06548) rotate(90) scale(32 48)">
<stop stop-color="#71C8F2"/>
<stop offset="1" stop-color="#0071BD"/>
</radialGradient>
</defs>
</svg>
