<svg width="76" height="76" viewBox="0 0 76 76" fill="none" xmlns="http://www.w3.org/2000/svg">
<rect x="1" y="9" width="66" height="66" rx="6" stroke="#DFE4EB" stroke-width="2"/>
<rect x="4" y="12" width="60" height="60" rx="5" fill="#F2F4F8"/>
<path fill-rule="evenodd" clip-rule="evenodd" d="M32.9222 27.3988C32.9222 26.8181 33.42 26.3203 34.0008 26.3203C34.5815 26.3203 35.0793 26.8181 35.0793 27.3988V30.5929C35.0793 31.1737 34.5815 31.6714 34.0008 31.6714C33.42 31.6714 32.9222 31.1737 32.9222 30.5929V27.3988ZM39.5582 36.4418C38.1478 35.0314 36.1567 34.1189 33.9997 34.1189C31.8426 34.1189 29.8515 34.99 28.4412 36.4418C27.0308 37.8522 26.1182 39.8433 26.1182 42.0003C26.1182 44.1574 27.0308 46.1485 28.4412 47.5589C29.8515 48.9692 31.8426 49.8818 33.9997 49.8818C36.1567 49.8818 38.1478 49.0107 39.5582 47.5589C40.9686 46.1485 41.8812 44.1574 41.8812 42.0003C41.8812 39.8433 41.0101 37.8522 39.5582 36.4418ZM38.0649 46.0655C37.0278 47.1026 35.576 47.7248 33.9997 47.7248C32.4234 47.7248 30.9715 47.1026 29.9345 46.0655C28.8975 45.0285 28.2752 43.5766 28.2752 42.0003C28.2752 40.424 28.8975 38.9722 29.9345 37.9352C30.9715 36.8981 32.4234 36.2759 33.9997 36.2759C35.576 36.2759 37.0278 36.8981 38.0649 37.9352C39.1019 38.9722 39.7241 40.424 39.7241 42.0003C39.7241 43.5766 39.1019 45.0285 38.0649 46.0655ZM48.6018 40.9216H45.4077C44.827 40.9216 44.3292 41.4193 44.3292 42.0001C44.3292 42.5808 44.827 43.0786 45.4077 43.0786H48.6018C49.1826 43.0786 49.6803 42.5808 49.6803 42.0001C49.6803 41.4193 49.1826 40.9216 48.6018 40.9216ZM32.9222 53.4077C32.9222 52.827 33.42 52.3292 34.0008 52.3292C34.5815 52.3292 35.0793 52.827 35.0793 53.4077V56.6018C35.0793 57.1826 34.5815 57.6803 34.0008 57.6803C33.42 57.6803 32.9222 57.1826 32.9222 56.6018V53.4077ZM45.0753 51.5826L42.7938 49.3011C42.4205 48.8863 41.7153 48.8863 41.3005 49.3011C40.8857 49.7159 40.8857 50.3797 41.3005 50.7945L43.582 53.076C43.9968 53.4908 44.6605 53.4908 45.0753 53.076C45.4901 52.6611 45.4901 51.9974 45.0753 51.5826ZM45.1169 30.9248C44.7021 30.51 44.0384 30.51 43.6236 30.9248L41.3421 33.2063C40.9273 33.6211 40.9273 34.2848 41.3421 34.6996C41.7154 35.1144 42.4206 35.1144 42.8355 34.6996L45.1169 32.4181C45.5318 32.0033 45.5318 31.3396 45.1169 30.9248ZM19.3988 40.9216H22.5929C23.1737 40.9216 23.6714 41.4193 23.6714 42.0001C23.6714 42.5808 23.1737 43.0786 22.5929 43.0786H19.3988C18.7766 43.0786 18.3203 42.5808 18.3203 42.0001C18.3203 41.4193 18.8181 40.9216 19.3988 40.9216ZM26.658 49.3011C26.2846 48.8863 25.5795 48.8863 25.1646 49.3011L22.8832 51.5826C22.4683 51.9974 22.4683 52.6611 22.8832 53.076C23.298 53.4908 23.9617 53.4908 24.3765 53.076L26.658 50.7945C27.0728 50.3797 27.0728 49.7159 26.658 49.3011ZM24.3765 30.9248L26.658 33.2063C27.0728 33.6211 27.0728 34.2848 26.658 34.6996C26.2432 35.1144 25.5795 35.1144 25.1646 34.6996L22.8832 32.4181C22.4683 32.0033 22.4683 31.3396 22.8832 30.9248C23.298 30.51 23.9617 30.51 24.3765 30.9248Z" fill="#BBC2CD"/>
<path d="M46 7C46 4.23858 48.2386 2 51 2H69C71.7614 2 74 4.23858 74 7V25C74 27.7614 71.7614 30 69 30H51C48.2386 30 46 27.7614 46 25V7Z" fill="white"/>
<path d="M67 12.6875C67 11.9766 66.3984 11.375 65.6875 11.375H63.2812L62.9258 10.5C62.7344 9.98047 62.2422 9.625 61.6953 9.625H58.2773C57.7305 9.625 57.2383 9.98047 57.0469 10.5L56.7188 11.375H54.3125C53.5742 11.375 53 11.9766 53 12.6875V20.5625C53 21.3008 53.5742 21.875 54.3125 21.875H65.6875C66.3984 21.875 67 21.3008 67 20.5625V12.6875ZM63.2812 16.625C63.2812 18.457 61.8047 19.9062 60 19.9062C58.168 19.9062 56.7188 18.457 56.7188 16.625C56.7188 14.8203 58.168 13.3438 60 13.3438C61.8047 13.3438 63.2812 14.8203 63.2812 16.625ZM62.4062 16.625C62.4062 15.3125 61.3125 14.2188 60 14.2188C58.6602 14.2188 57.5938 15.3125 57.5938 16.625C57.5938 17.9648 58.6602 19.0312 60 19.0312C61.3125 19.0312 62.4062 17.9648 62.4062 16.625Z" fill="#062B45"/>
<path d="M51 3H69V1H51V3ZM73 7V25H75V7H73ZM69 29H51V31H69V29ZM47 25V7H45V25H47ZM51 29C48.7909 29 47 27.2091 47 25H45C45 28.3137 47.6863 31 51 31V29ZM73 25C73 27.2091 71.2091 29 69 29V31C72.3137 31 75 28.3137 75 25H73ZM69 3C71.2091 3 73 4.79086 73 7H75C75 3.68629 72.3137 1 69 1V3ZM51 1C47.6863 1 45 3.68629 45 7H47C47 4.79086 48.7909 3 51 3V1Z" fill="#DFE4EB"/>
<path d="M51 4H69V0H51V4ZM72 7V25H76V7H72ZM69 28H51V32H69V28ZM48 25V7H44V25H48ZM51 28C49.3431 28 48 26.6569 48 25H44C44 28.866 47.134 32 51 32V28ZM72 25C72 26.6569 70.6569 28 69 28V32C72.866 32 76 28.866 76 25H72ZM69 4C70.6569 4 72 5.34315 72 7H76C76 3.13401 72.866 0 69 0V4ZM51 0C47.134 0 44 3.13401 44 7H48C48 5.34315 49.3431 4 51 4V0Z" fill="white"/>
</svg>
