<svg width="40" height="40" viewBox="0 0 40 40" fill="none" xmlns="http://www.w3.org/2000/svg">
<path d="M14.9631 17.4487C16.1513 16.0445 17.5555 14.7483 19.1217 13.6142C25.7647 8.80747 32.8937 8.91549 35.054 13.8842C37.2143 18.8529 33.5418 26.738 26.8448 31.5447C20.85 35.8653 14.5311 36.2434 11.7227 32.6249C14.423 35.0012 19.5538 34.4611 24.3605 30.9506C30.1933 26.684 33.4338 19.717 31.5435 15.3424C29.6532 10.9678 23.3883 10.8598 17.5555 15.1264C16.6374 15.8825 15.7732 16.6386 14.9631 17.4487Z" fill="#03A9F4"/>
<path d="M17.1774 17.5561C21.552 14.3697 26.2507 14.4777 27.6549 17.7182C29.0591 20.9586 26.6287 26.1974 22.2541 29.3838C18.6356 32.0302 14.801 32.4083 12.8027 30.626C14.855 33.3264 19.6617 33.0564 24.0903 29.8159C29.0591 26.1974 31.8134 20.2565 30.1932 16.584C28.573 12.9115 23.2802 12.8035 18.3115 16.368C17.1234 17.2321 16.0972 18.2042 15.1791 19.2304C15.8272 18.6363 16.4753 18.0422 17.1774 17.5561Z" fill="#03A9F4"/>
<path d="M25.7101 21.6608C24.5219 23.065 23.1177 24.3612 21.5515 25.4954C14.9086 30.3021 7.77954 30.194 5.61923 25.2253C3.45892 20.2566 7.13145 12.3715 13.8284 7.56482C19.8233 3.2442 26.1422 2.86615 28.9506 6.48466C26.2502 4.10832 21.1194 4.6484 16.3128 8.1589C10.4259 12.3715 7.18546 19.3385 9.07573 23.7131C10.966 28.0877 17.2309 28.1958 23.0637 23.9292C24.0359 23.2271 24.9 22.4709 25.7101 21.6608Z" fill="#FCB040"/>
<path d="M23.4963 21.5526C19.1217 24.7391 14.423 24.6311 13.0188 21.3906C11.6146 18.1502 14.045 12.9114 18.4196 9.72495C22.0381 7.13258 25.8727 6.70052 27.871 8.48277C25.8187 5.78239 21.012 6.05243 16.5834 9.29289C11.5606 12.9114 8.86025 18.8523 10.4265 22.5788C11.9927 26.3053 17.3395 26.3593 22.3082 22.7948C23.4963 21.9307 24.5225 20.9586 25.4406 19.9324C24.8465 20.4725 24.1984 21.0666 23.4963 21.5526Z" fill="#FCB040"/>
</svg>
