<svg width="24" height="24" viewBox="0 0 24 24" fill="none" xmlns="http://www.w3.org/2000/svg">
<g clip-path="url(#clip0)">
<path fill-rule="evenodd" clip-rule="evenodd" d="M5.7 0C4.75993 0 4 0.761783 4 1.7V22.1C4 23.0397 4.76026 23.8 5.7 23.8H18.9C19.8397 23.8 20.6 23.0397 20.6 22.1V1.7C20.6 0.761783 19.8401 0 18.9 0H5.7ZM5 1.7C5 1.31342 5.31287 1 5.7 1H18.9C19.2871 1 19.6 1.31342 19.6 1.7V22.1C19.6 22.4875 19.2875 22.8 18.9 22.8H5.7C5.31254 22.8 5 22.4875 5 22.1V1.7ZM6.9 3.6C6.62386 3.6 6.4 3.82386 6.4 4.1V19.7C6.4 19.9761 6.62386 20.2 6.9 20.2H17.7C17.9761 20.2 18.2 19.9761 18.2 19.7V4.1C18.2 3.82386 17.9761 3.6 17.7 3.6H6.9ZM7.4 19.2V4.6H17.2V19.2H7.4ZM12.3 7C10.9189 7 9.8 8.11894 9.8 9.5C9.8 10.8811 10.9189 12 12.3 12C13.6811 12 14.8 10.8811 14.8 9.5C14.8 8.11894 13.6811 7 12.3 7ZM8.8 9.5C8.8 7.56666 10.3667 6 12.3 6C14.2333 6 15.8 7.56666 15.8 9.5C15.8 11.4333 14.2333 13 12.3 13C10.3667 13 8.8 11.4333 8.8 9.5ZM12.2 16.7V14.3H11.2V16.7H12.2ZM9.8 14.3V16.7H8.8V14.3H9.8ZM15.9 15.5L14.1 16.7V14.3L15.9 15.5Z" fill="#5B6D83"/>
</g>
<defs>
<clipPath id="clip0">
<rect width="24" height="24" fill="white"/>
</clipPath>
</defs>
</svg>
