<svg width="16" height="16" viewBox="0 0 16 16" fill="none" xmlns="http://www.w3.org/2000/svg">
<path d="M7.16873 3.84016C7.07983 3.99417 6.91849 4.08025 6.7526 4.08025C6.67116 4.08025 6.58863 4.05952 6.51305 4.01584L6.23593 3.85584C6.00636 3.72329 5.9277 3.42972 6.06025 3.20016C6.19279 2.97056 6.48629 2.89184 6.71593 3.02448L6.99305 3.18448C7.22261 3.31699 7.30127 3.61059 7.16873 3.84016ZM6.51305 4.62448L6.23593 4.78448C6.00636 4.91702 5.9277 5.21059 6.06025 5.44016C6.14914 5.59417 6.31049 5.68025 6.47637 5.68025C6.55778 5.68025 6.64034 5.65952 6.71593 5.61584L6.99305 5.45584C7.22261 5.32329 7.30127 5.02972 7.16873 4.80016C7.03618 4.57059 6.74258 4.49187 6.51305 4.62448ZM9.28431 3.02448L9.00719 3.18448C8.77762 3.31702 8.69897 3.61059 8.83151 3.84016C8.92041 3.99417 9.08175 4.08025 9.24764 4.08025C9.32905 4.08025 9.41161 4.05952 9.48719 4.01584L9.76431 3.85584C9.99388 3.72329 10.0725 3.42972 9.93999 3.20016C9.80745 2.97056 9.51391 2.89184 9.28431 3.02448ZM9.76431 4.78448L9.48719 4.62448C9.25759 4.49184 8.96402 4.57056 8.83151 4.80016C8.69897 5.02972 8.77762 5.32332 9.00719 5.45584L9.28431 5.61584C9.35989 5.65948 9.44242 5.68025 9.52386 5.68025C9.68975 5.68025 9.85109 5.59417 9.93999 5.44016C10.0726 5.21059 9.99391 4.91699 9.76431 4.78448ZM14.8761 8.06224L13.9161 15.4222C13.8849 15.6613 13.6812 15.8402 13.4401 15.8402H2.56012C2.31903 15.8402 2.11535 15.6613 2.08415 15.4222L1.12415 8.06224C1.11916 8.02406 1.11881 7.9854 1.12306 7.94713L1.76031 2.21184C1.77551 1.07795 2.70265 0.160156 3.84012 0.160156H12.1601C13.2976 0.160156 14.2247 1.07795 14.2399 2.21184L14.8772 7.94716C14.8814 7.9854 14.8811 8.02406 14.8761 8.06224ZM13.2274 13.2802H9.30505C9.27378 13.3175 9.1509 13.4435 9.1509 13.4435C8.84351 13.7509 8.43484 13.9202 8.00012 13.9202C7.5654 13.9202 7.15673 13.7509 6.84933 13.4435C6.84933 13.4435 6.72649 13.3175 6.69522 13.2802H2.77289L2.98156 14.8802H13.0187L13.2274 13.2802ZM7.47324 12.7098L7.52815 12.7647C7.65423 12.8907 7.82185 12.9602 8.00012 12.9602C8.17839 12.9602 8.34601 12.8907 8.47209 12.7647L8.527 12.7098C8.78722 12.4495 8.78722 12.0261 8.527 11.7659L8.00012 11.239L7.47324 11.7659C7.21301 12.0261 7.21301 12.4495 7.47324 12.7098ZM13.8535 8.48016H12.3201V8.64016C12.3201 8.90524 12.1052 9.12016 11.8401 9.12016C11.575 9.12016 11.3601 8.90524 11.3601 8.64016V8.48016H10.4001V8.64016C10.4001 8.90524 10.1852 9.12016 9.92012 9.12016C9.65503 9.12016 9.44012 8.90524 9.44012 8.64016V8.48016H8.48012V8.64016C8.48012 8.90524 8.26521 9.12016 8.00012 9.12016C7.73503 9.12016 7.52012 8.90524 7.52012 8.64016V8.48016H6.56012V8.64016C6.56012 8.90524 6.34521 9.12016 6.08012 9.12016C5.81503 9.12016 5.60012 8.90524 5.60012 8.64016V8.48016H4.64012V8.64016C4.64012 8.90524 4.42521 9.12016 4.16012 9.12016C3.89503 9.12016 3.68012 8.90524 3.68012 8.64016V8.48016H2.14677L2.64764 12.3202H6.3198C6.31845 12.2928 6.31775 12.2654 6.31775 12.2378C6.31775 11.8031 6.48703 11.3944 6.79442 11.087L7.66069 10.2208C7.84812 10.0333 8.15205 10.0333 8.33951 10.2208L9.20578 11.087C9.51318 11.3944 9.68245 11.8031 9.68245 12.2378C9.68245 12.2654 9.68178 12.2928 9.68041 12.3202H13.3525L13.8535 8.48016ZM13.8638 7.52016L13.2831 2.29315C13.2811 2.27555 13.2801 2.25788 13.2801 2.24016C13.2801 1.62259 12.7777 1.12016 12.1601 1.12016H3.84012C3.22255 1.12016 2.72012 1.62259 2.72012 2.24016C2.72012 2.25788 2.71913 2.27555 2.71717 2.29315L2.13641 7.52016H11.8401H13.8638ZM8.00012 2.08016C7.73503 2.08016 7.52012 2.29507 7.52012 2.56016V2.88016C7.52012 3.14524 7.73503 3.36016 8.00012 3.36016C8.26521 3.36016 8.48012 3.14524 8.48012 2.88016V2.56016C8.48012 2.29507 8.26521 2.08016 8.00012 2.08016ZM8.00012 5.28016C7.73503 5.28016 7.52012 5.49507 7.52012 5.76016V6.08016C7.52012 6.34524 7.73503 6.56016 8.00012 6.56016C8.26521 6.56016 8.48012 6.34524 8.48012 6.08016V5.76016C8.48012 5.49507 8.26521 5.28016 8.00012 5.28016Z" fill="#687D8F"/>
</svg>
