<svg width="16" height="16" viewBox="0 0 16 16" fill="none" xmlns="http://www.w3.org/2000/svg">
<path fill-rule="evenodd" clip-rule="evenodd" d="M3.85446 2.85347C4.04967 2.65816 4.0496 2.34158 3.85429 2.14636C3.65898 1.95115 3.3424 1.95122 3.14718 2.14653C1.82107 3.47329 1 5.30687 1 7.33156C1 9.3562 1.82104 11.1899 3.14735 12.5156C3.34266 12.7108 3.65924 12.7107 3.85446 12.5154C4.04967 12.3201 4.0496 12.0035 3.85429 11.8083C2.70809 10.6626 2 9.08043 2 7.33156C2 5.58272 2.70806 4.00041 3.85446 2.85347ZM12.9221 2.14653C12.7269 1.95122 12.4103 1.95115 12.215 2.14636C12.0197 2.34158 12.0196 2.65816 12.2149 2.85347C13.3612 4.00041 14.0693 5.58272 14.0693 7.33156C14.0693 9.08043 13.3612 10.6626 12.215 11.8083C12.0197 12.0035 12.0196 12.3201 12.2149 12.5154C12.4101 12.7107 12.7266 12.7108 12.922 12.5156C14.2483 11.1899 15.0693 9.3562 15.0693 7.33156C15.0693 5.30687 14.2482 3.47329 12.9221 2.14653ZM8.03537 8.53475C8.74264 8.53432 9.31679 7.95992 9.31679 7.25254C9.31679 6.54442 8.74233 5.97034 8.03459 5.97034C7.32684 5.97034 6.75238 6.54442 6.75238 7.25254C6.75238 7.96018 7.32695 8.53475 8.03459 8.53475C8.03485 8.53475 8.03511 8.53475 8.03537 8.53475ZM7.53451 9.47973C6.51492 9.25158 5.75238 8.34069 5.75238 7.25254C5.75238 5.99192 6.77478 4.97034 8.03459 4.97034C9.2944 4.97034 10.3168 5.99192 10.3168 7.25254C10.3168 8.34074 9.55418 9.25167 8.53451 9.47977V14.0843C8.53451 14.3605 8.31065 14.5843 8.03451 14.5843C7.75837 14.5843 7.53451 14.3605 7.53451 14.0843V9.47973ZM10.5341 3.82725C10.7293 3.63192 11.0459 3.6318 11.2412 3.82699C12.1381 4.72319 12.693 5.96225 12.693 7.33161C12.693 8.69923 12.138 9.93888 11.2412 10.835C11.0459 11.0302 10.7293 11.0301 10.5341 10.8348C10.3389 10.6395 10.339 10.3229 10.5344 10.1277C11.251 9.41155 11.693 8.42343 11.693 7.33161C11.693 6.23797 11.251 5.25047 10.5344 4.53436C10.339 4.33917 10.3389 4.02259 10.5341 3.82725ZM5.53456 3.82712C5.72982 4.02239 5.72982 4.33897 5.53456 4.53423C4.81841 5.25038 4.37643 6.23796 4.37643 7.33161C4.37643 8.42345 4.81838 9.41163 5.53456 10.1278C5.72982 10.3231 5.72982 10.6397 5.53456 10.8349C5.3393 11.0302 5.02271 11.0302 4.82745 10.8349C3.93133 9.93879 3.37643 8.69921 3.37643 7.33161C3.37643 5.96226 3.9313 4.72327 4.82745 3.82712C5.02271 3.63186 5.3393 3.63186 5.53456 3.82712Z" fill="#0E76BC"/>
</svg>
