<svg width="24" height="24" viewBox="0 0 24 24" fill="none" xmlns="http://www.w3.org/2000/svg">
<path fill-rule="evenodd" clip-rule="evenodd" d="M10.5 0C10.2239 0 10 0.223858 10 0.5V3.35616C9.64154 3.44657 9.23786 3.55533 8.84073 3.68127C8.44007 3.80832 8.02789 3.95839 7.66905 4.13306L5.63548 2.10037C5.4402 1.90518 5.12368 1.90521 4.92845 2.10045L2.09945 4.92945C2.00567 5.02323 1.95299 5.15043 1.953 5.28305C1.95301 5.41568 2.00572 5.54287 2.09952 5.63663L4.13295 7.66918C3.95828 8.02787 3.80804 8.43989 3.68074 8.84043C3.55448 9.23767 3.44535 9.64148 3.35457 10H0.5C0.223858 10 0 10.2239 0 10.5V13.5C0 13.7761 0.223858 14 0.5 14H3.35457C3.44535 14.3585 3.55448 14.7623 3.68074 15.1596C3.80805 15.5601 3.9583 15.9722 4.13299 16.3309L2.09945 18.3644C2.00567 18.4582 1.95299 18.5854 1.953 18.718C1.95301 18.8507 2.00571 18.9779 2.09951 19.0716L4.92851 21.8996C5.0223 21.9934 5.14949 22.046 5.2821 22.046C5.41471 22.046 5.54188 21.9933 5.63563 21.8995L7.66806 19.8662C8.02712 20.0412 8.43944 20.1917 8.84023 20.3191C9.23759 20.4455 9.64146 20.5546 10 20.6454V23.5C10 23.7761 10.2239 24 10.5 24H13.5C13.7761 24 14 23.7761 14 23.5V20.6454C14.3585 20.5546 14.7623 20.4455 15.1595 20.3193C15.5598 20.192 15.9717 20.0417 16.3302 19.867L18.3646 21.8997C18.5599 22.0948 18.8764 22.0948 19.0716 21.8996L21.8996 19.0716C22.0948 18.8763 22.0948 18.5598 21.8996 18.3645L19.867 16.331C20.0417 15.9722 20.1919 15.5602 20.3193 15.1596C20.4455 14.7623 20.5546 14.3585 20.6454 14H23.5C23.7761 14 24 13.7761 24 13.5V10.5C24 10.2239 23.7761 10 23.5 10H20.6448C20.5543 9.64144 20.4453 9.23769 20.3192 8.84044C20.1919 8.43959 20.0416 8.02729 19.8669 7.66829L21.8995 5.63663C21.9933 5.54287 22.046 5.41568 22.046 5.28305C22.046 5.15043 21.9933 5.02323 21.8996 4.92945L19.0706 2.10045C18.8753 1.90521 18.5588 1.90518 18.3635 2.10037L16.33 4.13305C15.9713 3.9584 15.5593 3.80834 15.1588 3.68129C14.7619 3.55535 14.3584 3.44659 14 3.35618V0.5C14 0.223858 13.7761 0 13.5 0H10.5ZM11 3.748V1H13V3.748C13 3.97901 13.1583 4.17994 13.3828 4.23408C13.8134 4.33786 14.3446 4.47206 14.8564 4.63446C15.3756 4.79918 15.8422 4.98295 16.1594 5.1767C16.3564 5.29704 16.6102 5.26684 16.7735 5.10363L18.7169 3.16103L20.8388 5.28292L18.8965 7.22437C18.7333 7.38756 18.7029 7.64131 18.8231 7.83838C19.017 8.15625 19.2011 8.62354 19.3661 9.14306C19.5287 9.65532 19.6632 10.1868 19.7669 10.6172C19.8211 10.8417 20.022 11 20.253 11H23V13H20.254C20.0232 13 19.8224 13.158 19.7681 13.3823C19.6637 13.813 19.529 14.3445 19.3662 14.8567C19.2011 15.3762 19.0171 15.8431 18.8233 16.1604C18.703 16.3574 18.7332 16.6112 18.8964 16.7745L20.839 18.7179L18.7178 20.839L16.7734 18.8963C16.61 18.7331 16.3561 18.703 16.1591 18.8235C15.8425 19.0171 15.3759 19.2011 14.8565 19.3662C14.3445 19.529 13.813 19.6637 13.3823 19.7681C13.158 19.8224 13 20.0232 13 20.254V23H11V20.254C11 20.0232 10.842 19.8224 10.6177 19.7681C10.187 19.6637 9.65556 19.529 9.14327 19.3661C8.62371 19.2009 8.15655 19.0167 7.83879 18.8224C7.64169 18.7019 7.38769 18.7321 7.22437 18.8955L5.28186 20.8389L3.16017 18.7179L5.10355 16.7746C5.26683 16.6113 5.29706 16.3574 5.1767 16.1604C4.9829 15.8431 4.79887 15.3762 4.63376 14.8567C4.47097 14.3445 4.33626 13.813 4.23195 13.3823C4.17762 13.158 3.9768 13 3.746 13H1V11H3.746C3.9768 11 4.17762 10.842 4.23195 10.6177C4.33626 10.187 4.47097 9.65553 4.63376 9.14332C4.79887 8.62383 4.9829 8.1569 5.1767 7.83963C5.29708 7.64254 5.26682 7.38864 5.10348 7.22537L3.16018 5.28292L5.28208 3.16103L7.22552 5.10363C7.38881 5.26684 7.64261 5.29704 7.83963 5.1767C8.15678 4.98298 8.62358 4.79921 9.14302 4.63448C9.65515 4.47208 10.1866 4.33787 10.6172 4.23408C10.8417 4.17994 11 3.97901 11 3.748ZM8 12C8 9.79114 9.79114 8 12 8C14.2089 8 16 9.79114 16 12C16 14.2098 14.2089 16 12 16C9.79107 16 8 14.2098 8 12ZM12 7C9.23886 7 7 9.23886 7 12C7 14.7622 9.23893 17 12 17C14.7611 17 17 14.7622 17 12C17 9.23886 14.7611 7 12 7Z" fill="#5B6D83"/>
</svg>
