<svg width="16" height="16" viewBox="0 0 16 16" fill="none" xmlns="http://www.w3.org/2000/svg">
<path fill-rule="evenodd" clip-rule="evenodd" d="M7.46145 0.699416C7.46145 0.409045 7.71034 0.160156 8.00071 0.160156C8.29108 0.160156 8.53997 0.409045 8.53997 0.699416V2.29645C8.53997 2.58683 8.29108 2.83571 8.00071 2.83571C7.71034 2.83571 7.46145 2.58683 7.46145 2.29645V0.699416ZM10.7787 5.22096C10.0735 4.51578 9.07792 4.05948 7.9994 4.05948C6.92088 4.05948 5.92533 4.49503 5.22014 5.22096C4.51496 5.92615 4.05866 6.9217 4.05866 8.00022C4.05866 9.07874 4.51496 10.0743 5.22014 10.7795C5.92533 11.4847 6.92088 11.941 7.9994 11.941C9.07792 11.941 10.0735 11.5054 10.7787 10.7795C11.4839 10.0743 11.9402 9.07874 11.9402 8.00022C11.9402 6.9217 11.5046 5.92615 10.7787 5.22096ZM10.032 10.0328C9.51348 10.5513 8.78755 10.8625 7.9994 10.8625C7.21126 10.8625 6.48533 10.5513 5.96681 10.0328C5.44829 9.5143 5.13718 8.78837 5.13718 8.00022C5.13718 7.21208 5.44829 6.48615 5.96681 5.96763C6.48533 5.44911 7.21126 5.138 7.9994 5.138C8.78755 5.138 9.51348 5.44911 10.032 5.96763C10.5505 6.48615 10.8616 7.21208 10.8616 8.00022C10.8616 8.78837 10.5505 9.5143 10.032 10.0328ZM15.301 7.46063H13.704C13.4136 7.46063 13.1647 7.70952 13.1647 7.99989C13.1647 8.29026 13.4136 8.53915 13.704 8.53915H15.301C15.5914 8.53915 15.8402 8.29026 15.8402 7.99989C15.8402 7.70952 15.5914 7.46063 15.301 7.46063ZM7.46145 13.704C7.46145 13.4136 7.71034 13.1647 8.00071 13.1647C8.29108 13.1647 8.53997 13.4136 8.53997 13.704V15.301C8.53997 15.5914 8.29108 15.8402 8.00071 15.8402C7.71034 15.8402 7.46145 15.5914 7.46145 15.301V13.704ZM13.5372 12.7913L12.3964 11.6506C12.2098 11.4432 11.8572 11.4432 11.6498 11.6506C11.4424 11.858 11.4424 12.1898 11.6498 12.3972L12.7905 13.538C12.9979 13.7454 13.3298 13.7454 13.5372 13.538C13.7446 13.3306 13.7446 12.9987 13.5372 12.7913ZM13.5582 2.46253C13.3508 2.25512 13.0189 2.25512 12.8115 2.46253L11.6708 3.60327C11.4634 3.81068 11.4634 4.14253 11.6708 4.34994C11.8574 4.55735 12.21 4.55735 12.4174 4.34994L13.5582 3.2092C13.7656 3.00179 13.7656 2.66994 13.5582 2.46253ZM0.699416 7.46063H2.29645C2.58683 7.46063 2.83571 7.70952 2.83571 7.99989C2.83571 8.29026 2.58683 8.53915 2.29645 8.53915H0.699416C0.388305 8.53915 0.160156 8.29026 0.160156 7.99989C0.160156 7.70952 0.409045 7.46063 0.699416 7.46063ZM4.32892 11.6506C4.14225 11.4432 3.78966 11.4432 3.58225 11.6506L2.44151 12.7913C2.2341 12.9987 2.2341 13.3306 2.44151 13.538C2.64892 13.7454 2.98077 13.7454 3.18818 13.538L4.32892 12.3972C4.53633 12.1898 4.53633 11.858 4.32892 11.6506ZM3.18818 2.46253L4.32892 3.60327C4.53633 3.81068 4.53633 4.14253 4.32892 4.34994C4.12151 4.55735 3.78966 4.55735 3.58225 4.34994L2.44151 3.2092C2.2341 3.00179 2.2341 2.66994 2.44151 2.46253C2.64892 2.25512 2.98077 2.25512 3.18818 2.46253Z" fill="#687D8F"/>
</svg>
