<svg width="76" height="76" viewBox="0 0 76 76" fill="none" xmlns="http://www.w3.org/2000/svg">
<rect x="1" y="9" width="66" height="66" rx="6" stroke="#DFE4EB" stroke-width="2"/>
<rect x="4" y="12" width="60" height="60" rx="5" fill="#F2F4F8"/>
<path d="M49.3176 46.057L49.1609 45.5755L46.1707 44.8308C46.1891 44.561 46.1974 44.2902 46.1974 44.0168C46.1974 40.5498 44.6999 37.2419 42.0892 34.9412L40.8709 36.3081C43.089 38.2624 44.3607 41.0723 44.3607 44.0168C44.3607 44.1379 44.359 44.2586 44.354 44.3785L42.4124 43.895C42.3849 41.9997 41.7066 40.1591 40.4938 38.6978L39.0769 39.8608C39.9193 40.875 40.4318 42.1256 40.5507 43.4315L38.5718 42.939C38.3582 42.0416 37.8823 41.2433 37.2296 40.629L40.2383 30.1915L39.898 29.8158C38.4395 28.2041 36.2917 27.2793 34.0061 27.2793C31.7204 27.2793 29.5733 28.2041 28.1148 29.8158L27.7744 30.1915L28.6225 33.1346C27.9569 33.4615 27.3176 33.8513 26.7116 34.3024C24.6635 35.8251 23.1194 37.9952 22.3633 40.4118L24.1173 40.9543C24.9518 38.285 26.7843 36.1558 29.1362 34.9167L29.6908 36.842C28.9683 37.2719 28.3072 37.8106 27.7354 38.447L29.1049 39.664C29.4403 39.2907 29.8152 38.9602 30.2198 38.6776L30.7825 40.6297C30.1334 41.241 29.659 42.0342 29.4441 42.9262L27.4633 43.4139C27.5313 42.6597 27.7291 41.9326 28.0543 41.2445L26.3912 40.4684C25.8857 41.5398 25.6194 42.6845 25.5997 43.8724L18.8477 45.5345L18.6895 46.0156C18.0112 48.0765 18.2758 50.3885 19.4152 52.3592C20.5545 54.3294 22.4305 55.7201 24.5626 56.1743L25.0602 56.2802L27.2064 54.0794C29.2054 55.4163 31.5692 56.1396 34.0061 56.1396C34.8473 56.1396 35.6873 56.0544 36.5034 55.8852L36.1288 54.097C35.4356 54.2407 34.7219 54.313 34.0061 54.313C32.004 54.313 30.115 53.7384 28.5134 52.738L29.9033 51.3126C31.1175 51.9909 32.5172 52.3775 34.0061 52.3775V50.551C33.0179 50.551 32.0805 50.333 31.2393 49.9421L32.6586 48.4858C33.0852 48.6135 33.5376 48.6823 34.0061 48.6823C34.4702 48.6823 34.9184 48.6154 35.3421 48.4893L42.9189 56.304L43.4166 56.1993C45.5498 55.7513 47.4301 54.3654 48.5745 52.3982C49.7193 50.431 49.9899 48.1198 49.3176 46.057ZM37.021 47.5888C37.8457 46.8998 38.4297 45.934 38.6261 44.8355L47.7019 47.0951C48.033 48.5417 47.7809 50.1151 46.9848 51.4836C46.1884 52.8519 44.943 53.8534 43.5163 54.2888L37.021 47.5888ZM29.8274 30.6866C30.9208 29.6771 32.4167 29.1058 34.0061 29.1058C35.5962 29.1058 37.092 29.6771 38.1847 30.6866L35.6072 39.6307C35.1076 39.4491 34.5681 39.3504 34.0061 39.3504C33.4441 39.3504 32.9045 39.4491 32.405 39.6307L29.8274 30.6866ZM24.4683 54.2631C23.0428 53.8241 21.7999 52.8189 21.0077 51.4484C20.2155 50.078 19.9669 48.5041 20.3023 47.0585L29.3848 44.8229C29.5781 45.9224 30.1593 46.89 30.9828 47.5809L24.4683 54.2631ZM31.151 44.0168C31.151 42.4508 32.432 41.177 34.0061 41.177C35.5809 41.177 36.8616 42.4508 36.8616 44.0168C36.8616 45.5821 35.5809 46.8557 34.0061 46.8557C32.432 46.856 31.151 45.5821 31.151 44.0168Z" fill="#BBC2CD"/>
<path d="M46 7C46 4.23858 48.2386 2 51 2H69C71.7614 2 74 4.23858 74 7V25C74 27.7614 71.7614 30 69 30H51C48.2386 30 46 27.7614 46 25V7Z" fill="white"/>
<path d="M67 12.6875C67 11.9766 66.3984 11.375 65.6875 11.375H63.2812L62.9258 10.5C62.7344 9.98047 62.2422 9.625 61.6953 9.625H58.2773C57.7305 9.625 57.2383 9.98047 57.0469 10.5L56.7188 11.375H54.3125C53.5742 11.375 53 11.9766 53 12.6875V20.5625C53 21.3008 53.5742 21.875 54.3125 21.875H65.6875C66.3984 21.875 67 21.3008 67 20.5625V12.6875ZM63.2812 16.625C63.2812 18.457 61.8047 19.9062 60 19.9062C58.168 19.9062 56.7188 18.457 56.7188 16.625C56.7188 14.8203 58.168 13.3438 60 13.3438C61.8047 13.3438 63.2812 14.8203 63.2812 16.625ZM62.4062 16.625C62.4062 15.3125 61.3125 14.2188 60 14.2188C58.6602 14.2188 57.5938 15.3125 57.5938 16.625C57.5938 17.9648 58.6602 19.0312 60 19.0312C61.3125 19.0312 62.4062 17.9648 62.4062 16.625Z" fill="#062B45"/>
<path d="M51 3H69V1H51V3ZM73 7V25H75V7H73ZM69 29H51V31H69V29ZM47 25V7H45V25H47ZM51 29C48.7909 29 47 27.2091 47 25H45C45 28.3137 47.6863 31 51 31V29ZM73 25C73 27.2091 71.2091 29 69 29V31C72.3137 31 75 28.3137 75 25H73ZM69 3C71.2091 3 73 4.79086 73 7H75C75 3.68629 72.3137 1 69 1V3ZM51 1C47.6863 1 45 3.68629 45 7H47C47 4.79086 48.7909 3 51 3V1Z" fill="#DFE4EB"/>
<path d="M51 4H69V0H51V4ZM72 7V25H76V7H72ZM69 28H51V32H69V28ZM48 25V7H44V25H48ZM51 28C49.3431 28 48 26.6569 48 25H44C44 28.866 47.134 32 51 32V28ZM72 25C72 26.6569 70.6569 28 69 28V32C72.866 32 76 28.866 76 25H72ZM69 4C70.6569 4 72 5.34315 72 7H76C76 3.13401 72.866 0 69 0V4ZM51 0C47.134 0 44 3.13401 44 7H48C48 5.34315 49.3431 4 51 4V0Z" fill="white"/>
</svg>
