<svg width="68" height="68" viewBox="0 0 68 68" fill="none" xmlns="http://www.w3.org/2000/svg">
<rect x="1" y="1" width="66" height="66" rx="6" stroke="#DFE4EB" stroke-width="2"/>
<rect x="4" y="4" width="60" height="60" rx="5" fill="#F2F4F8"/>
<path fill-rule="evenodd" clip-rule="evenodd" d="M32.9222 19.3988C32.9222 18.8181 33.42 18.3203 34.0008 18.3203C34.5815 18.3203 35.0793 18.8181 35.0793 19.3988V22.5929C35.0793 23.1737 34.5815 23.6714 34.0008 23.6714C33.42 23.6714 32.9222 23.1737 32.9222 22.5929V19.3988ZM39.5582 28.4418C38.1478 27.0314 36.1567 26.1189 33.9997 26.1189C31.8426 26.1189 29.8515 26.99 28.4412 28.4418C27.0308 29.8522 26.1182 31.8433 26.1182 34.0003C26.1182 36.1574 27.0308 38.1485 28.4412 39.5589C29.8515 40.9692 31.8426 41.8818 33.9997 41.8818C36.1567 41.8818 38.1478 41.0107 39.5582 39.5589C40.9686 38.1485 41.8812 36.1574 41.8812 34.0003C41.8812 31.8433 41.0101 29.8522 39.5582 28.4418ZM38.0649 38.0655C37.0278 39.1026 35.576 39.7248 33.9997 39.7248C32.4234 39.7248 30.9715 39.1026 29.9345 38.0655C28.8975 37.0285 28.2752 35.5766 28.2752 34.0003C28.2752 32.424 28.8975 30.9722 29.9345 29.9352C30.9715 28.8981 32.4234 28.2759 33.9997 28.2759C35.576 28.2759 37.0278 28.8981 38.0649 29.9352C39.1019 30.9722 39.7241 32.424 39.7241 34.0003C39.7241 35.5766 39.1019 37.0285 38.0649 38.0655ZM48.6018 32.9216H45.4077C44.827 32.9216 44.3292 33.4193 44.3292 34.0001C44.3292 34.5808 44.827 35.0786 45.4077 35.0786H48.6018C49.1826 35.0786 49.6803 34.5808 49.6803 34.0001C49.6803 33.4193 49.1826 32.9216 48.6018 32.9216ZM32.9222 45.4077C32.9222 44.827 33.42 44.3292 34.0008 44.3292C34.5815 44.3292 35.0793 44.827 35.0793 45.4077V48.6018C35.0793 49.1826 34.5815 49.6803 34.0008 49.6803C33.42 49.6803 32.9222 49.1826 32.9222 48.6018V45.4077ZM45.0753 43.5826L42.7938 41.3011C42.4205 40.8863 41.7153 40.8863 41.3005 41.3011C40.8857 41.7159 40.8857 42.3797 41.3005 42.7945L43.582 45.076C43.9968 45.4908 44.6605 45.4908 45.0753 45.076C45.4901 44.6611 45.4901 43.9974 45.0753 43.5826ZM45.1169 22.9248C44.7021 22.51 44.0384 22.51 43.6236 22.9248L41.3421 25.2063C40.9273 25.6211 40.9273 26.2848 41.3421 26.6996C41.7154 27.1144 42.4206 27.1144 42.8355 26.6996L45.1169 24.4181C45.5318 24.0033 45.5318 23.3396 45.1169 22.9248ZM19.3988 32.9216H22.5929C23.1737 32.9216 23.6714 33.4193 23.6714 34.0001C23.6714 34.5808 23.1737 35.0786 22.5929 35.0786H19.3988C18.7766 35.0786 18.3203 34.5808 18.3203 34.0001C18.3203 33.4193 18.8181 32.9216 19.3988 32.9216ZM26.658 41.3011C26.2846 40.8863 25.5795 40.8863 25.1646 41.3011L22.8832 43.5826C22.4683 43.9974 22.4683 44.6611 22.8832 45.076C23.298 45.4908 23.9617 45.4908 24.3765 45.076L26.658 42.7945C27.0728 42.3797 27.0728 41.7159 26.658 41.3011ZM24.3765 22.9248L26.658 25.2063C27.0728 25.6211 27.0728 26.2848 26.658 26.6996C26.2432 27.1144 25.5795 27.1144 25.1646 26.6996L22.8832 24.4181C22.4683 24.0033 22.4683 23.3396 22.8832 22.9248C23.298 22.51 23.9617 22.51 24.3765 22.9248Z" fill="#BBC2CD"/>
</svg>
