<svg width="76" height="76" viewBox="0 0 76 76" fill="none" xmlns="http://www.w3.org/2000/svg">
<rect x="1" y="9" width="66" height="66" rx="6" stroke="#DFE4EB" stroke-width="2"/>
<rect x="4" y="12" width="60" height="60" rx="5" fill="#F2F4F8"/>
<path fill-rule="evenodd" clip-rule="evenodd" d="M46.9241 27.9199H21.0766C19.5568 27.9199 18.3203 29.1557 18.3203 30.6747V41.6938C18.3203 43.2128 19.5568 44.4486 21.0766 44.4486H46.9241C48.4439 44.4486 49.6803 43.2128 49.6803 41.6938V30.6747C49.6803 29.1557 48.4439 27.9199 46.9241 27.9199ZM47.8428 41.6938C47.8428 42.2002 47.4307 42.6121 46.9241 42.6121H21.0766C20.57 42.6121 20.1578 42.2002 20.1578 41.6938V41.3877H47.8428V41.6938ZM47.8428 39.5512H20.1578V30.6747C20.1578 30.1684 20.57 29.7564 21.0766 29.7564H46.9241C47.4307 29.7564 47.8428 30.1684 47.8428 30.6747V39.5512ZM45.3928 33.1236C45.9002 33.1236 46.3116 32.7125 46.3116 32.2053C46.3116 31.6982 45.9002 31.2871 45.3928 31.2871C44.8854 31.2871 44.4741 31.6982 44.4741 32.2053C44.4741 32.7125 44.8854 33.1236 45.3928 33.1236ZM34.9803 45.6728C35.4877 45.6728 35.8991 46.0839 35.8991 46.5911C35.8991 47.9821 35.293 48.6582 34.7549 49.2585C34.3253 49.7377 33.9391 50.1686 33.9391 50.8763C33.9391 51.5849 34.3254 52.0156 34.7551 52.4946C35.2931 53.0944 35.8991 53.7699 35.8991 55.1615C35.8991 55.6686 35.4877 56.0797 34.9803 56.0797C34.4729 56.0797 34.0616 55.6686 34.0616 55.1615C34.0616 54.4529 33.6752 54.0221 33.2455 53.5431C32.7075 52.9433 32.1016 52.2678 32.1016 50.8763C32.1016 49.4852 32.7076 48.8091 33.2457 48.2089C33.6753 47.7296 34.0616 47.2988 34.0616 46.5911C34.0616 46.0839 34.4729 45.6728 34.9803 45.6728ZM42.0241 46.5911C42.0241 46.0839 41.6127 45.6728 41.1053 45.6728C40.5979 45.6728 40.1866 46.0839 40.1866 46.5911C40.1866 47.2988 39.8003 47.7296 39.3707 48.2089C38.8326 48.8091 38.2266 49.4852 38.2266 50.8763C38.2266 52.2678 38.8325 52.9433 39.3705 53.5431C39.8002 54.0221 40.1866 54.4529 40.1866 55.1615C40.1866 55.6686 40.5979 56.0797 41.1053 56.0797C41.6127 56.0797 42.0241 55.6686 42.0241 55.1615C42.0241 53.7699 41.4181 53.0944 40.8801 52.4946C40.4504 52.0156 40.0641 51.5849 40.0641 50.8763C40.0641 50.1686 40.4503 49.7377 40.8799 49.2585C41.418 48.6582 42.0241 47.9821 42.0241 46.5911ZM28.8553 45.6728C29.3627 45.6728 29.7741 46.0839 29.7741 46.5911C29.7741 47.9821 29.168 48.6582 28.6299 49.2585C28.2003 49.7377 27.8141 50.1686 27.8141 50.8763C27.8141 51.5849 28.2004 52.0156 28.6301 52.4946C29.1681 53.0944 29.7741 53.7699 29.7741 55.1615C29.7741 55.6686 29.3627 56.0797 28.8553 56.0797C28.3479 56.0797 27.9366 55.6686 27.9366 55.1615C27.9366 54.4529 27.5502 54.0221 27.1205 53.5431C26.5825 52.9433 25.9766 52.2678 25.9766 50.8763C25.9766 49.4852 26.5826 48.8091 27.1207 48.2089C27.5503 47.7296 27.9366 47.2988 27.9366 46.5911C27.9366 46.0839 28.3479 45.6728 28.8553 45.6728Z" fill="#BBC2CD"/>
<path d="M46 7C46 4.23858 48.2386 2 51 2H69C71.7614 2 74 4.23858 74 7V25C74 27.7614 71.7614 30 69 30H51C48.2386 30 46 27.7614 46 25V7Z" fill="white"/>
<path d="M67 12.6875C67 11.9766 66.3984 11.375 65.6875 11.375H63.2812L62.9258 10.5C62.7344 9.98047 62.2422 9.625 61.6953 9.625H58.2773C57.7305 9.625 57.2383 9.98047 57.0469 10.5L56.7188 11.375H54.3125C53.5742 11.375 53 11.9766 53 12.6875V20.5625C53 21.3008 53.5742 21.875 54.3125 21.875H65.6875C66.3984 21.875 67 21.3008 67 20.5625V12.6875ZM63.2812 16.625C63.2812 18.457 61.8047 19.9062 60 19.9062C58.168 19.9062 56.7188 18.457 56.7188 16.625C56.7188 14.8203 58.168 13.3438 60 13.3438C61.8047 13.3438 63.2812 14.8203 63.2812 16.625ZM62.4062 16.625C62.4062 15.3125 61.3125 14.2188 60 14.2188C58.6602 14.2188 57.5938 15.3125 57.5938 16.625C57.5938 17.9648 58.6602 19.0312 60 19.0312C61.3125 19.0312 62.4062 17.9648 62.4062 16.625Z" fill="#062B45"/>
<path d="M51 3H69V1H51V3ZM73 7V25H75V7H73ZM69 29H51V31H69V29ZM47 25V7H45V25H47ZM51 29C48.7909 29 47 27.2091 47 25H45C45 28.3137 47.6863 31 51 31V29ZM73 25C73 27.2091 71.2091 29 69 29V31C72.3137 31 75 28.3137 75 25H73ZM69 3C71.2091 3 73 4.79086 73 7H75C75 3.68629 72.3137 1 69 1V3ZM51 1C47.6863 1 45 3.68629 45 7H47C47 4.79086 48.7909 3 51 3V1Z" fill="#DFE4EB"/>
<path d="M51 4H69V0H51V4ZM72 7V25H76V7H72ZM69 28H51V32H69V28ZM48 25V7H44V25H48ZM51 28C49.3431 28 48 26.6569 48 25H44C44 28.866 47.134 32 51 32V28ZM72 25C72 26.6569 70.6569 28 69 28V32C72.866 32 76 28.866 76 25H72ZM69 4C70.6569 4 72 5.34315 72 7H76C76 3.13401 72.866 0 69 0V4ZM51 0C47.134 0 44 3.13401 44 7H48C48 5.34315 49.3431 4 51 4V0Z" fill="white"/>
</svg>
