<svg width="76" height="76" viewBox="0 0 76 76" fill="none" xmlns="http://www.w3.org/2000/svg">
<rect x="1" y="9" width="66" height="66" rx="6" stroke="#DFE4EB" stroke-width="2"/>
<rect x="4" y="12" width="60" height="60" rx="5" fill="#F2F4F8"/>
<path d="M32.3375 33.6803C32.1597 33.9883 31.837 34.1605 31.5052 34.1605C31.3423 34.1605 31.1773 34.119 31.0261 34.0317L30.4719 33.7117C30.0127 33.4466 29.8554 32.8594 30.1205 32.4003C30.3856 31.9411 30.9726 31.7837 31.4319 32.049L31.9861 32.369C32.4452 32.634 32.6025 33.2212 32.3375 33.6803ZM31.0261 35.249L30.4719 35.569C30.0127 35.834 29.8554 36.4212 30.1205 36.8803C30.2983 37.1883 30.621 37.3605 30.9527 37.3605C31.1156 37.3605 31.2807 37.319 31.4319 37.2317L31.9861 36.9117C32.4452 36.6466 32.6025 36.0594 32.3375 35.6003C32.0724 35.1412 31.4852 34.9837 31.0261 35.249ZM36.5686 32.049L36.0144 32.369C35.5552 32.634 35.3979 33.2212 35.663 33.6803C35.8408 33.9883 36.1635 34.1605 36.4953 34.1605C36.6581 34.1605 36.8232 34.119 36.9744 34.0317L37.5286 33.7117C37.9878 33.4466 38.1451 32.8594 37.88 32.4003C37.6149 31.9411 37.0278 31.7837 36.5686 32.049ZM37.5286 35.569L36.9744 35.249C36.5152 34.9837 35.928 35.1411 35.663 35.6003C35.3979 36.0594 35.5552 36.6466 36.0144 36.9117L36.5686 37.2317C36.7198 37.319 36.8848 37.3605 37.0477 37.3605C37.3795 37.3605 37.7022 37.1883 37.88 36.8803C38.1451 36.4212 37.9878 35.834 37.5286 35.569ZM47.7522 42.1245L45.8322 56.8445C45.7698 57.3226 45.3624 57.6803 44.8802 57.6803H23.1202C22.6381 57.6803 22.2307 57.3226 22.1683 56.8445L20.2483 42.1245C20.2383 42.0481 20.2376 41.9708 20.2461 41.8943L21.5206 30.4237C21.551 28.1559 23.4053 26.3203 25.6802 26.3203H42.3202C44.5952 26.3203 46.4495 28.1559 46.4799 30.4237L47.7543 41.8943C47.7629 41.9708 47.7622 42.0481 47.7522 42.1245ZM44.4547 52.5603H36.6101C36.5476 52.6351 36.3018 52.887 36.3018 52.887C35.687 53.5018 34.8697 53.8403 34.0002 53.8403C33.1308 53.8403 32.3135 53.5018 31.6987 52.887C31.6987 52.887 31.453 52.6351 31.3904 52.5603H23.5458L23.9631 55.7603H44.0374L44.4547 52.5603ZM32.9465 51.4195L33.0563 51.5293C33.3085 51.7814 33.6437 51.9203 34.0002 51.9203C34.3568 51.9203 34.692 51.7814 34.9442 51.5293L35.054 51.4195C35.5744 50.899 35.5744 50.0522 35.054 49.5317L34.0002 48.4779L32.9465 49.5317C32.426 50.0522 32.426 50.899 32.9465 51.4195ZM45.7069 42.9603H42.6402V43.2803C42.6402 43.8105 42.2104 44.2403 41.6802 44.2403C41.1501 44.2403 40.7202 43.8105 40.7202 43.2803V42.9603H38.8002V43.2803C38.8002 43.8105 38.3704 44.2403 37.8402 44.2403C37.3101 44.2403 36.8802 43.8105 36.8802 43.2803V42.9603H34.9602V43.2803C34.9602 43.8105 34.5304 44.2403 34.0002 44.2403C33.4701 44.2403 33.0402 43.8105 33.0402 43.2803V42.9603H31.1202V43.2803C31.1202 43.8105 30.6904 44.2403 30.1602 44.2403C29.6301 44.2403 29.2002 43.8105 29.2002 43.2803V42.9603H27.2802V43.2803C27.2802 43.8105 26.8504 44.2403 26.3202 44.2403C25.7901 44.2403 25.3602 43.8105 25.3602 43.2803V42.9603H22.2935L23.2953 50.6403H30.6396C30.6369 50.5857 30.6355 50.5307 30.6355 50.4756C30.6355 49.6062 30.9741 48.7889 31.5888 48.1741L33.3214 46.4415C33.6962 46.0667 34.3041 46.0667 34.679 46.4415L36.4116 48.1741C37.0263 48.7888 37.3649 49.6062 37.3649 50.4756C37.3649 50.5307 37.3636 50.5857 37.3608 50.6403H44.7051L45.7069 42.9603ZM45.7277 41.0403L44.5661 30.5863C44.5622 30.5511 44.5602 30.5158 44.5602 30.4803C44.5602 29.2452 43.5554 28.2403 42.3202 28.2403H25.6802C24.4451 28.2403 23.4402 29.2452 23.4402 30.4803C23.4402 30.5158 23.4383 30.5511 23.4343 30.5863L22.2728 41.0403H41.6802H45.7277ZM34.0002 30.1603C33.4701 30.1603 33.0402 30.5901 33.0402 31.1203V31.7603C33.0402 32.2905 33.4701 32.7203 34.0002 32.7203C34.5304 32.7203 34.9602 32.2905 34.9602 31.7603V31.1203C34.9602 30.5901 34.5304 30.1603 34.0002 30.1603ZM34.0002 36.5603C33.4701 36.5603 33.0402 36.9901 33.0402 37.5203V38.1603C33.0402 38.6905 33.4701 39.1203 34.0002 39.1203C34.5304 39.1203 34.9602 38.6905 34.9602 38.1603V37.5203C34.9602 36.9901 34.5304 36.5603 34.0002 36.5603Z" fill="#BBC2CD"/>
<path d="M46 7C46 4.23858 48.2386 2 51 2H69C71.7614 2 74 4.23858 74 7V25C74 27.7614 71.7614 30 69 30H51C48.2386 30 46 27.7614 46 25V7Z" fill="white"/>
<path d="M67 12.6875C67 11.9766 66.3984 11.375 65.6875 11.375H63.2812L62.9258 10.5C62.7344 9.98047 62.2422 9.625 61.6953 9.625H58.2773C57.7305 9.625 57.2383 9.98047 57.0469 10.5L56.7188 11.375H54.3125C53.5742 11.375 53 11.9766 53 12.6875V20.5625C53 21.3008 53.5742 21.875 54.3125 21.875H65.6875C66.3984 21.875 67 21.3008 67 20.5625V12.6875ZM63.2812 16.625C63.2812 18.457 61.8047 19.9062 60 19.9062C58.168 19.9062 56.7188 18.457 56.7188 16.625C56.7188 14.8203 58.168 13.3438 60 13.3438C61.8047 13.3438 63.2812 14.8203 63.2812 16.625ZM62.4062 16.625C62.4062 15.3125 61.3125 14.2188 60 14.2188C58.6602 14.2188 57.5938 15.3125 57.5938 16.625C57.5938 17.9648 58.6602 19.0312 60 19.0312C61.3125 19.0312 62.4062 17.9648 62.4062 16.625Z" fill="#062B45"/>
<path d="M51 3H69V1H51V3ZM73 7V25H75V7H73ZM69 29H51V31H69V29ZM47 25V7H45V25H47ZM51 29C48.7909 29 47 27.2091 47 25H45C45 28.3137 47.6863 31 51 31V29ZM73 25C73 27.2091 71.2091 29 69 29V31C72.3137 31 75 28.3137 75 25H73ZM69 3C71.2091 3 73 4.79086 73 7H75C75 3.68629 72.3137 1 69 1V3ZM51 1C47.6863 1 45 3.68629 45 7H47C47 4.79086 48.7909 3 51 3V1Z" fill="#DFE4EB"/>
<path d="M51 4H69V0H51V4ZM72 7V25H76V7H72ZM69 28H51V32H69V28ZM48 25V7H44V25H48ZM51 28C49.3431 28 48 26.6569 48 25H44C44 28.866 47.134 32 51 32V28ZM72 25C72 26.6569 70.6569 28 69 28V32C72.866 32 76 28.866 76 25H72ZM69 4C70.6569 4 72 5.34315 72 7H76C76 3.13401 72.866 0 69 0V4ZM51 0C47.134 0 44 3.13401 44 7H48C48 5.34315 49.3431 4 51 4V0Z" fill="white"/>
</svg>
