<svg width="36" height="36" viewBox="0 0 36 36" fill="none" xmlns="http://www.w3.org/2000/svg">
<path d="M0 5C0 2.23858 2.23858 0 5 0H31C33.7614 0 36 2.23858 36 5V31C36 33.7614 33.7614 36 31 36H5C2.23858 36 0 33.7614 0 31V5Z" fill="#DFE4EB"/>
<path d="M25.2188 19.875L23.875 19.125C24.0312 18.375 24.0312 17.6562 23.875 16.9062L25.2188 16.1562C25.375 16.0625 25.4375 15.875 25.375 15.7188C25.0312 14.5938 24.4375 13.5938 23.6875 12.75C23.5625 12.625 23.375 12.5938 23.2188 12.6875L21.875 13.4375C21.3125 12.9688 20.6875 12.5938 20 12.3438V10.8125C20 10.6562 19.875 10.5 19.6875 10.4688C18.5312 10.1875 17.375 10.2188 16.2812 10.4688C16.0938 10.5 16 10.6562 16 10.8125V12.3438C15.2812 12.5938 14.6562 12.9688 14.0938 13.4688L12.75 12.6875C12.5938 12.5938 12.4062 12.625 12.2812 12.75C11.5312 13.5938 10.9375 14.5938 10.5938 15.7188C10.5312 15.875 10.5938 16.0625 10.75 16.1562L12.0938 16.9062C11.9688 17.6562 11.9688 18.375 12.0938 19.125L10.75 19.875C10.5938 19.9688 10.5312 20.1562 10.5938 20.3125C10.9375 21.4375 11.5312 22.4375 12.2812 23.2812C12.4062 23.4062 12.5938 23.4375 12.75 23.3438L14.0938 22.5938C14.6562 23.0625 15.2812 23.4375 16 23.6875V25.2188C16 25.375 16.125 25.5312 16.2812 25.5938C17.4375 25.8438 18.5938 25.8125 19.6875 25.5938C19.875 25.5312 20 25.375 20 25.2188V23.6875C20.6875 23.4375 21.3125 23.0625 21.875 22.5938L23.2188 23.3438C23.375 23.4375 23.5625 23.4062 23.6875 23.2812C24.4688 22.4375 25.0312 21.4375 25.4062 20.3125C25.4375 20.1562 25.375 19.9688 25.2188 19.875ZM18 20.5C16.5938 20.5 15.5 19.4062 15.5 18C15.5 16.625 16.5938 15.5 18 15.5C19.375 15.5 20.5 16.625 20.5 18C20.5 19.4062 19.375 20.5 18 20.5Z" fill="#062B45"/>
<path d="M5 1H31V-1H5V1ZM35 5V31H37V5H35ZM31 35H5V37H31V35ZM1 31V5H-1V31H1ZM5 35C2.79086 35 1 33.2091 1 31H-1C-1 34.3137 1.68629 37 5 37V35ZM35 31C35 33.2091 33.2091 35 31 35V37C34.3137 37 37 34.3137 37 31H35ZM31 1C33.2091 1 35 2.79086 35 5H37C37 1.68629 34.3137 -1 31 -1V1ZM5 -1C1.68629 -1 -1 1.68629 -1 5H1C1 2.79086 2.79086 1 5 1V-1Z" fill="#DFE4EB"/>
</svg>
