<svg width="18" height="18" viewBox="0 0 18 18" fill="none" xmlns="http://www.w3.org/2000/svg">
<path d="M17.6157 11.2832L17.5275 11.0123L15.8455 10.5934C15.8559 10.4416 15.8606 10.2893 15.8606 10.1356C15.8606 8.18536 15.0182 6.32468 13.5497 5.03052L12.8644 5.79939C14.1121 6.89869 14.8274 8.47925 14.8274 10.1356C14.8274 10.2037 14.8264 10.2715 14.8236 10.339L13.7315 10.067C13.716 9.00093 13.3345 7.9656 12.6523 7.1436L11.8553 7.79778C12.3291 8.3683 12.6174 9.07173 12.6843 9.80634L11.5712 9.5293C11.451 9.02449 11.1833 8.57548 10.8162 8.22992L12.5085 2.35882L12.3172 2.14749C11.4967 1.24091 10.2886 0.720703 9.00292 0.720703C7.71726 0.720703 6.50951 1.24091 5.6891 2.14749L5.49759 2.35882L5.97468 4.01433C5.60028 4.19821 5.24067 4.41743 4.89977 4.67118C3.74775 5.52771 2.87915 6.74839 2.45387 8.10773L3.4405 8.41287C3.90992 6.9114 4.94069 5.71373 6.26363 5.01673L6.57559 6.09971C6.16916 6.34154 5.7973 6.64454 5.47565 7.00254L6.246 7.6871C6.43469 7.47711 6.64558 7.29122 6.87316 7.13223L7.18969 8.23032C6.82457 8.57414 6.5577 9.02034 6.43684 9.52208L5.32263 9.79643C5.36085 9.37218 5.47215 8.96319 5.65505 8.57615L4.71957 8.13958C4.43519 8.74223 4.2854 9.3861 4.27437 10.0543L0.476316 10.9893L0.387357 11.2599C0.00581601 12.4192 0.154664 13.7196 0.795546 14.8281C1.43643 15.9364 2.49169 16.7187 3.69095 16.9741L3.97089 17.0337L5.17809 15.7958C6.30253 16.5478 7.6322 16.9546 9.00292 16.9546C9.47612 16.9546 9.94864 16.9067 10.4077 16.8115L10.1969 15.8057C9.80706 15.8865 9.4056 15.9272 9.00292 15.9272C7.87674 15.9272 6.81421 15.604 5.91331 15.0412L6.6951 14.2394C7.37811 14.621 8.16542 14.8384 9.00292 14.8384V13.811C8.4471 13.811 7.9198 13.6884 7.44661 13.4685L8.24496 12.6493C8.48492 12.7212 8.73941 12.7599 9.00292 12.7599C9.26402 12.7599 9.51609 12.7223 9.75443 12.6514L14.0164 17.0471L14.2963 16.9882C15.4963 16.7362 16.5539 15.9566 17.1977 14.8501C17.8416 13.7436 17.9938 12.4435 17.6157 11.2832ZM10.6988 12.1448C11.1627 11.7572 11.4912 11.214 11.6017 10.5961L16.7068 11.8671C16.8931 12.6808 16.7512 13.5658 16.3035 14.3356C15.8555 15.1053 15.155 15.6686 14.3524 15.9135L10.6988 12.1448ZM6.65244 2.63732C7.26748 2.06947 8.10889 1.74814 9.00292 1.74814C9.89736 1.74814 10.7388 2.06947 11.3534 2.63732L9.90355 7.66836C9.62254 7.56625 9.31906 7.5107 9.00292 7.5107C8.68679 7.5107 8.38331 7.56625 8.1023 7.66836L6.65244 2.63732ZM3.63793 15.8991C2.83609 15.6521 2.13693 15.0867 1.69133 14.3158C1.24572 13.545 1.10589 12.6596 1.29458 11.8465L6.40346 10.589C6.51221 11.2074 6.83911 11.7517 7.30234 12.1404L3.63793 15.8991ZM7.39695 10.1356C7.39695 9.25468 8.11751 8.53814 9.00292 8.53814C9.88875 8.53814 10.6092 9.25468 10.6092 10.1356C10.6092 11.0161 9.88875 11.7325 9.00292 11.7325C8.11751 11.7326 7.39695 11.0161 7.39695 10.1356Z" fill="#062B45"/>
</svg>
