<svg width="16" height="16" viewBox="0 0 16 16" fill="none" xmlns="http://www.w3.org/2000/svg">
<path d="M15.5 8C15.5 12.142 12.142 15.5 8 15.5C3.85796 15.5 0.5 12.142 0.5 8C0.5 3.85796 3.85796 0.5 8 0.5C12.142 0.5 15.5 3.85796 15.5 8Z" fill="#9DA9B5" stroke="#9DA9B5" stroke-linecap="round" stroke-linejoin="round"/>
<path d="M6.875 12.0625C6.875 12.5795 7.29552 13 7.81249 13C8.32947 13 8.74999 12.5795 8.74999 12.0625C8.74999 11.5455 8.32947 11.125 7.81249 11.125C7.29552 11.125 6.875 11.5455 6.875 12.0625Z" fill="white"/>
<path d="M8.74999 10.1875V9.18775C10.1935 8.8954 11.25 7.62465 11.25 6.125C11.25 4.402 9.84804 3 8.125 3C6.40197 3 5 4.40197 5 6.125V6.43751C5 6.61025 5.13978 6.75002 5.31251 6.75002H6.56249C6.73522 6.75002 6.875 6.61025 6.875 6.43751V6.125C6.875 5.43591 7.43591 4.875 8.125 4.875C8.81409 4.875 9.37501 5.43591 9.37501 6.125C9.37501 6.81409 8.81409 7.37501 8.125 7.37501C7.43591 7.37501 6.875 7.93593 6.875 8.62502V10.1875C6.875 10.3602 7.01477 10.5 7.18751 10.5H8.43748C8.61022 10.5 8.74999 10.3602 8.74999 10.1875Z" fill="white"/>
</svg>
