<svg width="24" height="24" viewBox="0 0 24 24" fill="none" xmlns="http://www.w3.org/2000/svg">
<path fill-rule="evenodd" clip-rule="evenodd" d="M17.162 1.81378C17.1856 1.82934 17.208 1.8473 17.2286 1.86759L24 8.54381V22.2876H19.8692H13.9659H10.5542H9.85106H0V8.54381L6.93028 1.71094H16.9119C17.008 1.71094 17.0966 1.74933 17.162 1.81378ZM0.703125 21.5844H4.78763V19.1704H0.703125V21.5844ZM0.703125 18.4673H4.78763V9.04247H0.703125V18.4673ZM7.21866 2.41406L1.20886 8.33934H4.995L11.0048 2.41406H7.21866ZM5.49075 21.5844H9.85111V19.1704H5.49075V21.5844ZM5.49075 18.4673H9.85111V9.04247H5.49075V18.4673ZM5.99648 8.33934H10.0585L16.0682 2.41406H12.0062L5.99648 8.33934ZM10.5542 21.5844H13.9659V19.1704H10.5542V21.5844ZM10.5542 18.4673H13.9659V9.04247H10.5542V18.4673ZM16.9255 2.55619L11.06 8.33934H13.9659H19.8692H22.7911L16.9255 2.55619ZM14.669 21.5844H19.1661V13.7651H14.669V21.5844ZM14.669 13.062H19.1661V9.04247H14.669V13.062ZM19.8692 21.5844H23.2969V19.1704H19.8692V21.5844ZM19.8692 18.4673H23.2969V9.04247H19.8692V18.4673ZM15.0215 16.9292H15.7246V17.6982H15.0215V16.9292Z" fill="#5B6D83"/>
</svg>
