<svg width="24" height="24" viewBox="0 0 24 24" fill="none" xmlns="http://www.w3.org/2000/svg">
<path fill-rule="evenodd" clip-rule="evenodd" d="M23.1 9.07596L12.225 0.825951C12.1603 0.776683 12.0813 0.75 12 0.75C11.9187 0.75 11.8397 0.776683 11.775 0.825951L0.9 9.07596C0.853724 9.11116 0.816139 9.15652 0.790135 9.20852C0.764131 9.26053 0.750401 9.31781 0.75 9.37596V22.876C0.75 22.9754 0.789509 23.0708 0.859835 23.1411C0.930161 23.2115 1.02554 23.251 1.125 23.251H22.875C22.9745 23.251 23.0698 23.2115 23.1402 23.1411C23.2105 23.0708 23.25 22.9754 23.25 22.876V9.37596C23.2496 9.31781 23.2359 9.26053 23.2099 9.20852C23.1839 9.15652 23.1463 9.11116 23.1 9.07596ZM12 1.59845L21.7612 9.00096H2.23875L12 1.59845ZM19.125 9.75096V10.876C19.125 10.9754 19.0855 11.0708 19.0152 11.1411C18.9448 11.2114 18.8495 11.251 18.75 11.251C18.6505 11.251 18.5552 11.2114 18.4848 11.1411C18.4145 11.0708 18.375 10.9754 18.375 10.876V9.75096H19.125ZM5.625 9.75096V10.876C5.625 10.9754 5.58549 11.0708 5.51516 11.1411C5.44484 11.2114 5.34946 11.251 5.25 11.251C5.15054 11.251 5.05516 11.2114 4.98484 11.1411C4.91451 11.0708 4.875 10.9754 4.875 10.876V9.75096H5.625ZM10.875 13.0622C10.875 12.2897 11.625 11.5847 12 11.281C12.4388 11.6335 13.125 12.3422 13.125 13.0622C13.125 14.0785 12.6112 14.9372 12 14.9372C11.3888 14.9372 10.875 14.0785 10.875 13.0622ZM11.4412 17.0972C11.0925 17.5997 10.095 17.5285 9.2625 16.9435C8.62875 16.501 8.4825 15.4847 8.44875 15.001C8.91375 14.8697 9.91875 14.6597 10.5525 15.1022C10.9581 15.373 11.2761 15.7561 11.4675 16.2047C11.5353 16.3446 11.5683 16.4988 11.5637 16.6542C11.5592 16.8096 11.5171 16.9615 11.4412 17.0972ZM13.4475 15.1022C13.7483 14.9114 14.1003 14.8172 14.4562 14.8322C14.8271 14.8399 15.1953 14.8966 15.5513 15.001C15.5175 15.4847 15.3713 16.501 14.7375 16.9435C13.905 17.5285 12.9075 17.596 12.5588 17.0972C12.4829 16.9615 12.4408 16.8096 12.4363 16.6542C12.4317 16.4988 12.4647 16.3446 12.5325 16.2047C12.7239 15.7561 13.0419 15.373 13.4475 15.1022ZM22.5 22.501H12.375V17.9185C12.6703 18.096 13.0092 18.1882 13.3538 18.1847C14.0081 18.1639 14.6408 17.9456 15.1688 17.5585C16.3185 16.7526 16.3129 14.8606 16.3125 14.7281L16.3125 14.7235C16.3104 14.6493 16.2865 14.5774 16.2438 14.5167C16.2012 14.456 16.1416 14.4093 16.0725 14.3822C15.3158 14.0997 14.4962 14.0296 13.7025 14.1797C13.8176 13.8184 13.8758 13.4414 13.875 13.0622C13.875 11.6372 12.2775 10.546 12.21 10.501C12.1474 10.4606 12.0745 10.4391 12 10.4391C11.9255 10.4391 11.8526 10.4606 11.79 10.501C11.7225 10.546 10.125 11.6372 10.125 13.0622C10.1242 13.4414 10.1824 13.8184 10.2975 14.1797C9.50372 14.0317 8.68466 14.1017 7.9275 14.3822C7.85842 14.4093 7.79883 14.456 7.75616 14.5167C7.71348 14.5774 7.6896 14.6493 7.6875 14.7235L7.68749 14.7281C7.6871 14.8606 7.68155 16.7526 8.83125 17.5585C9.35917 17.9456 9.99191 18.1639 10.6462 18.1847C10.9908 18.1882 11.3297 18.096 11.625 17.9185V22.501H1.5V9.75096H4.125V10.876C4.125 11.1743 4.24353 11.4605 4.4545 11.6715C4.66548 11.8824 4.95163 12.001 5.25 12.001C5.54837 12.001 5.83452 11.8824 6.0455 11.6715C6.25647 11.4605 6.375 11.1743 6.375 10.876V9.75096H17.625V10.876C17.625 11.1743 17.7435 11.4605 17.9545 11.6715C18.1655 11.8824 18.4516 12.001 18.75 12.001C19.0484 12.001 19.3345 11.8824 19.5455 11.6715C19.7565 11.4605 19.875 11.1743 19.875 10.876V9.75096H22.5V22.501ZM12 3.00096C11.4808 3.00096 10.9733 3.15491 10.5416 3.44335C10.11 3.73179 9.7735 4.14176 9.57482 4.62142C9.37614 5.10107 9.32415 5.62887 9.42544 6.13807C9.52673 6.64727 9.77673 7.115 10.1438 7.48212C10.511 7.84923 10.9787 8.09924 11.4879 8.20052C11.9971 8.30181 12.5249 8.24983 13.0045 8.05115C13.4842 7.85247 13.8942 7.51601 14.1826 7.08433C14.471 6.65265 14.625 6.14514 14.625 5.62596C14.6242 4.93001 14.3474 4.26279 13.8553 3.77068C13.3632 3.27857 12.696 3.00176 12 3.00096ZM12 7.50096C11.6292 7.50096 11.2666 7.391 10.9583 7.18497C10.65 6.97894 10.4096 6.6861 10.2677 6.34349C10.1258 6.00088 10.0887 5.62388 10.161 5.26017C10.2334 4.89645 10.412 4.56236 10.6742 4.30014C10.9364 4.03791 11.2705 3.85934 11.6342 3.78699C11.9979 3.71464 12.3749 3.75177 12.7175 3.89369C13.0601 4.0356 13.353 4.27593 13.559 4.58427C13.765 4.89261 13.875 5.25512 13.875 5.62596C13.8744 6.12306 13.6767 6.59963 13.3252 6.95113C12.9737 7.30263 12.4971 7.50037 12 7.50096ZM13.125 6.00096V5.25096H10.875V6.00096H13.125ZM12.75 4.12596V4.87596H11.25V4.12596H12.75ZM12.75 7.12596V6.37596H11.25V7.12596H12.75ZM5.25 19.4635C4.96725 18.9109 4.53762 18.4471 4.00835 18.1229C3.47908 17.7987 2.87066 17.6268 2.25 17.626C2.15054 17.626 2.05516 17.6655 1.98484 17.7358C1.91451 17.8061 1.875 17.9015 1.875 18.001V18.751C1.875 19.6461 2.23058 20.5045 2.86351 21.1374C3.49645 21.7704 4.35489 22.126 5.25 22.126C6.14511 22.126 7.00355 21.7704 7.63649 21.1374C8.26942 20.5045 8.625 19.6461 8.625 18.751V18.001C8.625 17.9015 8.58549 17.8061 8.51517 17.7358C8.44484 17.6655 8.34946 17.626 8.25 17.626C7.62934 17.6268 7.02092 17.7987 6.49165 18.1229C5.96238 18.4471 5.53275 18.9109 5.25 19.4635ZM4.875 21.3508C4.2503 21.2598 3.67922 20.947 3.2661 20.4697C2.85299 19.9923 2.62543 19.3823 2.625 18.751V18.4026C3.24944 18.4936 3.82032 18.8061 4.23341 19.2832C4.64649 19.7602 4.87421 20.3699 4.875 21.001V21.3508ZM7.875 18.4041V18.751C7.87421 19.382 7.64649 19.9917 7.23341 20.4687C6.82032 20.9458 6.24944 21.2583 5.625 21.3493V21.001C5.62579 20.3699 5.85351 19.7602 6.26659 19.2832C6.67968 18.8061 7.25056 18.4936 7.875 18.4026V18.4041ZM17.5084 18.1229C18.0376 18.4471 18.4673 18.9109 18.75 19.4635C19.0327 18.9109 19.4624 18.4471 19.9916 18.1229C20.5209 17.7987 21.1293 17.6268 21.75 17.626C21.8495 17.626 21.9448 17.6655 22.0152 17.7358C22.0855 17.8061 22.125 17.9015 22.125 18.001V18.751C22.125 19.6461 21.7694 20.5045 21.1365 21.1374C20.5035 21.7704 19.6451 22.126 18.75 22.126C17.8549 22.126 16.9965 21.7704 16.3635 21.1374C15.7306 20.5045 15.375 19.6461 15.375 18.751V18.001C15.375 17.9015 15.4145 17.8061 15.4848 17.7358C15.5552 17.6655 15.6505 17.626 15.75 17.626C16.3707 17.6268 16.9791 17.7987 17.5084 18.1229ZM16.7661 20.4697C17.1792 20.947 17.7503 21.2598 18.375 21.3508V21.001C18.3742 20.3699 18.1465 19.7602 17.7334 19.2832C17.3203 18.8061 16.7494 18.4936 16.125 18.4026V18.751C16.1254 19.3823 16.353 19.9923 16.7661 20.4697ZM21.375 18.751V18.4041V18.4026C20.7506 18.4936 20.1797 18.8061 19.7666 19.2832C19.3535 19.7602 19.1258 20.3699 19.125 21.001V21.3493C19.7494 21.2583 20.3203 20.9458 20.7334 20.4687C21.1465 19.9917 21.3742 19.382 21.375 18.751ZM19.125 12.751V13.501H18.375V12.751H19.125ZM19.125 15.001V14.251H18.375V15.001H19.125ZM17.1562 12.687L17.6865 12.1568L18.2168 12.687L17.6865 13.2173L17.1562 12.687ZM16.626 13.2175L16.0957 13.7477L16.626 14.2779L17.1562 13.7477L16.626 13.2175ZM19.2773 12.6872L19.8076 12.157L20.3379 12.6872L19.8076 13.2174L19.2773 12.6872ZM20.8681 13.2178L20.3379 13.7481L20.8681 14.2783L21.3984 13.7481L20.8681 13.2178ZM4.875 12.751H5.625V13.501H4.875V12.751ZM5.625 14.251H4.875V15.001H5.625V14.251ZM5.7793 12.6861L6.30955 12.1558L6.8398 12.6861L6.30955 13.2163L5.7793 12.6861ZM7.36814 13.2163L6.83789 13.7466L7.36814 14.2768L7.8984 13.7466L7.36814 13.2163ZM3.6582 12.6859L4.18845 12.1557L4.7187 12.6859L4.18845 13.2161L3.6582 12.6859ZM3.12595 13.216L2.5957 13.7462L3.12595 14.2765L3.65621 13.7462L3.12595 13.216Z" fill="#5B6D83"/>
</svg>
