<svg width="68" height="68" viewBox="0 0 68 68" fill="none" xmlns="http://www.w3.org/2000/svg">
<rect x="1" y="1" width="66" height="66" rx="6" stroke="#DFE4EB" stroke-width="2"/>
<rect x="4" y="4" width="60" height="60" rx="5" fill="#F2F4F8"/>
<path d="M32.3375 25.6803C32.1597 25.9883 31.837 26.1605 31.5052 26.1605C31.3423 26.1605 31.1773 26.119 31.0261 26.0317L30.4719 25.7117C30.0127 25.4466 29.8554 24.8594 30.1205 24.4003C30.3856 23.9411 30.9726 23.7837 31.4319 24.049L31.9861 24.369C32.4452 24.634 32.6025 25.2212 32.3375 25.6803ZM31.0261 27.249L30.4719 27.569C30.0127 27.834 29.8554 28.4212 30.1205 28.8803C30.2983 29.1883 30.621 29.3605 30.9527 29.3605C31.1156 29.3605 31.2807 29.319 31.4319 29.2317L31.9861 28.9117C32.4452 28.6466 32.6025 28.0594 32.3375 27.6003C32.0724 27.1412 31.4852 26.9837 31.0261 27.249ZM36.5686 24.049L36.0144 24.369C35.5552 24.634 35.3979 25.2212 35.663 25.6803C35.8408 25.9883 36.1635 26.1605 36.4953 26.1605C36.6581 26.1605 36.8232 26.119 36.9744 26.0317L37.5286 25.7117C37.9878 25.4466 38.1451 24.8594 37.88 24.4003C37.6149 23.9411 37.0278 23.7837 36.5686 24.049ZM37.5286 27.569L36.9744 27.249C36.5152 26.9837 35.928 27.1411 35.663 27.6003C35.3979 28.0594 35.5552 28.6466 36.0144 28.9117L36.5686 29.2317C36.7198 29.319 36.8848 29.3605 37.0477 29.3605C37.3795 29.3605 37.7022 29.1883 37.88 28.8803C38.1451 28.4212 37.9878 27.834 37.5286 27.569ZM47.7522 34.1245L45.8322 48.8445C45.7698 49.3226 45.3624 49.6803 44.8802 49.6803H23.1202C22.6381 49.6803 22.2307 49.3226 22.1683 48.8445L20.2483 34.1245C20.2383 34.0481 20.2376 33.9708 20.2461 33.8943L21.5206 22.4237C21.551 20.1559 23.4053 18.3203 25.6802 18.3203H42.3202C44.5952 18.3203 46.4495 20.1559 46.4799 22.4237L47.7543 33.8943C47.7629 33.9708 47.7622 34.0481 47.7522 34.1245ZM44.4547 44.5603H36.6101C36.5476 44.6351 36.3018 44.887 36.3018 44.887C35.687 45.5018 34.8697 45.8403 34.0002 45.8403C33.1308 45.8403 32.3135 45.5018 31.6987 44.887C31.6987 44.887 31.453 44.6351 31.3904 44.5603H23.5458L23.9631 47.7603H44.0374L44.4547 44.5603ZM32.9465 43.4195L33.0563 43.5293C33.3085 43.7814 33.6437 43.9203 34.0002 43.9203C34.3568 43.9203 34.692 43.7814 34.9442 43.5293L35.054 43.4195C35.5744 42.899 35.5744 42.0522 35.054 41.5317L34.0002 40.4779L32.9465 41.5317C32.426 42.0522 32.426 42.899 32.9465 43.4195ZM45.7069 34.9603H42.6402V35.2803C42.6402 35.8105 42.2104 36.2403 41.6802 36.2403C41.1501 36.2403 40.7202 35.8105 40.7202 35.2803V34.9603H38.8002V35.2803C38.8002 35.8105 38.3704 36.2403 37.8402 36.2403C37.3101 36.2403 36.8802 35.8105 36.8802 35.2803V34.9603H34.9602V35.2803C34.9602 35.8105 34.5304 36.2403 34.0002 36.2403C33.4701 36.2403 33.0402 35.8105 33.0402 35.2803V34.9603H31.1202V35.2803C31.1202 35.8105 30.6904 36.2403 30.1602 36.2403C29.6301 36.2403 29.2002 35.8105 29.2002 35.2803V34.9603H27.2802V35.2803C27.2802 35.8105 26.8504 36.2403 26.3202 36.2403C25.7901 36.2403 25.3602 35.8105 25.3602 35.2803V34.9603H22.2935L23.2953 42.6403H30.6396C30.6369 42.5857 30.6355 42.5307 30.6355 42.4756C30.6355 41.6062 30.9741 40.7889 31.5888 40.1741L33.3214 38.4415C33.6962 38.0667 34.3041 38.0667 34.679 38.4415L36.4116 40.1741C37.0263 40.7888 37.3649 41.6062 37.3649 42.4756C37.3649 42.5307 37.3636 42.5857 37.3608 42.6403H44.7051L45.7069 34.9603ZM45.7277 33.0403L44.5661 22.5863C44.5622 22.5511 44.5602 22.5158 44.5602 22.4803C44.5602 21.2452 43.5554 20.2403 42.3202 20.2403H25.6802C24.4451 20.2403 23.4402 21.2452 23.4402 22.4803C23.4402 22.5158 23.4383 22.5511 23.4343 22.5863L22.2728 33.0403H41.6802H45.7277ZM34.0002 22.1603C33.4701 22.1603 33.0402 22.5901 33.0402 23.1203V23.7603C33.0402 24.2905 33.4701 24.7203 34.0002 24.7203C34.5304 24.7203 34.9602 24.2905 34.9602 23.7603V23.1203C34.9602 22.5901 34.5304 22.1603 34.0002 22.1603ZM34.0002 28.5603C33.4701 28.5603 33.0402 28.9901 33.0402 29.5203V30.1603C33.0402 30.6905 33.4701 31.1203 34.0002 31.1203C34.5304 31.1203 34.9602 30.6905 34.9602 30.1603V29.5203C34.9602 28.9901 34.5304 28.5603 34.0002 28.5603Z" fill="#BBC2CD"/>
</svg>
