<svg width="68" height="68" viewBox="0 0 68 68" fill="none" xmlns="http://www.w3.org/2000/svg">
<rect x="1" y="1" width="66" height="66" rx="6" stroke="#DFE4EB" stroke-width="2"/>
<rect x="4" y="4" width="60" height="60" rx="5" fill="#F2F4F8"/>
<path d="M49.3176 38.057L49.1609 37.5755L46.1707 36.8308C46.1891 36.561 46.1974 36.2902 46.1974 36.0168C46.1974 32.5498 44.6999 29.2419 42.0892 26.9412L40.8709 28.3081C43.089 30.2624 44.3607 33.0723 44.3607 36.0168C44.3607 36.1379 44.359 36.2586 44.354 36.3785L42.4124 35.895C42.3849 33.9997 41.7066 32.1591 40.4938 30.6978L39.0769 31.8608C39.9193 32.875 40.4318 34.1256 40.5507 35.4315L38.5718 34.939C38.3582 34.0416 37.8823 33.2433 37.2296 32.629L40.2383 22.1915L39.898 21.8158C38.4395 20.2041 36.2917 19.2793 34.0061 19.2793C31.7204 19.2793 29.5733 20.2041 28.1148 21.8158L27.7744 22.1915L28.6225 25.1346C27.9569 25.4615 27.3176 25.8513 26.7116 26.3024C24.6635 27.8251 23.1194 29.9952 22.3633 32.4118L24.1173 32.9543C24.9518 30.285 26.7843 28.1558 29.1362 26.9167L29.6908 28.842C28.9683 29.2719 28.3072 29.8106 27.7354 30.447L29.1049 31.664C29.4403 31.2907 29.8152 30.9602 30.2198 30.6776L30.7825 32.6297C30.1334 33.241 29.659 34.0342 29.4441 34.9262L27.4633 35.4139C27.5313 34.6597 27.7291 33.9326 28.0543 33.2445L26.3912 32.4684C25.8857 33.5398 25.6194 34.6845 25.5997 35.8724L18.8477 37.5345L18.6895 38.0156C18.0112 40.0765 18.2758 42.3885 19.4152 44.3592C20.5545 46.3294 22.4305 47.7201 24.5626 48.1743L25.0602 48.2802L27.2064 46.0794C29.2054 47.4163 31.5692 48.1396 34.0061 48.1396C34.8473 48.1396 35.6873 48.0544 36.5034 47.8852L36.1288 46.097C35.4356 46.2407 34.7219 46.313 34.0061 46.313C32.004 46.313 30.115 45.7384 28.5134 44.738L29.9033 43.3126C31.1175 43.9909 32.5172 44.3775 34.0061 44.3775V42.551C33.0179 42.551 32.0805 42.333 31.2393 41.9421L32.6586 40.4858C33.0852 40.6135 33.5376 40.6823 34.0061 40.6823C34.4702 40.6823 34.9184 40.6154 35.3421 40.4893L42.9189 48.304L43.4166 48.1993C45.5498 47.7513 47.4301 46.3654 48.5745 44.3982C49.7193 42.431 49.9899 40.1198 49.3176 38.057ZM37.021 39.5888C37.8457 38.8998 38.4297 37.934 38.6261 36.8355L47.7019 39.0951C48.033 40.5417 47.7809 42.1151 46.9848 43.4836C46.1884 44.8519 44.943 45.8534 43.5163 46.2888L37.021 39.5888ZM29.8274 22.6866C30.9208 21.6771 32.4167 21.1058 34.0061 21.1058C35.5962 21.1058 37.092 21.6771 38.1847 22.6866L35.6072 31.6307C35.1076 31.4491 34.5681 31.3504 34.0061 31.3504C33.4441 31.3504 32.9045 31.4491 32.405 31.6307L29.8274 22.6866ZM24.4683 46.2631C23.0428 45.8241 21.7999 44.8189 21.0077 43.4484C20.2155 42.078 19.9669 40.5041 20.3023 39.0585L29.3848 36.8229C29.5781 37.9224 30.1593 38.89 30.9828 39.5809L24.4683 46.2631ZM31.151 36.0168C31.151 34.4508 32.432 33.177 34.0061 33.177C35.5809 33.177 36.8616 34.4508 36.8616 36.0168C36.8616 37.5821 35.5809 38.8557 34.0061 38.8557C32.432 38.856 31.151 37.5821 31.151 36.0168Z" fill="#BBC2CD"/>
</svg>
