<svg width="32" height="32" viewBox="0 0 32 32" fill="none" xmlns="http://www.w3.org/2000/svg">
<path d="M2 7C2 4.23858 4.23858 2 7 2H25C27.7614 2 30 4.23858 30 7V25C30 27.7614 27.7614 30 25 30H7C4.23858 30 2 27.7614 2 25V7Z" fill="white"/>
<path d="M23 12.6875C23 11.9766 22.3984 11.375 21.6875 11.375H19.2812L18.9258 10.5C18.7344 9.98047 18.2422 9.625 17.6953 9.625H14.2773C13.7305 9.625 13.2383 9.98047 13.0469 10.5L12.7188 11.375H10.3125C9.57422 11.375 9 11.9766 9 12.6875V20.5625C9 21.3008 9.57422 21.875 10.3125 21.875H21.6875C22.3984 21.875 23 21.3008 23 20.5625V12.6875ZM19.2812 16.625C19.2812 18.457 17.8047 19.9062 16 19.9062C14.168 19.9062 12.7188 18.457 12.7188 16.625C12.7188 14.8203 14.168 13.3438 16 13.3438C17.8047 13.3438 19.2812 14.8203 19.2812 16.625ZM18.4062 16.625C18.4062 15.3125 17.3125 14.2188 16 14.2188C14.6602 14.2188 13.5938 15.3125 13.5938 16.625C13.5938 17.9648 14.6602 19.0312 16 19.0312C17.3125 19.0312 18.4062 17.9648 18.4062 16.625Z" fill="#062B45"/>
<path d="M7 3H25V1H7V3ZM29 7V25H31V7H29ZM25 29H7V31H25V29ZM3 25V7H1V25H3ZM7 29C4.79086 29 3 27.2091 3 25H1C1 28.3137 3.68629 31 7 31V29ZM29 25C29 27.2091 27.2091 29 25 29V31C28.3137 31 31 28.3137 31 25H29ZM25 3C27.2091 3 29 4.79086 29 7H31C31 3.68629 28.3137 1 25 1V3ZM7 1C3.68629 1 1 3.68629 1 7H3C3 4.79086 4.79086 3 7 3V1Z" fill="#DFE4EB"/>
<path d="M7 4H25V0H7V4ZM28 7V25H32V7H28ZM25 28H7V32H25V28ZM4 25V7H0V25H4ZM7 28C5.34315 28 4 26.6569 4 25H0C0 28.866 3.13401 32 7 32V28ZM28 25C28 26.6569 26.6569 28 25 28V32C28.866 32 32 28.866 32 25H28ZM25 4C26.6569 4 28 5.34315 28 7H32C32 3.13401 28.866 0 25 0V4ZM7 0C3.13401 0 0 3.13401 0 7H4C4 5.34315 5.34315 4 7 4V0Z" fill="white"/>
</svg>
