<svg width="14" height="13" viewBox="0 0 14 13" fill="none" xmlns="http://www.w3.org/2000/svg">
<path d="M14 3.6875C14 2.97656 13.3984 2.375 12.6875 2.375H10.2812L9.92578 1.5C9.73438 0.980469 9.24219 0.625 8.69531 0.625H5.27734C4.73047 0.625 4.23828 0.980469 4.04688 1.5L3.71875 2.375H1.3125C0.574219 2.375 0 2.97656 0 3.6875V11.5625C0 12.3008 0.574219 12.875 1.3125 12.875H12.6875C13.3984 12.875 14 12.3008 14 11.5625V3.6875ZM10.2812 7.625C10.2812 9.45703 8.80469 10.9062 7 10.9062C5.16797 10.9062 3.71875 9.45703 3.71875 7.625C3.71875 5.82031 5.16797 4.34375 7 4.34375C8.80469 4.34375 10.2812 5.82031 10.2812 7.625ZM9.40625 7.625C9.40625 6.3125 8.3125 5.21875 7 5.21875C5.66016 5.21875 4.59375 6.3125 4.59375 7.625C4.59375 8.96484 5.66016 10.0312 7 10.0312C8.3125 10.0312 9.40625 8.96484 9.40625 7.625Z" fill="#062B45"/>
</svg>
