<svg width="40" height="40" viewBox="0 0 40 40" fill="none" xmlns="http://www.w3.org/2000/svg">
<g clip-path="url(#clip0)">
<path fill-rule="evenodd" clip-rule="evenodd" d="M11.375 12.375C11.0989 12.375 10.875 12.5989 10.875 12.875C10.875 13.1511 11.0989 13.375 11.375 13.375H28.247C28.5231 13.375 28.747 13.1511 28.747 12.875C28.747 12.5989 28.5231 12.375 28.247 12.375H11.375ZM11.375 16.887C11.0989 16.887 10.875 17.1109 10.875 17.387C10.875 17.6632 11.0989 17.887 11.375 17.887H28.247C28.5231 17.887 28.747 17.6632 28.747 17.387C28.747 17.1109 28.5231 16.887 28.247 16.887H11.375ZM10.875 21.8993C10.875 21.6231 11.0989 21.3993 11.375 21.3993H28.247C28.5231 21.3993 28.747 21.6231 28.747 21.8993C28.747 22.1754 28.5231 22.3993 28.247 22.3993H11.375C11.0989 22.3993 10.875 22.1754 10.875 21.8993ZM11.375 25.9113C11.0989 25.9113 10.875 26.1352 10.875 26.4113C10.875 26.6874 11.0989 26.9113 11.375 26.9113H28.247C28.5231 26.9113 28.747 26.6874 28.747 26.4113C28.747 26.1352 28.5231 25.9113 28.247 25.9113H11.375Z" fill="#687D8F"/>
</g>
<defs>
<clipPath id="clip0">
<rect width="18" height="18" fill="white" transform="translate(11 11)"/>
</clipPath>
</defs>
</svg>
