<svg width="116" height="20" viewBox="0 0 116 20" fill="none"
  xmlns="http://www.w3.org/2000/svg">
  <path
    d="M14.4296 7.61743C14.8551 7.61743 15.2 7.27254 15.2 6.84706C15.2 6.42158 14.8551 6.07669 14.4296 6.07669H12.8889V4.88262H14.4296C14.8551 4.88262 15.2 4.53772 15.2 4.11224C15.2 3.68677 14.8551 3.34187 14.4296 3.34187H12.8717C12.6972 1.59248 11.2168 0.221875 9.42222 0.221875C7.5107 0.221875 5.95556 1.77702 5.95556 3.68854V12.2638C5.20799 13.1084 4.8 14.1818 4.8 15.3211C4.8 17.8698 6.87353 19.9434 9.42222 19.9434C11.9709 19.9434 14.0444 17.8698 14.0444 15.3211C14.0444 14.353 13.748 13.4258 13.1872 12.6397C12.9402 12.2933 12.4592 12.2129 12.1127 12.4599C11.7663 12.707 11.6859 13.1881 11.933 13.5345C12.3063 14.0579 12.5037 14.6757 12.5037 15.3211C12.5037 17.0203 11.1214 18.4026 9.42222 18.4026C7.72309 18.4026 6.34074 17.0203 6.34074 15.3211C6.34074 14.4868 6.66907 13.7054 7.26526 13.1208C7.41302 12.9759 7.4963 12.7777 7.4963 12.5708V3.68854C7.4963 2.62659 8.36027 1.76262 9.42222 1.76262C10.4842 1.76262 11.3481 2.62659 11.3481 3.68854V9.54336C11.3481 9.96883 11.693 10.3137 12.1185 10.3137H14.4296C14.8551 10.3137 15.2 9.96883 15.2 9.54336C15.2 9.11788 14.8551 8.77299 14.4296 8.77299H12.8889V7.61743H14.4296Z"
    fill="#687D8F" />
  <path fill-rule="evenodd" clip-rule="evenodd"
    d="M12.0837 12.4192C12.4526 12.1562 12.9649 12.2418 13.2279 12.6106C13.7948 13.4053 14.0944 14.3426 14.0944 15.3211C14.0944 17.8974 11.9985 19.9934 9.42222 19.9934C6.84591 19.9934 4.75 17.8974 4.75 15.3211C4.75 14.176 5.15787 13.0965 5.90556 12.2449V3.68854C5.90556 1.74941 7.48309 0.171875 9.42222 0.171875C11.2273 0.171875 12.7189 1.53876 12.9166 3.29187H14.4296C14.8827 3.29187 15.25 3.65916 15.25 4.11224C15.25 4.56533 14.8827 4.93262 14.4296 4.93262H12.9389V6.02669H14.4296C14.8827 6.02669 15.25 6.39397 15.25 6.84706C15.25 7.30015 14.8827 7.66743 14.4296 7.66743H12.9389V8.72299H14.4296C14.8827 8.72299 15.25 9.09027 15.25 9.54336C15.25 9.99645 14.8827 10.3637 14.4296 10.3637H12.1185C11.6654 10.3637 11.2981 9.99645 11.2981 9.54336V3.68854C11.2981 2.6542 10.4566 1.81262 9.42222 1.81262C8.38788 1.81262 7.5463 2.6542 7.5463 3.68854V12.5708C7.5463 12.7912 7.45761 13.0022 7.30027 13.1565C6.71367 13.7317 6.39074 14.5002 6.39074 15.3211C6.39074 16.9926 7.75071 18.3526 9.42222 18.3526C11.0937 18.3526 12.4537 16.9926 12.4537 15.3211C12.4537 14.686 12.2596 14.0784 11.8923 13.5635C11.6291 13.1947 11.7148 12.6823 12.0837 12.4192ZM12.8717 3.34187H14.4296C14.8551 3.34187 15.2 3.68677 15.2 4.11224C15.2 4.53772 14.8551 4.88262 14.4296 4.88262H12.8889V6.07669H14.4296C14.8551 6.07669 15.2 6.42158 15.2 6.84706C15.2 7.27254 14.8551 7.61743 14.4296 7.61743H12.8889V8.77299H14.4296C14.8551 8.77299 15.2 9.11788 15.2 9.54336C15.2 9.96883 14.8551 10.3137 14.4296 10.3137H12.1185C11.693 10.3137 11.3481 9.96883 11.3481 9.54336V3.68854C11.3481 2.62659 10.4842 1.76262 9.42222 1.76262C8.36027 1.76262 7.4963 2.62659 7.4963 3.68854V12.5708C7.4963 12.7777 7.41302 12.9759 7.26526 13.1208C6.66907 13.7054 6.34074 14.4868 6.34074 15.3211C6.34074 17.0203 7.72309 18.4026 9.42222 18.4026C11.1214 18.4026 12.5037 17.0203 12.5037 15.3211C12.5037 14.6757 12.3063 14.0579 11.933 13.5345C11.6859 13.1881 11.7663 12.707 12.1127 12.4599C12.4592 12.2129 12.9402 12.2933 13.1872 12.6397C13.748 13.4258 14.0444 14.353 14.0444 15.3211C14.0444 17.8698 11.9709 19.9434 9.42222 19.9434C6.87353 19.9434 4.8 17.8698 4.8 15.3211C4.8 14.1818 5.20799 13.1084 5.95556 12.2638V3.68854C5.95556 1.77702 7.5107 0.221875 9.42222 0.221875C11.2168 0.221875 12.6972 1.59248 12.8717 3.34187Z"
    fill="#687D8F" />
  <path
    d="M9.4216 6.07539C8.99613 6.07539 8.65123 6.42029 8.65123 6.84576V13.9852C8.1907 14.2516 7.88086 14.7495 7.88086 15.3198C7.88086 16.1707 8.57069 16.8606 9.4216 16.8606C10.2725 16.8606 10.9623 16.1707 10.9623 15.3198C10.9623 14.7496 10.6525 14.2516 10.192 13.9852V6.84576C10.192 6.42029 9.84708 6.07539 9.4216 6.07539Z"
    fill="#5AAFE8" />
  <path
    d="M33.7129 5.47717C33.7129 4.74091 34.1815 3.75012 35.1456 2.44817C35.8035 1.55989 36.4524 0.851918 36.4797 0.822173L37.0434 0.208984L37.6071 0.822212C37.6343 0.851918 38.2833 1.55993 38.9411 2.44821C39.9052 3.75015 40.3739 4.74095 40.3739 5.47721C40.3739 7.3123 38.8798 8.80523 37.0434 8.80523C35.207 8.80523 33.7129 7.31226 33.7129 5.47717ZM35.2441 5.47717C35.2441 6.46789 36.0513 7.27394 37.0434 7.27394C38.0355 7.27394 38.8426 6.46789 38.8426 5.47717C38.8426 5.37921 38.7884 4.81732 37.718 3.3696C37.483 3.05171 37.2461 2.75538 37.0434 2.51084C36.8406 2.75538 36.6037 3.05171 36.3687 3.3696C35.2983 4.81732 35.2441 5.37925 35.2441 5.47717ZM43.5895 7.39124C43.5895 6.65497 44.0581 5.66418 45.0222 4.36223C45.68 3.47395 46.329 2.76598 46.3563 2.73624L46.9199 2.12305L47.4836 2.73627C47.5109 2.76598 48.1599 3.47399 48.8177 4.36227C49.7818 5.66422 50.2504 6.65501 50.2504 7.39127C50.2504 9.22636 48.7564 10.7193 46.92 10.7193C45.0835 10.7193 43.5895 9.22633 43.5895 7.39124ZM45.1207 7.39124C45.1207 8.38196 45.9278 9.18801 46.9199 9.18801C47.912 9.18801 48.7191 8.38196 48.7191 7.39124C48.7191 7.29327 48.6649 6.73138 47.5946 5.28366C47.3595 4.96577 47.1227 4.66944 46.9199 4.4249C46.7172 4.66944 46.4803 4.96577 46.2453 5.28366C45.1749 6.73138 45.1207 7.29331 45.1207 7.39124Z"
    fill="#5AAFE8" />
  <path
    d="M33.7305 12.5957H32.1992C32.1992 14.2422 33.5473 15.5816 35.2043 15.5816C36.1143 15.5816 36.9305 15.1771 37.482 14.5401C38.0335 15.1771 38.8498 15.5816 39.7598 15.5816C40.6488 15.5816 41.4485 15.1957 41.9992 14.584C42.5499 15.1957 43.3496 15.5816 44.2387 15.5816C45.1487 15.5816 45.9649 15.1771 46.5164 14.5401C47.0679 15.1771 47.8842 15.5816 48.7941 15.5816C50.4511 15.5816 51.7992 14.2422 51.7992 12.5957H50.268C50.268 13.3978 49.6068 14.0504 48.7941 14.0504C47.9815 14.0504 47.3203 13.3978 47.3203 12.5957H45.7125C45.7125 13.3978 45.0513 14.0504 44.2387 14.0504C43.426 14.0504 42.7648 13.3978 42.7648 12.5957H41.2336C41.2336 13.3978 40.5724 14.0504 39.7598 14.0504C38.9471 14.0504 38.2859 13.3978 38.2859 12.5957H36.6781C36.6781 13.3978 36.017 14.0504 35.2043 14.0504C34.3916 14.0504 33.7305 13.3978 33.7305 12.5957Z"
    fill="#687D8F" />
  <path
    d="M47.3203 16.8066C47.3203 17.6087 47.9815 18.2613 48.7941 18.2613C49.6068 18.2613 50.268 17.6087 50.268 16.8066H51.7992C51.7992 18.4531 50.4511 19.7926 48.7941 19.7926C47.8842 19.7926 47.0679 19.388 46.5164 18.7511C45.9649 19.388 45.1487 19.7926 44.2387 19.7926C43.3496 19.7926 42.5499 19.4067 41.9992 18.795C41.4485 19.4067 40.6488 19.7926 39.7598 19.7926C38.8498 19.7926 38.0335 19.388 37.482 18.7511C36.9305 19.388 36.1143 19.7926 35.2043 19.7926C33.5473 19.7926 32.1992 18.4531 32.1992 16.8066H33.7305C33.7305 17.6087 34.3916 18.2613 35.2043 18.2613C36.017 18.2613 36.6781 17.6087 36.6781 16.8066H38.2859C38.2859 17.6087 38.9471 18.2613 39.7598 18.2613C40.5724 18.2613 41.2336 17.6087 41.2336 16.8066H42.7648C42.7648 17.6087 43.426 18.2613 44.2387 18.2613C45.0513 18.2613 45.7125 17.6087 45.7125 16.8066H47.3203Z"
    fill="#687D8F" />
  <path fill-rule="evenodd" clip-rule="evenodd"
    d="M68.8992 2.36488C67.9144 3.39021 67.268 4.65879 67.0315 6.03337C66.5574 8.78852 67.671 11.4926 69.9386 13.0867C70.4288 13.4313 70.6977 13.9212 70.6977 14.4254V17.7698C70.6977 18.9026 71.6191 19.8239 72.7519 19.8239H75.268C76.4008 19.8239 77.3222 18.9026 77.3222 17.7698V14.5044C77.3222 13.9532 77.6068 13.4253 78.1195 13.0598C79.9835 11.7309 81.0964 9.5727 81.0964 7.28602C81.0964 5.14342 80.1416 3.13809 78.4776 1.78514C75.7526 -0.430415 71.5579 -0.403155 68.8992 2.36488ZM75.73 17.7698C75.73 18.0244 75.5226 18.2317 75.268 18.2317H72.7519C72.4974 18.2317 72.29 18.0243 72.29 17.7698V15.6305H75.73V17.7698ZM77.1952 11.7633C76.4032 12.3279 75.8952 13.1389 75.7639 14.0383H74.8062V10.4374C75.5442 10.126 76.0642 9.39527 76.0642 8.5442C76.0642 7.41139 75.1429 6.49001 74.01 6.49001C72.8772 6.49001 71.9559 7.41139 71.9559 8.5442C71.9559 9.39527 72.4758 10.126 73.2139 10.4374V14.0383H72.2651C72.1513 13.1478 71.648 12.3422 70.8544 11.7842C69.0956 10.5477 68.2316 8.44902 68.6007 6.30345C69.0237 3.84531 71.166 1.79436 73.9963 1.79436C75.2635 1.79436 76.4869 2.21876 77.4732 3.02063C78.7641 4.0702 79.5042 5.62454 79.5042 7.28609C79.5041 9.0587 78.641 10.7326 77.1952 11.7633ZM74.0007 9.19922C74.3321 9.19922 74.6007 8.93059 74.6007 8.59922C74.6007 8.26785 74.3321 7.99922 74.0007 7.99922C73.6693 7.99922 73.4007 8.26785 73.4007 8.59922C73.4007 8.93059 73.6693 9.19922 74.0007 9.19922Z"
    fill="#687D8F" />
  <path
    d="M74.009 2.8839C73.6616 2.8839 73.38 3.16554 73.38 3.51292C73.38 3.8603 73.6616 4.14193 74.009 4.14193C75.7432 4.14193 77.1541 5.55282 77.1541 7.28705C77.1541 7.63443 77.4358 7.91606 77.7831 7.91606C78.1305 7.91606 78.4122 7.63443 78.4122 7.28705C78.4122 4.85915 76.4369 2.8839 74.009 2.8839Z"
    fill="#5AAFE8" />
  <path fill-rule="evenodd" clip-rule="evenodd"
    d="M73.2129 3.51292C73.2129 3.07325 73.5693 2.7168 74.009 2.7168C76.5292 2.7168 78.5793 4.76686 78.5793 7.28705C78.5793 7.72672 78.2228 8.08317 77.7831 8.08317C77.3435 8.08317 76.987 7.72672 76.987 7.28705C76.987 5.64511 75.6509 4.30904 74.009 4.30904C73.5693 4.30904 73.2129 3.95259 73.2129 3.51292ZM73.38 3.51292C73.38 3.16554 73.6616 2.8839 74.009 2.8839C76.4369 2.8839 78.4122 4.85915 78.4122 7.28705C78.4122 7.63443 78.1305 7.91606 77.7831 7.91606C77.4358 7.91606 77.1541 7.63443 77.1541 7.28705C77.1541 5.55282 75.7432 4.14193 74.009 4.14193C73.6616 4.14193 73.38 3.8603 73.38 3.51292Z"
    fill="#5AAFE8" />
  <path
    d="M102.631 10.6094C102.33 10.6094 102.086 10.8534 102.086 11.1543C102.086 11.4548 101.841 11.6992 101.541 11.6992C101.241 11.6992 100.996 11.4548 100.996 11.1543V8.97461C100.996 8.67414 101.241 8.42969 101.541 8.42969C101.841 8.42969 102.086 8.67414 102.086 8.97461C102.086 9.27555 102.33 9.51953 102.631 9.51953C102.932 9.51953 103.176 9.27555 103.176 8.97461C103.176 8.0732 102.442 7.33984 101.541 7.33984C100.64 7.33984 99.9062 8.0732 99.9062 8.97461V11.1543C99.9062 12.0557 100.64 12.7891 101.541 12.7891C102.442 12.7891 103.176 12.0557 103.176 11.1543C103.176 10.8534 102.932 10.6094 102.631 10.6094Z"
    fill="#687D8F" />
  <path
    d="M105.9 7.33984C104.999 7.33984 104.266 8.0732 104.266 8.97461V11.1543C104.266 12.0557 104.999 12.7891 105.9 12.7891C106.802 12.7891 107.535 12.0557 107.535 11.1543V8.97461C107.535 8.0732 106.802 7.33984 105.9 7.33984ZM106.445 11.1543C106.445 11.4548 106.201 11.6992 105.9 11.6992C105.6 11.6992 105.355 11.4548 105.355 11.1543V8.97461C105.355 8.67414 105.6 8.42969 105.9 8.42969C106.201 8.42969 106.445 8.67414 106.445 8.97461V11.1543Z"
    fill="#687D8F" />
  <path
    d="M111.893 9.14077V8.97461C111.893 8.0732 111.159 7.33984 110.258 7.33984C109.356 7.33984 108.623 8.0732 108.623 8.97461C108.623 9.27555 108.867 9.51953 109.168 9.51953C109.469 9.51953 109.713 9.27555 109.713 8.97461C109.713 8.67414 109.957 8.42969 110.258 8.42969C110.558 8.42969 110.803 8.67414 110.803 8.97461V9.14077C110.803 9.59088 110.627 10.014 110.309 10.3323L108.783 11.8588C108.627 12.0147 108.58 12.2491 108.665 12.4527C108.749 12.6563 108.948 12.7891 109.168 12.7891H111.348C111.649 12.7891 111.893 12.5451 111.893 12.2442C111.893 11.9432 111.649 11.6993 111.348 11.6993H110.484L111.08 11.103C111.604 10.5789 111.893 9.88201 111.893 9.14077Z"
    fill="#687D8F" />
  <path
    d="M112.929 6.80172C112.961 6.63348 112.984 6.44799 112.984 6.25C112.984 4.44718 111.517 2.98047 109.714 2.98047C109.37 2.98047 109.035 3.03344 108.713 3.13846C107.705 1.69384 106.068 0.800781 104.265 0.800781C101.343 0.800781 98.9506 3.11234 98.8211 6.00297C97.4433 6.91858 96.5996 8.44731 96.5996 10.0645C96.5996 12.7794 98.8323 15.0414 101.54 15.0414H110.804C113.202 15.0414 115.2 13.0305 115.2 10.6094C115.2 8.99942 114.29 7.55749 112.929 6.80172ZM110.804 13.9516H101.54C99.4529 13.9516 97.6895 12.1715 97.6895 10.0645C97.6895 8.73132 98.4364 7.47193 99.6387 6.77778C99.8203 6.67293 99.9369 6.46822 99.9056 6.22116C99.9212 3.83069 101.871 1.89062 104.265 1.89062C105.827 1.89062 107.233 2.71186 108.026 4.0875C108.171 4.33801 108.486 4.432 108.744 4.30176C109.048 4.1482 109.375 4.07031 109.714 4.07031C110.916 4.07031 111.894 5.04812 111.894 6.25C111.894 6.44933 111.856 6.66182 111.772 6.939C111.692 7.20536 111.825 7.4897 112.081 7.5985C113.313 8.12192 114.11 9.30378 114.11 10.6094C114.11 12.421 112.596 13.9516 110.804 13.9516Z"
    fill="#687D8F" />
  <path
    d="M101.541 16.1309C101.24 16.1309 100.996 16.3748 100.996 16.6758C100.996 17.5772 100.263 18.3105 99.3613 18.3105C99.0604 18.3105 98.8164 18.5545 98.8164 18.8555C98.8164 19.1564 99.0604 19.4004 99.3613 19.4004C100.864 19.4004 102.086 18.1781 102.086 16.6758C102.086 16.3748 101.842 16.1309 101.541 16.1309Z"
    fill="#5AAFE8" />
  <path
    d="M105.9 16.1309C105.599 16.1309 105.355 16.3748 105.355 16.6758C105.355 17.5772 104.622 18.3105 103.721 18.3105C103.42 18.3105 103.176 18.5545 103.176 18.8555C103.176 19.1564 103.42 19.4004 103.721 19.4004C105.223 19.4004 106.445 18.1781 106.445 16.6758C106.445 16.3748 106.201 16.1309 105.9 16.1309Z"
    fill="#5AAFE8" />
  <path
    d="M110.26 16.1309C109.959 16.1309 109.715 16.3748 109.715 16.6758C109.715 17.5772 108.981 18.3105 108.08 18.3105C107.779 18.3105 107.535 18.5545 107.535 18.8555C107.535 19.1564 107.779 19.4004 108.08 19.4004C109.582 19.4004 110.805 18.1781 110.805 16.6758C110.805 16.3748 110.561 16.1309 110.26 16.1309Z"
    fill="#5AAFE8" />
</svg>