<svg width="32" height="32" viewBox="0 0 32 32" fill="none" xmlns="http://www.w3.org/2000/svg">
<path d="M23.2188 17.875L21.875 17.125C22.0312 16.375 22.0312 15.6562 21.875 14.9062L23.2188 14.1562C23.375 14.0625 23.4375 13.875 23.375 13.7188C23.0312 12.5938 22.4375 11.5938 21.6875 10.75C21.5625 10.625 21.375 10.5938 21.2188 10.6875L19.875 11.4375C19.3125 10.9688 18.6875 10.5938 18 10.3438V8.8125C18 8.65625 17.875 8.5 17.6875 8.46875C16.5312 8.1875 15.375 8.21875 14.2812 8.46875C14.0938 8.5 14 8.65625 14 8.8125V10.3438C13.2812 10.5938 12.6562 10.9688 12.0938 11.4688L10.75 10.6875C10.5938 10.5938 10.4062 10.625 10.2812 10.75C9.53125 11.5938 8.9375 12.5938 8.59375 13.7188C8.53125 13.875 8.59375 14.0625 8.75 14.1562L10.0938 14.9062C9.96875 15.6562 9.96875 16.375 10.0938 17.125L8.75 17.875C8.59375 17.9688 8.53125 18.1562 8.59375 18.3125C8.9375 19.4375 9.53125 20.4375 10.2812 21.2812C10.4062 21.4062 10.5938 21.4375 10.75 21.3438L12.0938 20.5938C12.6562 21.0625 13.2812 21.4375 14 21.6875V23.2188C14 23.375 14.125 23.5312 14.2812 23.5938C15.4375 23.8438 16.5938 23.8125 17.6875 23.5938C17.875 23.5312 18 23.375 18 23.2188V21.6875C18.6875 21.4375 19.3125 21.0625 19.875 20.5938L21.2188 21.3438C21.375 21.4375 21.5625 21.4062 21.6875 21.2812C22.4688 20.4375 23.0312 19.4375 23.4062 18.3125C23.4375 18.1562 23.375 17.9688 23.2188 17.875ZM16 18.5C14.5938 18.5 13.5 17.4062 13.5 16C13.5 14.625 14.5938 13.5 16 13.5C17.375 13.5 18.5 14.625 18.5 16C18.5 17.4062 17.375 18.5 16 18.5Z" fill="#9DA9B5"/>
</svg>