<svg width="68" height="68" viewBox="0 0 68 68" fill="none" xmlns="http://www.w3.org/2000/svg">
  <rect x="1" y="1" width="66" height="66" rx="6" stroke="#DFE4EB" stroke-width="2" />
  <rect x="4" y="4" width="60" height="60" rx="5" fill="#F2F4F8" />
  <path
    d="M28.9631 31.4253C30.1513 30.0211 31.5555 28.7249 33.1217 27.5907C39.7647 22.784 46.8937 22.892 49.054 27.8608C51.2143 32.8295 47.5418 40.7146 40.8448 45.5213C34.85 49.8419 28.5311 50.22 25.7227 46.6014C28.423 48.9778 33.5538 48.4377 38.3605 44.9272C44.1933 40.6606 47.4338 33.6936 45.5435 29.319C43.6532 24.9443 37.3883 24.8363 31.5555 29.1029C30.6374 29.859 29.7732 30.6152 28.9631 31.4253Z"
    fill="#BBC2CD" />
  <path
    d="M31.1774 31.5337C35.552 28.3472 40.2507 28.4552 41.6549 31.6957C43.0591 34.9362 40.6287 40.1749 36.2541 43.3614C32.6356 46.0078 28.801 46.3858 26.8027 44.6035C28.855 47.3039 33.6617 47.0339 38.0903 43.7934C43.0591 40.1749 45.8134 34.2341 44.1932 30.5615C42.573 26.889 37.2802 26.781 32.3115 30.3455C31.1234 31.2096 30.0972 32.1818 29.1791 33.2079C29.8272 32.6138 30.4753 32.0198 31.1774 31.5337Z"
    fill="#BBC2CD" />
  <path
    d="M39.7101 35.6384C38.5219 37.0426 37.1177 38.3388 35.5515 39.4729C28.9086 44.2796 21.7795 44.1716 19.6192 39.2029C17.4589 34.2342 21.1314 26.349 27.8284 21.5424C33.8233 17.2217 40.1422 16.8437 42.9506 20.4622C40.2502 18.0859 35.1194 18.6259 30.3128 22.1364C24.4259 26.349 21.1855 33.316 23.0757 37.6907C24.966 42.0653 31.2309 42.1733 37.0637 37.9067C38.0359 37.2046 38.9 36.4485 39.7101 35.6384Z"
    fill="#BBC2CD" />
  <path
    d="M37.4963 35.5302C33.1217 38.7166 28.423 38.6086 27.0188 35.3682C25.6146 32.1277 28.045 26.8889 32.4196 23.7025C36.0381 21.1101 39.8727 20.6781 41.871 22.4603C39.8187 19.7599 35.012 20.03 30.5834 23.2704C25.5606 26.8889 22.8603 32.8298 24.4265 36.5563C25.9927 40.2829 31.3395 40.3369 36.3082 36.7724C37.4963 35.9082 38.5225 34.9361 39.4406 33.9099C38.8465 34.45 38.1984 35.0441 37.4963 35.5302Z"
    fill="#BBC2CD" />
</svg>
