<svg width="20" height="20" viewBox="0 0 20 20" fill="none" xmlns="http://www.w3.org/2000/svg">
<path d="M7.18943 1.02044C6.61638 1.87883 6.87606 2.40365 7.20547 3.06846C7.55171 3.76609 7.98132 4.63491 7.18864 5.82053C7.1117 5.93652 6.98509 5.99892 6.85604 5.99892C6.7791 5.99892 6.70133 5.97732 6.63321 5.93172C6.44969 5.80931 6.39919 5.56132 6.52261 5.37731C7.05771 4.57531 6.8186 4.09219 6.48783 3.42389L6.48733 3.42288C6.13309 2.70846 5.69228 1.81883 6.52261 0.577217C6.64602 0.393239 6.89609 0.344413 7.07804 0.466028C7.26156 0.58843 7.31206 0.836422 7.18943 1.02044Z" fill="#062B45"/>
<path d="M10.3818 1.02044C9.80879 1.87883 10.0685 2.40365 10.3987 3.06846C10.7449 3.76609 11.1745 4.63491 10.3818 5.82053C10.3041 5.93652 10.1775 5.99892 10.0484 5.99892C9.97147 5.99892 9.89453 5.97732 9.82642 5.93172C9.64289 5.80931 9.59239 5.56132 9.71502 5.37731C10.2501 4.57609 10.011 4.09298 9.68024 3.42468L9.67924 3.42265C9.32587 2.7084 8.88588 1.81906 9.71502 0.577217C9.83765 0.393239 10.0885 0.344413 10.2704 0.466028C10.454 0.58843 10.5045 0.836422 10.3818 1.02044Z" fill="#062B45"/>
<path d="M13.5909 3.06846C13.2607 2.40365 13.001 1.87883 13.5741 1.02044C13.6967 0.836422 13.6462 0.58843 13.4627 0.466028C13.2807 0.344413 13.0299 0.393239 12.9073 0.577217C12.0781 1.81906 12.5181 2.7084 12.8715 3.42265L12.8725 3.42468C13.2033 4.09298 13.4424 4.57609 12.9073 5.37731C12.7846 5.56132 12.8351 5.80931 13.0187 5.93172C13.0868 5.97732 13.1637 5.99892 13.2407 5.99892C13.3705 5.99892 13.4971 5.93652 13.5741 5.82053C14.3668 4.63491 13.9372 3.76609 13.5909 3.06846Z" fill="#062B45"/>
<path d="M4.00516 8.39898C3.78395 8.39898 3.6044 8.5782 3.6044 8.799V15.9991C3.6044 16.2199 3.78395 16.3992 4.00516 16.3992C4.22637 16.3992 4.40591 16.2199 4.40591 15.9991V8.799C4.40591 8.5782 4.22637 8.39898 4.00516 8.39898Z" fill="#062B45"/>
<path d="M6.0089 8.799C6.0089 8.5782 6.18845 8.39898 6.40966 8.39898C6.63087 8.39898 6.81041 8.5782 6.81041 8.799V15.9991C6.81041 16.2199 6.63087 16.3992 6.40966 16.3992C6.18845 16.3992 6.0089 16.2199 6.0089 15.9991V8.799Z" fill="#062B45"/>
<path d="M8.81406 8.39898C8.59285 8.39898 8.41331 8.5782 8.41331 8.799V15.9991C8.41331 16.2199 8.59285 16.3992 8.81406 16.3992C9.03527 16.3992 9.21482 16.2199 9.21482 15.9991V8.799C9.21482 8.5782 9.03527 8.39898 8.81406 8.39898Z" fill="#062B45"/>
<path d="M10.8178 8.799C10.8178 8.5782 10.9973 8.39898 11.2186 8.39898C11.4398 8.39898 11.6193 8.5782 11.6193 8.799V15.9991C11.6193 16.2199 11.4398 16.3992 11.2186 16.3992C10.9973 16.3992 10.8178 16.2199 10.8178 15.9991V8.799Z" fill="#062B45"/>
<path d="M13.6231 8.39898C13.4018 8.39898 13.2223 8.5782 13.2223 8.799V15.9991C13.2223 16.2199 13.4018 16.3992 13.6231 16.3992C13.8443 16.3992 14.0238 16.2199 14.0238 15.9991V8.799C14.0238 8.5782 13.8443 8.39898 13.6231 8.39898Z" fill="#062B45"/>
<path d="M15.6267 8.799C15.6267 8.5782 15.8063 8.39898 16.0275 8.39898C16.2487 8.39898 16.4282 8.5782 16.4282 8.799V15.9991C16.4282 16.2199 16.2487 16.3992 16.0275 16.3992C15.8063 16.3992 15.6267 16.2199 15.6267 15.9991V8.799Z" fill="#062B45"/>
<path fill-rule="evenodd" clip-rule="evenodd" d="M3.2037 6.79892H16.829C17.9342 6.79892 18.8327 7.69654 18.8327 8.79895V15.9991C18.8327 17.1015 17.9342 17.9991 16.829 17.9991H15.6267V19.1992C15.6267 19.42 15.4472 19.5992 15.226 19.5992C15.0048 19.5992 14.8252 19.42 14.8252 19.1992V17.9991H5.20741V19.1992C5.20741 19.42 5.02787 19.5992 4.80666 19.5992C4.58545 19.5992 4.4059 19.42 4.4059 19.1992V17.9991H3.2037C2.09848 17.9991 1.2 17.1015 1.2 15.9991V8.79895C1.2 7.69654 2.09844 6.79892 3.2037 6.79892ZM16.829 17.1991C17.4918 17.1991 18.0312 16.6607 18.0312 15.9991V8.79899C18.0312 8.13736 17.4918 7.59896 16.829 7.59896H3.2037C2.54086 7.59896 2.00147 8.13736 2.00147 8.79899V15.9991C2.00147 16.6607 2.54086 17.1991 3.2037 17.1991H16.829Z" fill="#062B45"/>
<path fill-rule="evenodd" clip-rule="evenodd" d="M6.48783 3.42389L6.48733 3.42288C6.13309 2.70846 5.69228 1.81883 6.52261 0.577217C6.64602 0.393239 6.89609 0.344413 7.07804 0.466028C7.26156 0.58843 7.31206 0.836422 7.18943 1.02044C6.61638 1.87883 6.87606 2.40365 7.20547 3.06846C7.55171 3.76609 7.98132 4.63491 7.18864 5.82053C7.1117 5.93652 6.98509 5.99892 6.85604 5.99892C6.7791 5.99892 6.70133 5.97732 6.63321 5.93172C6.44969 5.80931 6.39919 5.56132 6.52261 5.37731C7.05771 4.57531 6.8186 4.09219 6.48783 3.42389ZM6.3563 5.26621C6.60381 4.89521 6.65901 4.62046 6.63117 4.3728C6.60161 4.1098 6.47793 3.85476 6.30858 3.5126L6.30315 3.50164C6.12877 3.15 5.91649 2.72193 5.86192 2.21933C5.80576 1.70199 5.91724 1.12267 6.35636 0.466038L6.35652 0.4658C6.5412 0.190488 6.91512 0.116703 7.18901 0.299639C7.46388 0.482959 7.54008 0.854909 7.35586 1.13135C7.08953 1.5303 7.02943 1.83013 7.05789 2.09573C7.08785 2.37532 7.21633 2.63991 7.38462 2.97955M7.38462 2.97955L7.38874 2.98786C7.55929 3.33146 7.76717 3.75027 7.82287 4.23884C7.88017 4.74148 7.77584 5.3021 7.35491 5.93169C7.23928 6.10555 7.04897 6.19892 6.85604 6.19892C6.74171 6.19892 6.62486 6.16676 6.52209 6.09801C6.24743 5.91471 6.17107 5.54275 6.3563 5.26621M10.5778 2.97955L10.5819 2.98785C10.7525 3.33146 10.9604 3.75027 11.0161 4.23884C11.0734 4.74148 10.969 5.3021 10.5481 5.93169L10.548 5.93191C10.4317 6.10524 10.2418 6.19892 10.0484 6.19892C9.93371 6.19892 9.81783 6.16657 9.71544 6.09811C9.44057 5.91478 9.36438 5.54284 9.54859 5.2664L9.5487 5.26623C9.79623 4.8956 9.85142 4.62105 9.82358 4.3735C9.79402 4.11059 9.67034 3.85556 9.50099 3.51339L9.50053 3.51245L9.49479 3.50085C9.32088 3.14938 9.10921 2.72158 9.05485 2.2193C8.99888 1.70215 9.1102 1.12296 9.5486 0.466293C9.73274 0.190028 10.108 0.116894 10.3816 0.299751C10.6563 0.483111 10.7325 0.854966 10.5483 1.13135C10.2819 1.5303 10.2219 1.83012 10.2504 2.09567C10.2804 2.37524 10.4091 2.63991 10.5778 2.97955ZM10.2704 0.466028C10.0885 0.344413 9.83765 0.393239 9.71502 0.577217C8.88588 1.81906 9.32587 2.7084 9.67924 3.42265L9.68024 3.42468C10.011 4.09298 10.2501 4.57609 9.71502 5.37731C9.59239 5.56132 9.64289 5.80931 9.82642 5.93172C9.89453 5.97732 9.97147 5.99892 10.0484 5.99892C10.1775 5.99892 10.3041 5.93652 10.3818 5.82053C11.1745 4.63491 10.7449 3.76609 10.3987 3.06846C10.0685 2.40365 9.80879 1.87883 10.3818 1.02044C10.5045 0.836422 10.454 0.58843 10.2704 0.466028ZM13.7404 1.13148C13.4741 1.53044 13.4141 1.83012 13.4426 2.09567C13.4727 2.37524 13.6013 2.63986 13.77 2.9795L13.7742 2.98786C13.9447 3.33146 14.1526 3.75027 14.2083 4.23884C14.2656 4.74148 14.1613 5.3021 13.7403 5.93169C13.6246 6.10574 13.4341 6.19892 13.2407 6.19892C13.126 6.19892 13.0101 6.16657 12.9077 6.09811C12.6328 5.91478 12.5566 5.54284 12.7408 5.2664L12.7409 5.26623C12.9885 4.8956 13.0437 4.62105 13.0158 4.3735C12.9863 4.11059 12.8626 3.85556 12.6932 3.51339L12.687 3.50085C12.5131 3.14939 12.3015 2.72158 12.2471 2.2193C12.1911 1.70215 12.3024 1.12296 12.7408 0.466293C12.925 0.190028 13.3003 0.116894 13.5738 0.299751C13.8486 0.483111 13.9246 0.855103 13.7404 1.13148ZM13.4627 0.466028C13.2807 0.344413 13.0299 0.393239 12.9073 0.577217C12.0781 1.81906 12.5181 2.7084 12.8715 3.42265L12.8725 3.42468C13.2033 4.09298 13.4424 4.57609 12.9073 5.37731C12.7846 5.56132 12.8351 5.80931 13.0187 5.93172C13.0868 5.97732 13.1637 5.99892 13.2407 5.99892C13.3705 5.99892 13.4971 5.93652 13.5741 5.82053C14.3668 4.63491 13.9372 3.76609 13.5909 3.06846C13.2607 2.40365 13.001 1.87883 13.5741 1.02044C13.6967 0.836422 13.6462 0.58843 13.4627 0.466028ZM3.2037 6.59892H16.829C18.0443 6.59892 19.0327 7.58579 19.0327 8.79895V15.9991C19.0327 17.2122 18.0444 18.1991 16.829 18.1991H15.8267V19.1992C15.8267 19.5308 15.5573 19.7992 15.226 19.7992C14.8946 19.7992 14.6252 19.5308 14.6252 19.1992V18.1991H5.40741V19.1992C5.40741 19.5308 5.13798 19.7992 4.80666 19.7992C4.47534 19.7992 4.2059 19.5308 4.2059 19.1992V18.1991H3.2037C1.98832 18.1991 1 17.2122 1 15.9991V8.79895C1 7.58579 1.98828 6.59892 3.2037 6.59892ZM16.829 16.9991C17.3817 16.9991 17.8312 16.5499 17.8312 15.9991V8.79899C17.8312 8.24816 17.3817 7.79896 16.829 7.79896H3.2037C2.65097 7.79896 2.20147 8.24816 2.20147 8.79899V15.9991C2.20147 16.5499 2.65097 16.9991 3.2037 16.9991H16.829ZM3.4044 8.799C3.4044 8.46739 3.67384 8.19898 4.00516 8.19898C4.33648 8.19898 4.60591 8.46739 4.60591 8.799V15.9991C4.60591 16.3307 4.33648 16.5992 4.00516 16.5992C3.67384 16.5992 3.4044 16.3307 3.4044 15.9991V8.799ZM5.8089 8.799C5.8089 8.46739 6.07834 8.19898 6.40966 8.19898C6.74098 8.19898 7.01041 8.46739 7.01041 8.799V15.9991C7.01041 16.3307 6.74098 16.5992 6.40966 16.5992C6.07834 16.5992 5.8089 16.3307 5.8089 15.9991V8.799ZM8.21331 8.799C8.21331 8.46739 8.48274 8.19898 8.81406 8.19898C9.14538 8.19898 9.41482 8.46739 9.41482 8.799V15.9991C9.41482 16.3307 9.14538 16.5992 8.81406 16.5992C8.48274 16.5992 8.21331 16.3307 8.21331 15.9991V8.799ZM10.6178 8.799C10.6178 8.46739 10.8872 8.19898 11.2186 8.19898C11.5499 8.19898 11.8193 8.46739 11.8193 8.799V15.9991C11.8193 16.3307 11.5499 16.5992 11.2186 16.5992C10.8872 16.5992 10.6178 16.3307 10.6178 15.9991V8.799ZM13.0223 8.799C13.0223 8.46739 13.2917 8.19898 13.6231 8.19898C13.9544 8.19898 14.2238 8.46739 14.2238 8.799V15.9991C14.2238 16.3307 13.9544 16.5992 13.6231 16.5992C13.2917 16.5992 13.0223 16.3307 13.0223 15.9991V8.799ZM15.4267 8.799C15.4267 8.46739 15.6961 8.19898 16.0275 8.19898C16.3588 8.19898 16.6282 8.46739 16.6282 8.799V15.9991C16.6282 16.3307 16.3588 16.5992 16.0275 16.5992C15.6961 16.5992 15.4267 16.3307 15.4267 15.9991V8.799ZM3.6044 8.799C3.6044 8.5782 3.78395 8.39898 4.00516 8.39898C4.22637 8.39898 4.40591 8.5782 4.40591 8.799V15.9991C4.40591 16.2199 4.22637 16.3992 4.00516 16.3992C3.78395 16.3992 3.6044 16.2199 3.6044 15.9991V8.799ZM6.0089 8.799C6.0089 8.5782 6.18845 8.39898 6.40966 8.39898C6.63087 8.39898 6.81041 8.5782 6.81041 8.799V15.9991C6.81041 16.2199 6.63087 16.3992 6.40966 16.3992C6.18845 16.3992 6.0089 16.2199 6.0089 15.9991V8.799ZM8.41331 8.799C8.41331 8.5782 8.59285 8.39898 8.81406 8.39898C9.03527 8.39898 9.21482 8.5782 9.21482 8.799V15.9991C9.21482 16.2199 9.03527 16.3992 8.81406 16.3992C8.59285 16.3992 8.41331 16.2199 8.41331 15.9991V8.799ZM10.8178 8.799C10.8178 8.5782 10.9973 8.39898 11.2186 8.39898C11.4398 8.39898 11.6193 8.5782 11.6193 8.799V15.9991C11.6193 16.2199 11.4398 16.3992 11.2186 16.3992C10.9973 16.3992 10.8178 16.2199 10.8178 15.9991V8.799ZM13.2223 8.799C13.2223 8.5782 13.4018 8.39898 13.6231 8.39898C13.8443 8.39898 14.0238 8.5782 14.0238 8.799V15.9991C14.0238 16.2199 13.8443 16.3992 13.6231 16.3992C13.4018 16.3992 13.2223 16.2199 13.2223 15.9991V8.799ZM15.6267 8.799C15.6267 8.5782 15.8063 8.39898 16.0275 8.39898C16.2487 8.39898 16.4282 8.5782 16.4282 8.799V15.9991C16.4282 16.2199 16.2487 16.3992 16.0275 16.3992C15.8063 16.3992 15.6267 16.2199 15.6267 15.9991V8.799ZM16.829 6.79892H3.2037C2.09844 6.79892 1.2 7.69654 1.2 8.79895V15.9991C1.2 17.1015 2.09848 17.9991 3.2037 17.9991H4.4059V19.1992C4.4059 19.42 4.58545 19.5992 4.80666 19.5992C5.02787 19.5992 5.20741 19.42 5.20741 19.1992V17.9991H14.8252V19.1992C14.8252 19.42 15.0048 19.5992 15.226 19.5992C15.4472 19.5992 15.6267 19.42 15.6267 19.1992V17.9991H16.829C17.9342 17.9991 18.8327 17.1015 18.8327 15.9991V8.79895C18.8327 7.69654 17.9342 6.79892 16.829 6.79892ZM18.0312 15.9991C18.0312 16.6607 17.4918 17.1991 16.829 17.1991H3.2037C2.54086 17.1991 2.00147 16.6607 2.00147 15.9991V8.79899C2.00147 8.13736 2.54086 7.59896 3.2037 7.59896H16.829C17.4918 7.59896 18.0312 8.13736 18.0312 8.79899V15.9991Z" fill="#062B45"/>
</svg>
