<svg width="18" height="18" viewBox="0 0 18 18" fill="none" xmlns="http://www.w3.org/2000/svg">
<path fill-rule="evenodd" clip-rule="evenodd" d="M15.9075 11.0863C16.392 11.0863 16.7861 10.6999 16.7861 10.225H17.8197C17.8197 11.2699 16.9619 12.1199 15.9075 12.1199C15.3588 12.1199 14.8636 11.8898 14.5145 11.5218C14.1686 11.8898 13.6778 12.1199 13.1341 12.1199C12.5916 12.1199 12.1017 11.8909 11.7559 11.5243C11.4102 11.8909 10.9203 12.1199 10.3778 12.1199C9.83531 12.1199 9.34543 11.8909 8.99969 11.5243C8.65394 11.8909 8.16406 12.1199 7.62156 12.1199C7.31148 12.1199 7.0189 12.0446 6.76023 11.912V13.1535C6.76023 13.6285 7.14662 14.0148 7.62156 14.0148C8.0965 14.0148 8.48289 13.6285 8.48289 13.1535H9.51648C9.51648 13.6285 9.90287 14.0148 10.3778 14.0148C10.8528 14.0148 11.2391 13.6285 11.2391 13.1535H12.2727C12.2727 13.6285 12.6591 14.0148 13.1341 14.0148C13.609 14.0148 13.9954 13.6285 13.9954 13.1535H15.029C15.029 14.1984 14.179 15.0484 13.1341 15.0484C12.5916 15.0484 12.1017 14.8194 11.7559 14.4528C11.4102 14.8194 10.9203 15.0484 10.3778 15.0484C9.83531 15.0484 9.34543 14.8194 8.99969 14.4528C8.65394 14.8194 8.16406 15.0484 7.62156 15.0484C7.31148 15.0484 7.0189 14.9731 6.76023 14.8405V16.6677H0.179688V5.2293H1.93989C2.00543 3.66047 3.30173 2.40414 4.88644 2.40414H8.48289V1.43945H9.51648V4.40242H9.61984C10.6973 4.40242 11.738 4.71856 12.6295 5.31651L12.0538 6.17487C11.3332 5.69145 10.4915 5.43602 9.61984 5.43602H9.51648V6.23651C11.0541 6.3431 12.2727 7.62715 12.2727 9.19141H11.2391C11.2391 8.19738 10.4835 7.3767 9.51648 7.2732V8.67461H8.48289V7.64102H6.76023V10.225C6.76023 10.6999 7.14662 11.0863 7.62156 11.0863C8.0965 11.0863 8.48289 10.6999 8.48289 10.225H9.51648C9.51648 10.6999 9.90287 11.0863 10.3778 11.0863C10.8528 11.0863 11.2391 10.6999 11.2391 10.225H12.2727C12.2727 10.6999 12.6591 11.0863 13.1341 11.0863C13.609 11.0863 13.9954 10.6999 13.9954 10.225H15.029C15.029 10.6999 15.423 11.0863 15.9075 11.0863ZM8.48289 3.43773H4.88644C3.87169 3.43773 3.0393 4.23069 2.97483 5.2293H6.76023V6.60742H8.48289V3.43773ZM1.21328 15.6341H5.72664V6.26289H1.21328V15.6341ZM13.5036 6.1433C14.1183 7.04339 14.4434 8.09731 14.4434 9.19106H13.4098C13.4098 8.30618 13.1471 7.45387 12.65 6.72632L13.5036 6.1433Z" fill="#062B45"/>
</svg>
