<svg width="18" height="18" viewBox="0 0 18 18" fill="none" xmlns="http://www.w3.org/2000/svg">
<path fill-rule="evenodd" clip-rule="evenodd" d="M0.454554 8.57746L5.38211 5.96685V0.696484C5.38211 0.411075 5.6135 0.179688 5.89891 0.179688H12.1005C12.3859 0.179688 12.6173 0.411075 12.6173 0.696484V5.96685L17.5448 8.57746C17.714 8.66708 17.8197 8.84275 17.8197 9.03414V11.1013C17.8197 11.3867 17.5883 11.6181 17.3029 11.6181H16.4071V13.1685C16.4071 13.4539 16.1757 13.6853 15.8903 13.6853H2.10906C1.82365 13.6853 1.59227 13.4539 1.59227 13.1685V11.6181H0.696484C0.411075 11.6181 0.179688 11.3867 0.179688 11.1013V9.03414C0.179688 8.84275 0.285424 8.66708 0.454554 8.57746ZM6.4157 5.76109H11.5837V4.7275H6.4157V5.76109ZM11.972 6.79469H6.02735L2.77583 8.51734H15.2235L11.972 6.79469ZM11.5837 1.21328H6.4157V3.69391H11.5837V1.21328ZM2.62586 12.6517H15.3735V11.6181H2.62586V12.6517ZM16.7861 10.5845V9.55094H1.21328V10.5845H16.7861ZM12.1005 14.7189C12.3859 14.7189 12.6173 14.9503 12.6173 15.2357V17.3029C12.6173 17.5883 12.3859 17.8197 12.1005 17.8197C11.8151 17.8197 11.5837 17.5883 11.5837 17.3029V15.2357C11.5837 14.9503 11.8151 14.7189 12.1005 14.7189ZM10.5501 15.2357C10.5501 14.9503 10.3187 14.7189 10.0333 14.7189C9.74787 14.7189 9.51648 14.9503 9.51648 15.2357V17.3029C9.51648 17.5883 9.74787 17.8197 10.0333 17.8197C10.3187 17.8197 10.5501 17.5883 10.5501 17.3029V15.2357ZM7.96609 14.7189C8.2515 14.7189 8.48289 14.9503 8.48289 15.2357V17.3029C8.48289 17.5883 8.2515 17.8197 7.96609 17.8197C7.68068 17.8197 7.4493 17.5883 7.4493 17.3029V15.2357C7.4493 14.9503 7.68068 14.7189 7.96609 14.7189ZM6.4157 15.2357C6.4157 14.9503 6.18432 14.7189 5.8989 14.7189C5.61349 14.7189 5.38211 14.9503 5.38211 15.2357V17.3029C5.38211 17.5883 5.61349 17.8197 5.8989 17.8197C6.18432 17.8197 6.4157 17.5883 6.4157 17.3029V15.2357Z" fill="#062B45"/>
</svg>
