<svg width="14" height="16" viewBox="0 0 14 16" fill="none" xmlns="http://www.w3.org/2000/svg">
<path d="M10 14H4.75C3.78125 14 3 13.2188 3 12.25V3H0.75C0.3125 3 0 3.34375 0 3.75V15.25C0 15.6875 0.3125 16 0.75 16H9.25C9.65625 16 10 15.6875 10 15.25V14ZM10 3.25V0H4.75C4.3125 0 4 0.34375 4 0.75V12.25C4 12.6875 4.3125 13 4.75 13H13.25C13.6562 13 14 12.6875 14 12.25V4H10.75C10.3125 4 10 3.6875 10 3.25ZM13.75 2.28125L11.7188 0.25C11.5625 0.09375 11.375 0 11.1875 0H11V3H14V2.8125C14 2.625 13.9062 2.4375 13.75 2.28125Z" fill="#062B45"/>
</svg>
