<svg width="16" height="16" viewBox="0 0 16 16" fill="none" xmlns="http://www.w3.org/2000/svg">
<path fill-rule="evenodd" clip-rule="evenodd" d="M14.462 0.960938H1.53828C0.778383 0.960938 0.160156 1.57884 0.160156 2.33833V7.8479C0.160156 8.60739 0.778383 9.22529 1.53828 9.22529H14.462C15.2219 9.22529 15.8402 8.60739 15.8402 7.8479V2.33833C15.8402 1.57884 15.2219 0.960938 14.462 0.960938ZM14.9214 7.8479C14.9214 8.10106 14.7153 8.30703 14.462 8.30703H1.53828C1.28498 8.30703 1.07891 8.10106 1.07891 7.8479V7.69485H14.9214V7.8479ZM14.9214 6.77659H1.07891V2.33833C1.07891 2.08516 1.28498 1.8792 1.53828 1.8792H14.462C14.7153 1.8792 14.9214 2.08516 14.9214 2.33833V6.77659ZM13.6964 3.56289C13.9501 3.56289 14.1558 3.35733 14.1558 3.10376C14.1558 2.85019 13.9501 2.64463 13.6964 2.64463C13.4427 2.64463 13.237 2.85019 13.237 3.10376C13.237 3.35733 13.4427 3.56289 13.6964 3.56289ZM8.49016 9.83725C8.74385 9.83725 8.94953 10.0428 8.94953 10.2964C8.94953 10.9919 8.64649 11.3299 8.37744 11.6301C8.16266 11.8697 7.96953 12.0851 7.96953 12.439C7.96953 12.7933 8.16272 13.0087 8.37755 13.2482C8.64657 13.5481 8.94953 13.8858 8.94953 14.5816C8.94953 14.8352 8.74385 15.0407 8.49016 15.0407C8.23646 15.0407 8.03078 14.8352 8.03078 14.5816C8.03078 14.2273 7.83759 14.0119 7.62276 13.7724C7.35374 13.4725 7.05078 13.1348 7.05078 12.439C7.05078 11.7435 7.35382 11.4054 7.62287 11.1053C7.83766 10.8657 8.03078 10.6502 8.03078 10.2964C8.03078 10.0428 8.23646 9.83725 8.49016 9.83725ZM12.012 10.2964C12.012 10.0428 11.8064 9.83725 11.5527 9.83725C11.299 9.83725 11.0933 10.0428 11.0933 10.2964C11.0933 10.6502 10.9002 10.8657 10.6854 11.1053C10.4163 11.4054 10.1133 11.7435 10.1133 12.439C10.1133 13.1348 10.4162 13.4725 10.6853 13.7724C10.9001 14.0119 11.0933 14.2273 11.0933 14.5816C11.0933 14.8352 11.299 15.0407 11.5527 15.0407C11.8064 15.0407 12.012 14.8352 12.012 14.5816C12.012 13.8858 11.7091 13.5481 11.4401 13.2482C11.2252 13.0087 11.032 12.7933 11.032 12.439C11.032 12.0851 11.2252 11.8697 11.4399 11.6301C11.709 11.3299 12.012 10.9919 12.012 10.2964ZM5.42766 9.83725C5.68135 9.83725 5.88703 10.0428 5.88703 10.2964C5.88703 10.9919 5.58399 11.3299 5.31494 11.6301C5.10016 11.8697 4.90703 12.0851 4.90703 12.439C4.90703 12.7933 5.10022 13.0087 5.31505 13.2482C5.58407 13.5481 5.88703 13.8858 5.88703 14.5816C5.88703 14.8352 5.68135 15.0407 5.42766 15.0407C5.17396 15.0407 4.96828 14.8352 4.96828 14.5816C4.96828 14.2273 4.77509 14.0119 4.56026 13.7724C4.29124 13.4725 3.98828 13.1348 3.98828 12.439C3.98828 11.7435 4.29132 11.4054 4.56037 11.1053C4.77516 10.8657 4.96828 10.6502 4.96828 10.2964C4.96828 10.0428 5.17396 9.83725 5.42766 9.83725Z" fill="#687D8F"/>
</svg>
