<svg width="16" height="16" viewBox="0 0 16 16" fill="none" xmlns="http://www.w3.org/2000/svg">
<path d="M15.625 7H14.6562C14.2188 4.09375 11.9062 1.78125 9 1.34375V0.375C9 0.1875 8.8125 0 8.625 0H7.375C7.15625 0 7 0.1875 7 0.375V1.34375C4.0625 1.78125 1.75 4.09375 1.3125 7H0.375C0.15625 7 0 7.1875 0 7.375V8.625C0 8.84375 0.15625 9 0.375 9H1.3125C1.75 11.9375 4.0625 14.25 7 14.6875V15.625C7 15.8438 7.15625 16 7.375 16H8.625C8.8125 16 9 15.8438 9 15.625V14.6875C11.9062 14.25 14.2188 11.9375 14.6562 9H15.625C15.8125 9 16 8.84375 16 8.625V7.375C16 7.1875 15.8125 7 15.625 7ZM9 12.6562V11.375C9 11.1875 8.8125 11 8.625 11H7.375C7.15625 11 7 11.1875 7 11.375V12.6562C5.15625 12.2812 3.71875 10.8438 3.34375 9H4.625C4.8125 9 5 8.84375 5 8.625V7.375C5 7.1875 4.8125 7 4.625 7H3.34375C3.71875 5.1875 5.15625 3.75 7 3.375V4.625C7 4.84375 7.15625 5 7.375 5H8.625C8.8125 5 9 4.84375 9 4.625V3.375C10.8125 3.75 12.25 5.1875 12.625 7H11.375C11.1562 7 11 7.1875 11 7.375V8.625C11 8.84375 11.1562 9 11.375 9H12.625C12.25 10.8438 10.8125 12.2812 9 12.6562ZM9 8C9 7.46875 8.53125 7 8 7C7.4375 7 7 7.46875 7 8C7 8.5625 7.4375 9 8 9C8.53125 9 9 8.5625 9 8Z" fill="#0E76BC"/>
</svg>
