<svg width="12" height="20" viewBox="0 0 12 20" fill="none" xmlns="http://www.w3.org/2000/svg">
<path d="M10.4296 7.61743C10.8551 7.61743 11.2 7.27254 11.2 6.84706C11.2 6.42158 10.8551 6.07669 10.4296 6.07669H8.88889V4.88262H10.4296C10.8551 4.88262 11.2 4.53772 11.2 4.11224C11.2 3.68677 10.8551 3.34187 10.4296 3.34187H8.87167C8.69718 1.59248 7.21676 0.221875 5.42222 0.221875C3.5107 0.221875 1.95556 1.77702 1.95556 3.68854V12.2638C1.20799 13.1084 0.8 14.1818 0.8 15.3211C0.8 17.8698 2.87353 19.9434 5.42222 19.9434C7.97092 19.9434 10.0444 17.8698 10.0444 15.3211C10.0444 14.353 9.74804 13.4258 9.18721 12.6397C8.9402 12.2933 8.45918 12.2129 8.1127 12.4599C7.76634 12.707 7.68588 13.1881 7.93298 13.5345C8.30633 14.0579 8.5037 14.6757 8.5037 15.3211C8.5037 17.0203 7.12135 18.4026 5.42222 18.4026C3.72309 18.4026 2.34074 17.0203 2.34074 15.3211C2.34074 14.4868 2.66907 13.7054 3.26526 13.1208C3.41302 12.9759 3.4963 12.7777 3.4963 12.5708V3.68854C3.4963 2.62659 4.36027 1.76262 5.42222 1.76262C6.48418 1.76262 7.34815 2.62659 7.34815 3.68854V9.54336C7.34815 9.96883 7.69304 10.3137 8.11852 10.3137H10.4296C10.8551 10.3137 11.2 9.96883 11.2 9.54336C11.2 9.11788 10.8551 8.77299 10.4296 8.77299H8.88889V7.61743H10.4296Z" fill="#687D8F"/>
<path fill-rule="evenodd" clip-rule="evenodd" d="M8.08368 12.4192C8.45262 12.1562 8.96486 12.2418 9.22792 12.6106C9.79481 13.4053 10.0944 14.3426 10.0944 15.3211C10.0944 17.8974 7.99853 19.9934 5.42222 19.9934C2.84591 19.9934 0.75 17.8974 0.75 15.3211C0.75 14.176 1.15787 13.0965 1.90556 12.2449V3.68854C1.90556 1.74941 3.48309 0.171875 5.42222 0.171875C7.2273 0.171875 8.71894 1.53876 8.91664 3.29187H10.4296C10.8827 3.29187 11.25 3.65916 11.25 4.11224C11.25 4.56533 10.8827 4.93262 10.4296 4.93262H8.93889V6.02669H10.4296C10.8827 6.02669 11.25 6.39397 11.25 6.84706C11.25 7.30015 10.8827 7.66743 10.4296 7.66743H8.93889V8.72299H10.4296C10.8827 8.72299 11.25 9.09027 11.25 9.54336C11.25 9.99645 10.8827 10.3637 10.4296 10.3637H8.11852C7.66543 10.3637 7.29815 9.99645 7.29815 9.54336V3.68854C7.29815 2.6542 6.45656 1.81262 5.42222 1.81262C4.38788 1.81262 3.5463 2.6542 3.5463 3.68854V12.5708C3.5463 12.7912 3.45761 13.0022 3.30027 13.1565C2.71367 13.7317 2.39074 14.5002 2.39074 15.3211C2.39074 16.9926 3.75071 18.3526 5.42222 18.3526C7.09374 18.3526 8.4537 16.9926 8.4537 15.3211C8.4537 14.686 8.25956 14.0784 7.89227 13.5635C7.62914 13.1947 7.71483 12.6823 8.08368 12.4192ZM8.87167 3.34187H10.4296C10.8551 3.34187 11.2 3.68677 11.2 4.11224C11.2 4.53772 10.8551 4.88262 10.4296 4.88262H8.88889V6.07669H10.4296C10.8551 6.07669 11.2 6.42158 11.2 6.84706C11.2 7.27254 10.8551 7.61743 10.4296 7.61743H8.88889V8.77299H10.4296C10.8551 8.77299 11.2 9.11788 11.2 9.54336C11.2 9.96883 10.8551 10.3137 10.4296 10.3137H8.11852C7.69304 10.3137 7.34815 9.96883 7.34815 9.54336V3.68854C7.34815 2.62659 6.48418 1.76262 5.42222 1.76262C4.36027 1.76262 3.4963 2.62659 3.4963 3.68854V12.5708C3.4963 12.7777 3.41302 12.9759 3.26526 13.1208C2.66907 13.7054 2.34074 14.4868 2.34074 15.3211C2.34074 17.0203 3.72309 18.4026 5.42222 18.4026C7.12135 18.4026 8.5037 17.0203 8.5037 15.3211C8.5037 14.6757 8.30633 14.0579 7.93298 13.5345C7.68588 13.1881 7.76634 12.707 8.1127 12.4599C8.45918 12.2129 8.9402 12.2933 9.18721 12.6397C9.74804 13.4258 10.0444 14.353 10.0444 15.3211C10.0444 17.8698 7.97092 19.9434 5.42222 19.9434C2.87353 19.9434 0.8 17.8698 0.8 15.3211C0.8 14.1818 1.20799 13.1084 1.95556 12.2638V3.68854C1.95556 1.77702 3.5107 0.221875 5.42222 0.221875C7.21676 0.221875 8.69718 1.59248 8.87167 3.34187Z" fill="#687D8F"/>
<path d="M5.4216 6.07539C4.99613 6.07539 4.65123 6.42029 4.65123 6.84576V13.9852C4.1907 14.2516 3.88086 14.7495 3.88086 15.3198C3.88086 16.1707 4.57069 16.8606 5.4216 16.8606C6.27251 16.8606 6.96234 16.1707 6.96234 15.3198C6.96234 14.7496 6.6525 14.2516 6.19197 13.9852V6.84576C6.19197 6.42029 5.84708 6.07539 5.4216 6.07539Z" fill="#5AAFE8"/>
</svg>
