<svg width="18" height="16" viewBox="0 0 18 16" fill="none" xmlns="http://www.w3.org/2000/svg">
<path d="M12.5625 2.625C12.4375 2.5 12.25 2.5 12.125 2.625L5.3125 9.4375L5 12.3438C4.9375 12.7188 5.28125 13.0625 5.65625 13L8.5625 12.6875L15.375 5.875C15.5 5.75 15.5 5.5625 15.375 5.4375L12.5625 2.625ZM17.625 1.90625L16.0938 0.375C15.625 -0.09375 14.8438 -0.09375 14.375 0.375L13.2812 1.46875C13.1562 1.59375 13.1562 1.78125 13.2812 1.90625L16.0938 4.71875C16.2188 4.84375 16.4062 4.84375 16.5312 4.71875L17.625 3.625C18.0938 3.15625 18.0938 2.375 17.625 1.90625ZM12 10.8438V14H2V4H9.15625C9.28125 4 9.375 3.96875 9.4375 3.90625L10.6875 2.65625C10.9062 2.40625 10.75 2 10.4062 2H1.5C0.65625 2 0 2.6875 0 3.5V14.5C0 15.3438 0.65625 16 1.5 16H12.5C13.3125 16 14 15.3438 14 14.5V9.59375C14 9.25 13.5938 9.09375 13.3438 9.3125L12.0938 10.5625C12.0312 10.625 12 10.7188 12 10.8438Z" fill="#0E76BC"/>
</svg>
