<svg width="48" height="48" viewBox="0 0 48 48" fill="none" xmlns="http://www.w3.org/2000/svg">
<path d="M48 32.4844C48 25.4879 43.2858 19.3751 36.6379 17.5331C36.2201 7.79443 28.1678 0 18.3281 0C8.2218 0 0 8.2218 0 18.3281C0 21.6218 0.876709 24.8287 2.5415 27.6442L0.0673828 36.5885L9.01208 34.1147C11.6001 35.6451 14.5195 36.5072 17.5327 36.6372C19.3744 43.2854 25.4875 48 32.4844 48C35.2771 48 37.9929 47.2562 40.3792 45.843L47.9323 47.9323L45.843 40.3792C47.2562 37.9929 48 35.2771 48 32.4844ZM9.45593 31.0737L4.1012 32.5551L5.58252 27.2003L5.24487 26.6722C3.65369 24.1827 2.8125 21.2974 2.8125 18.3281C2.8125 9.77271 9.77271 2.8125 18.3281 2.8125C26.8835 2.8125 33.8438 9.77271 33.8438 18.3281C33.8438 26.8835 26.8835 33.8438 18.3281 33.8438C15.3589 33.8438 12.4739 33.0026 9.98401 31.4114L9.45593 31.0737ZM43.8988 43.8988L39.9254 42.7994L39.3948 43.1448C37.3378 44.4811 34.9479 45.1875 32.4844 45.1875C26.9854 45.1875 22.1532 41.632 20.4412 36.5336C28.8618 35.5627 35.5627 28.8618 36.5339 20.4408C41.632 22.1532 45.1875 26.9854 45.1875 32.4844C45.1875 34.9479 44.4811 37.3378 43.1448 39.3948L42.7994 39.9254L43.8988 43.8988Z" fill="#5AAFE8"/>
<path d="M16.9219 25.4062H19.7344V28.2188H16.9219V25.4062Z" fill="#5AAFE8"/>
<path d="M21.1406 14.0625C21.1406 14.8612 20.8154 15.5984 20.2251 16.1385L16.9219 19.162V22.5938H19.7344V20.4005L22.1239 18.2135C23.2863 17.1497 23.9531 15.6368 23.9531 14.0625C23.9531 10.9607 21.4299 8.4375 18.3281 8.4375C15.2263 8.4375 12.7031 10.9607 12.7031 14.0625H15.5156C15.5156 12.5116 16.7772 11.25 18.3281 11.25C19.879 11.25 21.1406 12.5116 21.1406 14.0625Z" fill="#5AAFE8"/>
</svg>
