<svg width="18" height="18" viewBox="0 0 18 18" fill="none" xmlns="http://www.w3.org/2000/svg">
<g clip-path="url(#clip0)">
<path fill-rule="evenodd" clip-rule="evenodd" d="M3.78411 0H14.2468C15.3407 0 16.2302 0.888179 16.2302 1.98002V14.5801C16.2302 15.672 15.3407 16.5602 14.2468 16.5602H13.3448V17.4603C13.3448 17.7587 13.1023 18.0003 12.8042 18.0003C12.506 18.0003 12.2635 17.7587 12.2635 17.4603V16.5602H5.76745V17.4603C5.76745 17.7587 5.52496 18.0003 5.22677 18.0003C4.92859 18.0003 4.68609 17.7587 4.68609 17.4603V16.5602H3.78411C2.69027 16.5602 1.80078 15.672 1.80078 14.5801V1.98002C1.80078 0.888181 2.69023 0 3.78411 0ZM14.2468 15.4802C14.7443 15.4802 15.1488 15.0759 15.1488 14.5802V1.98006C15.1488 1.48432 14.7443 1.08004 14.2468 1.08004H3.78411C3.28665 1.08004 2.88211 1.48432 2.88211 1.98006V14.5802C2.88211 15.0759 3.28665 15.4802 3.78411 15.4802H14.2468ZM6.34879 7.38005C6.04599 7.38005 5.76078 7.15868 5.76078 6.84004C5.76078 6.5214 6.04599 6.30003 6.34879 6.30003L11.6528 6.30003C11.9556 6.30003 12.2408 6.5214 12.2408 6.84004C12.2408 7.15868 11.9556 7.38005 11.6528 7.38005L6.34879 7.38005ZM6.34879 5.22002C6.04599 5.22002 5.76078 4.99865 5.76078 4.68001C5.76078 4.36136 6.04599 4.14 6.34879 4.14H11.6528C11.9556 4.14 12.2408 4.36136 12.2408 4.68001C12.2408 4.99865 11.9556 5.22001 11.6528 5.22001L6.34879 5.22002ZM6.34879 3.06007C6.04599 3.06007 5.76078 2.8387 5.76078 2.52006C5.76078 2.20142 6.04599 1.98005 6.34879 1.98005L11.6528 1.98005C11.9556 1.98005 12.2408 2.20142 12.2408 2.52006C12.2408 2.8387 11.9556 3.06007 11.6528 3.06007L6.34879 3.06007ZM10.6208 10.6128L10.145 10.8827C9.84654 10.3126 9.51218 9.78582 9.40239 9.61681C9.33513 9.51293 9.21983 9.45 9.09575 9.45C8.97187 9.45 8.85657 9.51298 8.78933 9.61681C8.68336 9.78036 8.36634 10.279 8.07549 10.8276C7.93009 11.1018 7.79039 11.39 7.68682 11.656C7.58422 11.9195 7.51318 12.1708 7.51318 12.3676L7.51323 12.3749L6.93575 12.7026C6.76055 12.8021 6.6988 13.0247 6.79843 13.2001C6.86569 13.3187 6.98934 13.385 7.11614 13.385C7.17716 13.385 7.23898 13.3698 7.29576 13.3377L10.9807 11.2478C11.1562 11.1481 11.2177 10.9255 11.1181 10.7502C11.0187 10.5748 10.7959 10.5135 10.6208 10.6128ZM10.5491 11.7754L10.5131 11.6744L9.87172 12.0381L9.89404 12.1078C9.93031 12.2211 9.94837 12.3086 9.94837 12.3676C9.94837 12.8374 9.56607 13.22 9.09586 13.22C8.83972 13.22 8.60987 13.1059 8.45315 12.9256L8.40486 12.87L7.76842 13.2309L7.82964 13.3127C8.11814 13.6982 8.57739 13.95 9.09586 13.95C9.96852 13.95 10.6783 13.24 10.6783 12.3676C10.6783 12.2001 10.6266 11.9935 10.5491 11.7754ZM9.50764 11.2437C9.3789 10.9969 9.23527 10.7428 9.09575 10.5081C8.82632 10.9613 8.54363 11.4839 8.38052 11.8831L9.50764 11.2437Z" fill="#062B45"/>
</g>
<defs>
<clipPath id="clip0">
<rect width="18" height="18" fill="white"/>
</clipPath>
</defs>
</svg>
