<svg width="18" height="18" viewBox="0 0 18 18" fill="none" xmlns="http://www.w3.org/2000/svg">
<path fill-rule="evenodd" clip-rule="evenodd" d="M13.813 7.00758H15.9215C16.9681 7.00758 17.8197 7.84752 17.8197 8.87998V9.82405L17.8195 9.82752L17.8197 9.83099V15.228C17.8197 16.2604 16.9682 17.1004 15.9215 17.1004H2.66476C1.29449 17.1004 0.179688 16.0008 0.179688 14.6491V5.01289C0.179688 3.66127 1.29449 2.56161 2.66476 2.56165H2.66858V1.4169C2.66858 1.13166 2.90303 0.900391 3.1922 0.900391C3.48137 0.900391 3.71582 1.13166 3.71582 1.4169V2.56165H4.80405V1.4169C4.80405 1.13166 5.03851 0.900391 5.32767 0.900391C5.61684 0.900391 5.85129 1.13166 5.85129 1.4169V2.56165H6.83038V1.4169C6.83038 1.13166 7.06483 0.900391 7.354 0.900391H9.94953C10.2387 0.900391 10.4731 1.13166 10.4731 1.4169V2.56161H10.4769C11.8472 2.56161 12.962 3.66124 12.962 5.01289V7.20703C13.2181 7.07976 13.5071 7.00758 13.813 7.00758ZM9.42584 1.9334H7.87755V2.56165H9.42584V1.9334ZM2.66476 16.0674H11.9147V5.01289C11.9147 4.23089 11.2697 3.59462 10.4769 3.59462H2.66476C1.87196 3.59462 1.22692 4.23083 1.22692 5.01289V14.6491C1.22692 15.4311 1.87192 16.0674 2.66476 16.0674ZM13.813 8.04055C13.3437 8.04055 12.962 8.41714 12.962 8.87998V9.30755H16.7725V8.87998C16.7725 8.41711 16.3907 8.04055 15.9215 8.04055H13.813ZM15.9215 16.0674C16.3907 16.0674 16.7724 15.6908 16.7724 15.228V10.3475H15.3908V13.2075C15.3908 13.4927 15.1564 13.724 14.8672 13.724C14.578 13.724 14.3436 13.4927 14.3436 13.2075V10.3475H12.962V16.0674H15.9215ZM5.76682 10.078L5.79707 9.95145L4.9001 9.7007L4.8632 9.83267C4.83901 9.91915 4.7841 10.0323 4.6835 10.1227C4.58568 10.2106 4.43771 10.2834 4.21185 10.2834C3.83371 10.2834 3.48957 10.0185 3.48957 9.55012C3.48957 9.27712 3.58814 9.08985 3.72058 8.96994C3.85563 8.84765 4.0343 8.78792 4.20342 8.78792C4.4336 8.78792 4.57832 8.86176 4.67047 8.94781C4.76561 9.03667 4.81355 9.14711 4.8321 9.22823L4.86503 9.37223L5.75721 9.09596L5.72914 8.97375C5.62058 8.50109 5.17702 7.87865 4.20342 7.87865C3.29636 7.87865 2.5225 8.5566 2.5225 9.55012C2.5225 10.5446 3.28053 11.2092 4.21185 11.2092C5.21976 11.2092 5.65931 10.5277 5.76682 10.078ZM6.92838 9.54185C6.92838 9.27088 7.02588 9.0862 7.15852 8.96813C7.29386 8.84766 7.47564 8.78792 7.65487 8.78792C7.83169 8.78792 8.01243 8.84748 8.14737 8.96798C8.27964 9.0861 8.37715 9.27086 8.37715 9.54185C8.37715 9.81277 8.2797 9.99631 8.14773 10.1133C8.01299 10.2328 7.83222 10.2916 7.65487 10.2916C7.47512 10.2916 7.2933 10.2326 7.15816 10.1132C7.02582 9.99621 6.92838 9.81276 6.92838 9.54185ZM5.96131 9.54598C5.96131 10.5546 6.74217 11.2092 7.65487 11.2092C8.56361 11.2092 9.34422 10.5543 9.34422 9.54598C9.34422 8.53375 8.56387 7.87865 7.65487 7.87865C6.74191 7.87865 5.96131 8.53351 5.96131 9.54598ZM9.32215 11.2643L9.84617 11.2679L9.81864 11.1793C9.81037 11.1527 9.80616 11.1236 9.80616 11.0969C9.80616 11.0397 9.8222 10.9957 9.84764 10.967C9.87188 10.9396 9.9107 10.9192 9.97255 10.9192C10.0329 10.9192 10.0707 10.9374 10.0931 10.959C10.1158 10.9809 10.1286 11.0119 10.1286 11.0483C10.1286 11.0915 10.1189 11.1219 10.0991 11.1492C10.0778 11.1786 10.0414 11.2092 9.97899 11.2456L9.9789 11.2456L9.70519 11.4041L9.70508 11.4042C9.54077 11.4985 9.43169 11.6149 9.36465 11.7511C9.2981 11.8864 9.27532 12.0364 9.27532 12.1948V12.2627H10.6879V11.789H10.0157L10.3102 11.616L10.3102 11.616C10.5412 11.481 10.675 11.2844 10.675 11.0406C10.675 10.7019 10.4017 10.4275 9.9829 10.4275C9.76525 10.4275 9.59011 10.4997 9.46911 10.6173C9.34849 10.7345 9.28566 10.893 9.28566 11.0585C9.28566 11.0871 9.28779 11.119 9.29094 11.1467C9.29377 11.1716 9.29828 11.2013 9.30553 11.2205L9.32215 11.2643Z" fill="#062B45"/>
</svg>
