<svg width="20" height="20" viewBox="0 0 20 20" fill="none" xmlns="http://www.w3.org/2000/svg">
<path d="M1.71289 5.47717C1.71289 4.74091 2.18153 3.75012 3.14564 2.44817C3.80347 1.55989 4.45241 0.851918 4.47971 0.822173L5.04336 0.208984L5.60705 0.822212C5.63435 0.851918 6.28329 1.55993 6.94111 2.44821C7.90523 3.75015 8.37387 4.74095 8.37387 5.47721C8.37387 7.3123 6.87983 8.80523 5.0434 8.80523C3.20697 8.80523 1.71289 7.31226 1.71289 5.47717ZM3.24414 5.47717C3.24414 6.46789 4.05126 7.27394 5.04336 7.27394C6.03546 7.27394 6.84258 6.46789 6.84258 5.47717C6.84258 5.37921 6.78837 4.81732 5.71803 3.3696C5.48298 3.05171 5.2461 2.75538 5.04336 2.51084C4.84062 2.75538 4.60374 3.05171 4.36869 3.3696C3.29835 4.81732 3.24414 5.37925 3.24414 5.47717ZM11.5895 7.39124C11.5895 6.65497 12.0581 5.66418 13.0222 4.36223C13.68 3.47395 14.329 2.76598 14.3563 2.73624L14.9199 2.12305L15.4836 2.73627C15.5109 2.76598 16.1599 3.47399 16.8177 4.36227C17.7818 5.66422 18.2504 6.65501 18.2504 7.39127C18.2504 9.22636 16.7564 10.7193 14.92 10.7193C13.0835 10.7193 11.5895 9.22633 11.5895 7.39124ZM13.1207 7.39124C13.1207 8.38196 13.9278 9.18801 14.9199 9.18801C15.912 9.18801 16.7191 8.38196 16.7191 7.39124C16.7191 7.29327 16.6649 6.73138 15.5946 5.28366C15.3595 4.96577 15.1227 4.66944 14.9199 4.4249C14.7172 4.66944 14.4803 4.96577 14.2453 5.28366C13.1749 6.73138 13.1207 7.29331 13.1207 7.39124Z" fill="#5AAFE8"/>
<path d="M1.73047 12.5957H0.199219C0.199219 14.2422 1.54729 15.5816 3.2043 15.5816C4.11428 15.5816 4.93051 15.1771 5.48203 14.5401C6.03355 15.1771 6.84978 15.5816 7.75977 15.5816C8.64881 15.5816 9.44854 15.1957 9.99922 14.584C10.5499 15.1957 11.3496 15.5816 12.2387 15.5816C13.1487 15.5816 13.9649 15.1771 14.5164 14.5401C15.0679 15.1771 15.8842 15.5816 16.7941 15.5816C18.4511 15.5816 19.7992 14.2422 19.7992 12.5957H18.268C18.268 13.3978 17.6068 14.0504 16.7941 14.0504C15.9815 14.0504 15.3203 13.3978 15.3203 12.5957H13.7125C13.7125 13.3978 13.0513 14.0504 12.2387 14.0504C11.426 14.0504 10.7648 13.3978 10.7648 12.5957H9.23359C9.23359 13.3978 8.57244 14.0504 7.75977 14.0504C6.94709 14.0504 6.28594 13.3978 6.28594 12.5957H4.67812C4.67812 13.3978 4.01697 14.0504 3.2043 14.0504C2.39162 14.0504 1.73047 13.3978 1.73047 12.5957Z" fill="#687D8F"/>
<path d="M15.3203 16.8066C15.3203 17.6087 15.9815 18.2613 16.7941 18.2613C17.6068 18.2613 18.268 17.6087 18.268 16.8066H19.7992C19.7992 18.4531 18.4511 19.7926 16.7941 19.7926C15.8842 19.7926 15.0679 19.388 14.5164 18.7511C13.9649 19.388 13.1487 19.7926 12.2387 19.7926C11.3496 19.7926 10.5499 19.4067 9.99922 18.795C9.44854 19.4067 8.64881 19.7926 7.75977 19.7926C6.84978 19.7926 6.03355 19.388 5.48203 18.7511C4.93051 19.388 4.11428 19.7926 3.2043 19.7926C1.54729 19.7926 0.199219 18.4531 0.199219 16.8066H1.73047C1.73047 17.6087 2.39162 18.2613 3.2043 18.2613C4.01697 18.2613 4.67812 17.6087 4.67812 16.8066H6.28594C6.28594 17.6087 6.94709 18.2613 7.75977 18.2613C8.57244 18.2613 9.23359 17.6087 9.23359 16.8066H10.7648C10.7648 17.6087 11.426 18.2613 12.2387 18.2613C13.0513 18.2613 13.7125 17.6087 13.7125 16.8066H15.3203Z" fill="#687D8F"/>
</svg>