<svg width="18" height="18" viewBox="0 0 18 18" fill="none" xmlns="http://www.w3.org/2000/svg">
<path d="M13.3035 0.900391H4.69727C2.60367 0.900391 0.900391 2.60367 0.900391 4.69727V13.3035C0.900391 15.3971 2.60367 17.1004 4.69727 17.1004H13.3035C15.3971 17.1004 17.1004 15.3971 17.1004 13.3035V4.69727C17.1004 2.60367 15.3971 0.900391 13.3035 0.900391ZM15.8348 13.3035C15.8348 14.6992 14.6992 15.8348 13.3035 15.8348H4.69727C3.30153 15.8348 2.16602 14.6992 2.16602 13.3035V4.69727C2.16602 3.30153 3.30153 2.16602 4.69727 2.16602H13.3035C14.6992 2.16602 15.8348 3.30153 15.8348 4.69727V13.3035ZM14.5691 4.98203C14.5691 5.33153 14.2858 5.61484 13.9363 5.61484H4.06445C3.71495 5.61484 3.43164 5.33153 3.43164 4.98203C3.43164 4.63253 3.71495 4.34922 4.06445 4.34922H13.9363C14.2858 4.34922 14.5691 4.63253 14.5691 4.98203ZM12.0154 11.9066L11.5938 11.6536C11.6765 11.3955 11.7215 11.1207 11.7215 10.8355C11.7215 10.5503 11.6765 10.2756 11.5938 10.0174L12.0154 9.76448C12.3151 9.58467 12.4123 9.19596 12.2324 8.89629C12.0526 8.59656 11.6638 8.49936 11.3643 8.67927L10.9349 8.93689C10.5908 8.59197 10.1536 8.34037 9.66484 8.22203V7.67148C9.66484 7.32198 9.38153 7.03867 9.03203 7.03867C8.68253 7.03867 8.39922 7.32198 8.39922 7.67148V8.222C7.89936 8.34306 7.45377 8.60393 7.1061 8.961L6.63652 8.67924C6.33691 8.49939 5.94815 8.59656 5.76833 8.89626C5.58849 9.19596 5.68569 9.58467 5.98536 9.76445L6.46009 10.0493C6.38387 10.2982 6.34258 10.5621 6.34258 10.8355C6.34258 11.109 6.38387 11.3729 6.46009 11.6218L5.98536 11.9066C5.68566 12.0864 5.58849 12.4751 5.7683 12.7748C5.88699 12.9726 6.09657 13.0821 6.31154 13.0821C6.42234 13.0821 6.53461 13.053 6.63652 12.9919L7.10613 12.7101C7.45377 13.0672 7.89936 13.328 8.39922 13.4491V13.9996C8.39922 14.3491 8.68253 14.6324 9.03203 14.6324C9.38153 14.6324 9.66484 14.3491 9.66484 13.9996V13.4491C10.1535 13.3307 10.5907 13.0792 10.9349 12.7343L11.3643 12.9919C11.4662 13.053 11.5784 13.0822 11.6892 13.0822C11.9042 13.0822 12.1138 12.9726 12.2325 12.7748C12.4123 12.4751 12.3151 12.0864 12.0154 11.9066V11.9066ZM9.03203 12.2594C8.24693 12.2594 7.6082 11.6206 7.6082 10.8355C7.6082 10.0504 8.24693 9.41172 9.03203 9.41172C9.81713 9.41172 10.4559 10.0504 10.4559 10.8355C10.4559 11.6206 9.81713 12.2594 9.03203 12.2594Z" fill="#062B45"/>
</svg>
