<svg width="28" height="28" viewBox="0 0 28 28" fill="none" xmlns="http://www.w3.org/2000/svg">
<rect opacity="0.5" width="28" height="28" rx="14" fill="#EC6060"/>
<rect x="5" y="5" width="18" height="18" rx="9" fill="white" stroke="#EC6060" stroke-width="2"/>
<path d="M14 19.25C14.6836 19.25 15.2305 18.7031 15.2305 18H12.75C12.75 18.7031 13.2969 19.25 14 19.25ZM18.1992 16.3398C17.8281 15.9297 17.1055 15.3242 17.1055 13.3125C17.1055 11.8086 16.0508 10.5977 14.6055 10.2852V9.875C14.6055 9.54297 14.332 9.25 14 9.25C13.6484 9.25 13.375 9.54297 13.375 9.875V10.2852C11.9297 10.5977 10.875 11.8086 10.875 13.3125C10.875 15.3242 10.1523 15.9297 9.78125 16.3398C9.66406 16.457 9.60547 16.6133 9.625 16.75C9.625 17.082 9.85938 17.375 10.25 17.375H17.7305C18.1211 17.375 18.3555 17.082 18.375 16.75C18.375 16.6133 18.3164 16.457 18.1992 16.3398Z" fill="#EC6060"/>
</svg>