<svg width="131" height="22" viewBox="0 0 131 22" fill="none" xmlns="http://www.w3.org/2000/svg">
<path d="M0 11C0 4.92487 4.92487 0 11 0H120C126.075 0 131 4.92487 131 11V11C131 17.0751 126.075 22 120 22H11C4.92487 22 0 17.0751 0 11V11Z" fill="#EC6060"/>
<path d="M10.375 16.25C11.0586 16.25 11.6055 15.7031 11.6055 15H9.125C9.125 15.7031 9.67188 16.25 10.375 16.25ZM14.5742 13.3398C14.2031 12.9297 13.4805 12.3242 13.4805 10.3125C13.4805 8.80859 12.4258 7.59766 10.9805 7.28516V6.875C10.9805 6.54297 10.707 6.25 10.375 6.25C10.0234 6.25 9.75 6.54297 9.75 6.875V7.28516C8.30469 7.59766 7.25 8.80859 7.25 10.3125C7.25 12.3242 6.52734 12.9297 6.15625 13.3398C6.03906 13.457 5.98047 13.6133 6 13.75C6 14.082 6.23438 14.375 6.625 14.375H14.1055C14.4961 14.375 14.7305 14.082 14.75 13.75C14.75 13.6133 14.6914 13.457 14.5742 13.3398Z" fill="white"/>
<path d="M20.4844 8.03906H22.9766V15H24.1797V8.03906H26.6758V7H20.4844V8.03906ZM29.666 15.1211C30.9746 15.1211 31.9004 14.4766 32.166 13.5L31.0605 13.3008C30.8496 13.8672 30.3418 14.1562 29.6777 14.1562C28.6777 14.1562 28.0059 13.5078 27.9746 12.3516H32.2402V11.9375C32.2402 9.76953 30.9434 8.92188 29.584 8.92188C27.9121 8.92188 26.8105 10.1953 26.8105 12.0391C26.8105 13.9023 27.8965 15.1211 29.666 15.1211ZM27.9785 11.4766C28.0254 10.625 28.6426 9.88672 29.5918 9.88672C30.498 9.88672 31.0918 10.5586 31.0957 11.4766H27.9785ZM33.5361 15H34.7041V11.3008C34.7041 10.4922 35.2705 9.92969 35.9346 9.92969C36.583 9.92969 37.0322 10.3594 37.0322 11.0117V15H38.1963V11.1758C38.1963 10.4531 38.6377 9.92969 39.3994 9.92969C40.0166 9.92969 40.5244 10.2734 40.5244 11.0859V15H41.6924V10.9766C41.6924 9.60547 40.9268 8.92188 39.8408 8.92188C38.9775 8.92188 38.3291 9.33594 38.04 9.97656H37.9775C37.7158 9.32031 37.165 8.92188 36.3643 8.92188C35.5713 8.92188 34.9814 9.31641 34.7314 9.97656H34.6572V9H33.5361V15ZM43.2578 17.25H44.4258V14.0664H44.4961C44.707 14.4492 45.1367 15.1172 46.2305 15.1172C47.6836 15.1172 48.7383 13.9531 48.7383 12.0117C48.7383 10.0664 47.668 8.92188 46.2188 8.92188C45.1055 8.92188 44.7031 9.60156 44.4961 9.97266H44.3984V9H43.2578V17.25ZM44.4023 12C44.4023 10.7461 44.9492 9.91406 45.9688 9.91406C47.0273 9.91406 47.5586 10.8086 47.5586 12C47.5586 13.2031 47.0117 14.1211 45.9688 14.1211C44.9648 14.1211 44.4023 13.2617 44.4023 12ZM52.6328 15.1211C53.9414 15.1211 54.8672 14.4766 55.1328 13.5L54.0273 13.3008C53.8164 13.8672 53.3086 14.1562 52.6445 14.1562C51.6445 14.1562 50.9727 13.5078 50.9414 12.3516H55.207V11.9375C55.207 9.76953 53.9102 8.92188 52.5508 8.92188C50.8789 8.92188 49.7773 10.1953 49.7773 12.0391C49.7773 13.9023 50.8633 15.1211 52.6328 15.1211ZM50.9453 11.4766C50.9922 10.625 51.6094 9.88672 52.5586 9.88672C53.4648 9.88672 54.0586 10.5586 54.0625 11.4766H50.9453ZM56.5029 15H57.6709V11.3359C57.6709 10.5508 58.2764 9.98437 59.1045 9.98437C59.3467 9.98437 59.6201 10.0273 59.7139 10.0547V8.9375C59.5967 8.92188 59.3662 8.91016 59.2178 8.91016C58.5146 8.91016 57.9131 9.30859 57.6943 9.95312H57.6318V9H56.5029V15ZM62.417 15.1328C63.4092 15.1328 63.9678 14.6289 64.1904 14.1797H64.2373V15H65.3779V11.0156C65.3779 9.26953 64.0029 8.92188 63.0498 8.92188C61.9639 8.92188 60.9639 9.35937 60.5732 10.4531L61.6709 10.7031C61.8428 10.2773 62.2803 9.86719 63.0654 9.86719C63.8193 9.86719 64.2061 10.2617 64.2061 10.9414V10.9687C64.2061 11.3945 63.7686 11.3867 62.6904 11.5117C61.5537 11.6445 60.3896 11.9414 60.3896 13.3047C60.3896 14.4844 61.2764 15.1328 62.417 15.1328ZM62.6709 14.1953C62.0107 14.1953 61.5342 13.8984 61.5342 13.3203C61.5342 12.6953 62.0889 12.4727 62.7646 12.3828C63.1436 12.332 64.042 12.2305 64.21 12.0625V12.8359C64.21 13.5469 63.6436 14.1953 62.6709 14.1953ZM69.7344 9H68.5039V7.5625H67.3359V9H66.457V9.9375H67.3359V13.4805C67.332 14.5703 68.1641 15.0977 69.0859 15.0781C69.457 15.0742 69.707 15.0039 69.8438 14.9531L69.6328 13.9883C69.5547 14.0039 69.4102 14.0391 69.2227 14.0391C68.8438 14.0391 68.5039 13.9141 68.5039 13.2383V9.9375H69.7344V9ZM74.8271 12.5117C74.8311 13.5312 74.0732 14.0156 73.417 14.0156C72.6943 14.0156 72.1943 13.4922 72.1943 12.6758V9H71.0264V12.8164C71.0264 14.3047 71.8428 15.0781 72.9951 15.0781C73.8975 15.0781 74.5107 14.6016 74.7881 13.9609H74.8506V15H75.999V9H74.8271V12.5117ZM77.5684 15H78.7363V11.3359C78.7363 10.5508 79.3418 9.98437 80.1699 9.98437C80.4121 9.98437 80.6855 10.0273 80.7793 10.0547V8.9375C80.6621 8.92188 80.4316 8.91016 80.2832 8.91016C79.5801 8.91016 78.9785 9.30859 78.7598 9.95312H78.6973V9H77.5684V15ZM84.1611 15.1211C85.4697 15.1211 86.3955 14.4766 86.6611 13.5L85.5557 13.3008C85.3447 13.8672 84.8369 14.1562 84.1729 14.1562C83.1729 14.1562 82.501 13.5078 82.4697 12.3516H86.7354V11.9375C86.7354 9.76953 85.4385 8.92188 84.0791 8.92188C82.4072 8.92188 81.3057 10.1953 81.3057 12.0391C81.3057 13.9023 82.3916 15.1211 84.1611 15.1211ZM82.4736 11.4766C82.5205 10.625 83.1377 9.88672 84.0869 9.88672C84.9932 9.88672 85.5869 10.5586 85.5908 11.4766H82.4736ZM90.9424 15H92.1104V9H90.9424V15ZM91.5322 8.07422C91.9346 8.07422 92.2705 7.76172 92.2705 7.37891C92.2705 6.99609 91.9346 6.67969 91.5322 6.67969C91.126 6.67969 90.7939 6.99609 90.7939 7.37891C90.7939 7.76172 91.126 8.07422 91.5322 8.07422ZM98.1777 10.4648C97.9355 9.53125 97.2051 8.92188 95.9082 8.92188C94.5527 8.92188 93.5918 9.63672 93.5918 10.6992C93.5918 11.5508 94.1074 12.1172 95.2324 12.3672L96.248 12.5898C96.8262 12.7187 97.0957 12.9766 97.0957 13.3516C97.0957 13.8164 96.5996 14.1797 95.834 14.1797C95.1348 14.1797 94.6855 13.8789 94.5449 13.2891L93.416 13.4609C93.6113 14.5234 94.4941 15.1211 95.8418 15.1211C97.291 15.1211 98.2949 14.3516 98.2949 13.2656C98.2949 12.418 97.7559 11.8945 96.6543 11.6406L95.7012 11.4219C95.041 11.2656 94.7559 11.043 94.7598 10.6367C94.7559 10.1758 95.2559 9.84766 95.9199 9.84766C96.6465 9.84766 96.9824 10.25 97.1191 10.6523L98.1777 10.4648ZM103.658 11.4375C103.658 10.4805 104.264 9.93359 105.096 9.93359C105.9 9.93359 106.381 10.4453 106.381 11.3242V15H107.549V11.1836C107.549 9.6875 106.729 8.92188 105.494 8.92188C104.561 8.92188 103.998 9.32812 103.717 9.97656H103.643V7H102.49V15H103.658V11.4375ZM109.107 15H110.275V9H109.107V15ZM109.697 8.07422C110.1 8.07422 110.436 7.76172 110.436 7.37891C110.436 6.99609 110.1 6.67969 109.697 6.67969C109.291 6.67969 108.959 6.99609 108.959 7.37891C108.959 7.76172 109.291 8.07422 109.697 8.07422ZM114.362 17.375C115.89 17.375 117.069 16.6758 117.069 15.1328V9H115.925V9.97266H115.839C115.632 9.60156 115.218 8.92188 114.101 8.92188C112.651 8.92188 111.585 10.0664 111.585 11.9766C111.585 13.8906 112.675 14.9102 114.093 14.9102C115.194 14.9102 115.62 14.2891 115.831 13.9062H115.905V15.0859C115.905 16.0273 115.261 16.4336 114.374 16.4336C113.401 16.4336 113.022 15.9453 112.815 15.6016L111.812 16.0156C112.128 16.75 112.929 17.375 114.362 17.375ZM114.351 13.9414C113.308 13.9414 112.765 13.1406 112.765 11.9609C112.765 10.8086 113.296 9.91406 114.351 9.91406C115.37 9.91406 115.917 10.7461 115.917 11.9609C115.917 13.1992 115.358 13.9414 114.351 13.9414ZM119.804 11.4375C119.804 10.4805 120.409 9.93359 121.241 9.93359C122.046 9.93359 122.526 10.4453 122.526 11.3242V15H123.694V11.1836C123.694 9.6875 122.874 8.92188 121.64 8.92188C120.706 8.92188 120.144 9.32812 119.862 9.97656H119.788V7H118.636V15H119.804V11.4375Z" fill="white"/>
</svg>