<svg width="32" height="32" viewBox="0 0 32 32" fill="none" xmlns="http://www.w3.org/2000/svg">
<path d="M10.9631 13.4253C12.1513 12.0211 13.5555 10.7249 15.1217 9.59072C21.7647 4.78403 28.8937 4.89205 31.054 9.86076C33.2143 14.8295 29.5418 22.7146 22.8448 27.5213C16.85 31.8419 10.5311 32.22 7.72266 28.6014C10.423 30.9778 15.5538 30.4377 20.3605 26.9272C26.1933 22.6606 29.4338 15.6936 27.5435 11.319C25.6532 6.94434 19.3883 6.83633 13.5555 11.1029C12.6374 11.859 11.7732 12.6152 10.9631 13.4253Z" fill="#BBC2CD"/>
<path d="M13.1774 13.5337C17.552 10.3472 22.2507 10.4552 23.6549 13.6957C25.0591 16.9362 22.6287 22.1749 18.2541 25.3614C14.6356 28.0078 10.801 28.3858 8.80273 26.6035C10.855 29.3039 15.6617 29.0339 20.0903 25.7934C25.0591 22.1749 27.8134 16.2341 26.1932 12.5615C24.573 8.88902 19.2802 8.781 14.3115 12.3455C13.1234 13.2096 12.0972 14.1818 11.1791 15.2079C11.8272 14.6138 12.4753 14.0198 13.1774 13.5337Z" fill="#BBC2CD"/>
<path d="M21.7101 17.6384C20.5219 19.0426 19.1177 20.3388 17.5515 21.4729C10.9086 26.2796 3.77954 26.1716 1.61923 21.2029C-0.541076 16.2342 3.13145 8.34904 9.8284 3.54236C15.8233 -0.778261 22.1422 -1.15631 24.9506 2.4622C22.2502 0.0858627 17.1194 0.62594 12.3128 4.13644C6.42592 8.34904 3.18546 15.316 5.07573 19.6907C6.966 24.0653 13.2309 24.1733 19.0637 19.9067C20.0359 19.2046 20.9 18.4485 21.7101 17.6384Z" fill="#BBC2CD"/>
<path d="M19.4963 17.5302C15.1217 20.7166 10.423 20.6086 9.01885 17.3682C7.61465 14.1277 10.045 8.88895 14.4196 5.70249C18.0381 3.11012 21.8727 2.67806 23.871 4.46031C21.8187 1.75993 17.012 2.02997 12.5834 5.27043C7.56064 8.88895 4.86025 14.8298 6.42648 18.5563C7.9927 22.2829 13.3395 22.3369 18.3082 18.7724C19.4963 17.9082 20.5225 16.9361 21.4406 15.9099C20.8465 16.45 20.1984 17.0441 19.4963 17.5302Z" fill="#BBC2CD"/>
</svg>
