<svg width="36" height="36" viewBox="0 0 36 36" fill="none" xmlns="http://www.w3.org/2000/svg">
<path d="M20.0469 26.9062C20.5156 26.4375 20.4688 25.7344 20.0469 25.2656L14.375 19.875H27.875C28.4844 19.875 29 19.4062 29 18.75V17.25C29 16.6406 28.4844 16.125 27.875 16.125H14.375L20.0469 10.7812C20.4688 10.3125 20.5156 9.60938 20.0469 9.14062L19.0156 8.10938C18.5938 7.6875 17.8438 7.6875 17.4219 8.10938L8.32812 17.25C7.85938 17.6719 7.85938 18.375 8.32812 18.7969L17.4219 27.9375C17.8438 28.3594 18.5469 28.3594 19.0156 27.9375L20.0469 26.9062Z" fill="#9DA9B5"/>
</svg>
