<svg width="32" height="32" viewBox="0 0 32 32" fill="none" xmlns="http://www.w3.org/2000/svg">
<path d="M11.5032 1.63426C10.5863 3.00769 11.0018 3.8474 11.5289 4.9111C12.0828 6.02731 12.7702 7.41741 11.5019 9.31441C11.3788 9.49999 11.1762 9.59983 10.9698 9.59983C10.8466 9.59983 10.7222 9.56527 10.6132 9.49231C10.3196 9.29647 10.2388 8.89968 10.4363 8.60525C11.2924 7.32205 10.9099 6.54907 10.3806 5.47978L10.3798 5.47817C9.81304 4.33509 9.10775 2.91169 10.4363 0.92511C10.6337 0.630745 11.0338 0.552623 11.325 0.747207C11.6186 0.94305 11.6994 1.33984 11.5032 1.63426Z" fill="#BBC2CD"/>
<path d="M16.611 1.63426C15.6942 3.00769 16.1097 3.8474 16.638 4.9111C17.192 6.02731 17.8793 7.41741 16.611 9.31441C16.4866 9.49999 16.284 9.59983 16.0776 9.59983C15.9545 9.59983 15.8313 9.56527 15.7224 9.49231C15.4287 9.29647 15.3479 8.89968 15.5441 8.60525C16.4003 7.32331 16.0177 6.55033 15.4885 5.48104L15.4869 5.47781C14.9215 4.335 14.2175 2.91206 15.5441 0.92511C15.7403 0.630745 16.1417 0.552623 16.4328 0.747207C16.7265 0.94305 16.8072 1.33984 16.611 1.63426Z" fill="#BBC2CD"/>
<path d="M21.7456 4.9111C21.2172 3.8474 20.8018 3.00769 21.7186 1.63426C21.9148 1.33984 21.834 0.94305 21.5404 0.747207C21.2493 0.552623 20.8479 0.630745 20.6517 0.92511C19.3251 2.91206 20.0291 4.335 20.5945 5.4778L20.5961 5.48104C21.1253 6.55033 21.5079 7.32331 20.6517 8.60525C20.4555 8.89968 20.5363 9.29647 20.8299 9.49231C20.9389 9.56527 21.062 9.59983 21.1851 9.59983C21.3929 9.59983 21.5955 9.49999 21.7186 9.31441C22.9869 7.41741 22.2996 6.02731 21.7456 4.9111Z" fill="#BBC2CD"/>
<path d="M6.40835 13.4399C6.05442 13.4399 5.76714 13.7267 5.76714 14.08V25.6002C5.76714 25.9535 6.05442 26.2402 6.40835 26.2402C6.76229 26.2402 7.04956 25.9535 7.04956 25.6002V14.08C7.04956 13.7267 6.76229 13.4399 6.40835 13.4399Z" fill="#BBC2CD"/>
<path d="M9.61434 14.08C9.61434 13.7267 9.90161 13.4399 10.2555 13.4399C10.6095 13.4399 10.8968 13.7267 10.8968 14.08V25.6002C10.8968 25.9535 10.6095 26.2402 10.2555 26.2402C9.90161 26.2402 9.61434 25.9535 9.61434 25.6002V14.08Z" fill="#BBC2CD"/>
<path d="M14.1026 13.4399C13.7487 13.4399 13.4614 13.7267 13.4614 14.08V25.6002C13.4614 25.9535 13.7487 26.2402 14.1026 26.2402C14.4565 26.2402 14.7438 25.9535 14.7438 25.6002V14.08C14.7438 13.7267 14.4565 13.4399 14.1026 13.4399Z" fill="#BBC2CD"/>
<path d="M17.3086 14.08C17.3086 13.7267 17.5959 13.4399 17.9498 13.4399C18.3037 13.4399 18.591 13.7267 18.591 14.08V25.6002C18.591 25.9535 18.3037 26.2402 17.9498 26.2402C17.5959 26.2402 17.3086 25.9535 17.3086 25.6002V14.08Z" fill="#BBC2CD"/>
<path d="M21.797 13.4399C21.4431 13.4399 21.1558 13.7267 21.1558 14.08V25.6002C21.1558 25.9535 21.4431 26.2402 21.797 26.2402C22.1509 26.2402 22.4382 25.9535 22.4382 25.6002V14.08C22.4382 13.7267 22.1509 13.4399 21.797 13.4399Z" fill="#BBC2CD"/>
<path d="M25.0028 14.08C25.0028 13.7267 25.2901 13.4399 25.644 13.4399C25.998 13.4399 26.2852 13.7267 26.2852 14.08V25.6002C26.2852 25.9535 25.998 26.2402 25.644 26.2402C25.2901 26.2402 25.0028 25.9535 25.0028 25.6002V14.08Z" fill="#BBC2CD"/>
<path fill-rule="evenodd" clip-rule="evenodd" d="M5.12602 10.8798H26.9264C28.6948 10.8798 30.1323 12.316 30.1323 14.0799V25.6001C30.1323 27.3639 28.6948 28.8001 26.9264 28.8001H25.0028V30.7203C25.0028 31.0736 24.7156 31.3604 24.3616 31.3604C24.0077 31.3604 23.7204 31.0736 23.7204 30.7203V28.8001H8.33196V30.7203C8.33196 31.0736 8.04469 31.3604 7.69075 31.3604C7.33682 31.3604 7.04954 31.0736 7.04954 30.7203V28.8001H5.12602C3.35766 28.8001 1.9201 27.3639 1.9201 25.6001V14.0799C1.9201 12.316 3.3576 10.8798 5.12602 10.8798ZM26.9264 27.5202C27.987 27.5202 28.85 26.6588 28.85 25.6002V14.0799C28.85 13.0213 27.987 12.1599 26.9264 12.1599H5.12602C4.06547 12.1599 3.20245 13.0213 3.20245 14.0799V25.6002C3.20245 26.6588 4.06547 27.5202 5.12602 27.5202H26.9264Z" fill="#BBC2CD"/>
<path fill-rule="evenodd" clip-rule="evenodd" d="M10.3806 5.47978L10.3798 5.47817C9.81304 4.33509 9.10775 2.91169 10.4363 0.92511C10.6337 0.630745 11.0338 0.552623 11.325 0.747207C11.6186 0.94305 11.6994 1.33984 11.5032 1.63426C10.5863 3.00769 11.0018 3.8474 11.5289 4.9111C12.0828 6.02731 12.7702 7.41741 11.5019 9.31441C11.3788 9.49999 11.1762 9.59983 10.9698 9.59983C10.8466 9.59983 10.7222 9.56527 10.6132 9.49231C10.3196 9.29647 10.2388 8.89968 10.4363 8.60525C11.2924 7.32205 10.9099 6.54907 10.3806 5.47978ZM10.1702 8.4275C10.5662 7.8339 10.6545 7.3943 10.61 6.99805C10.5627 6.57724 10.3648 6.16919 10.0938 5.62173L10.0851 5.60419C9.80613 5.04157 9.46648 4.35664 9.37918 3.55249C9.28931 2.72474 9.46768 1.79783 10.1703 0.747223L10.1705 0.746843C10.466 0.306344 11.0643 0.188287 11.5025 0.480984C11.9423 0.774298 12.0642 1.36942 11.7695 1.81172C11.3433 2.45004 11.2472 2.92978 11.2927 3.35473C11.3407 3.80208 11.5462 4.22542 11.8155 4.76884M11.8155 4.76884L11.8221 4.78213C12.095 5.3319 12.4276 6.002 12.5167 6.78371C12.6084 7.58794 12.4414 8.48491 11.7679 9.49226C11.5829 9.77044 11.2784 9.91983 10.9698 9.91983C10.7868 9.91983 10.5999 9.86839 10.4354 9.75838C9.99598 9.46509 9.87382 8.86996 10.1702 8.4275M16.9246 4.76884L16.9312 4.78213C17.2041 5.3319 17.5367 6.002 17.6258 6.78371C17.7175 7.58794 17.5506 8.48491 16.8771 9.49226L16.8768 9.49261C16.6909 9.76995 16.3869 9.91983 16.0776 9.91983C15.894 9.91983 15.7086 9.86807 15.5448 9.75853C15.105 9.46522 14.9831 8.8701 15.2778 8.4278L15.278 8.42753C15.6741 7.83452 15.7624 7.39525 15.7178 6.99916C15.6705 6.57851 15.4726 6.17046 15.2017 5.62299L15.2009 5.62149L15.1918 5.60292C14.9135 5.04057 14.5748 4.35609 14.4879 3.55245C14.3983 2.725 14.5764 1.7983 15.2779 0.747631C15.5725 0.305607 16.1729 0.188593 16.6106 0.481164C17.0502 0.77454 17.172 1.36951 16.8773 1.81172C16.4512 2.45004 16.3551 2.92975 16.4007 3.35464C16.4488 3.80195 16.6547 4.22542 16.9246 4.76884ZM16.4328 0.747207C16.1417 0.552623 15.7403 0.630745 15.5441 0.92511C14.2175 2.91206 14.9215 4.335 15.4869 5.47781L15.4885 5.48104C16.0177 6.55033 16.4003 7.32331 15.5441 8.60525C15.3479 8.89968 15.4287 9.29647 15.7224 9.49231C15.8313 9.56527 15.9545 9.59983 16.0776 9.59983C16.284 9.59983 16.4866 9.49999 16.611 9.31441C17.8793 7.41741 17.192 6.02731 16.638 4.9111C16.1097 3.8474 15.6942 3.00769 16.611 1.63426C16.8072 1.33984 16.7265 0.94305 16.4328 0.747207ZM21.9848 1.81194C21.5586 2.45026 21.4627 2.92975 21.5083 3.35464C21.5564 3.80195 21.7623 4.22533 22.0322 4.76876L22.0388 4.78213C22.3117 5.3319 22.6443 6.002 22.7334 6.78371C22.8251 7.58794 22.6581 8.48491 21.9847 9.49226C21.7994 9.77075 21.4947 9.91983 21.1851 9.91983C21.0016 9.91983 20.8162 9.86807 20.6524 9.75853C20.2126 9.46522 20.0907 8.8701 20.3854 8.4278L20.3856 8.42753C20.7817 7.83452 20.87 7.39525 20.8254 6.99916C20.7781 6.57851 20.5802 6.17046 20.3093 5.62299L20.2994 5.60293C20.0211 5.04058 19.6824 4.3561 19.5954 3.55244C19.5059 2.725 19.684 1.7983 20.3854 0.747631C20.6801 0.305607 21.2805 0.188593 21.7182 0.481164C22.1578 0.77454 22.2795 1.36973 21.9848 1.81194ZM21.5404 0.747207C21.2493 0.552623 20.8479 0.630745 20.6517 0.92511C19.3251 2.91206 20.0291 4.335 20.5945 5.4778L20.5961 5.48104C21.1253 6.55033 21.5079 7.32331 20.6517 8.60525C20.4555 8.89968 20.5363 9.29647 20.8299 9.49231C20.9389 9.56527 21.062 9.59983 21.1851 9.59983C21.3929 9.59983 21.5955 9.49999 21.7186 9.31441C22.9869 7.41741 22.2996 6.02731 21.7456 4.9111C21.2172 3.8474 20.8018 3.00769 21.7186 1.63426C21.9148 1.33984 21.834 0.94305 21.5404 0.747207ZM5.12602 10.5598H26.9264C28.871 10.5598 30.4523 12.1388 30.4523 14.0799V25.6001C30.4523 27.5411 28.8711 29.1201 26.9264 29.1201H25.3228V30.7203C25.3228 31.2509 24.8918 31.6804 24.3616 31.6804C23.8315 31.6804 23.4004 31.2509 23.4004 30.7203V29.1201H8.65196V30.7203C8.65196 31.2509 8.22086 31.6804 7.69075 31.6804C7.16064 31.6804 6.72954 31.2509 6.72954 30.7203V29.1201H5.12602C3.1814 29.1201 1.6001 27.5412 1.6001 25.6001V14.0799C1.6001 12.1388 3.18134 10.5598 5.12602 10.5598ZM26.9264 27.2002C27.8108 27.2002 28.53 26.4815 28.53 25.6002V14.0799C28.53 13.1986 27.8108 12.4799 26.9264 12.4799H5.12602C4.24165 12.4799 3.52245 13.1986 3.52245 14.0799V25.6002C3.52245 26.4815 4.24165 27.2002 5.12602 27.2002H26.9264ZM5.44714 14.08C5.44714 13.5494 5.87824 13.1199 6.40835 13.1199C6.93847 13.1199 7.36956 13.5494 7.36956 14.08V25.6002C7.36956 26.1308 6.93847 26.5602 6.40835 26.5602C5.87824 26.5602 5.44714 26.1308 5.44714 25.6002V14.08ZM9.29434 14.08C9.29434 13.5494 9.72544 13.1199 10.2555 13.1199C10.7857 13.1199 11.2168 13.5494 11.2168 14.08V25.6002C11.2168 26.1308 10.7857 26.5602 10.2555 26.5602C9.72544 26.5602 9.29434 26.1308 9.29434 25.6002V14.08ZM13.1414 14.08C13.1414 13.5494 13.5725 13.1199 14.1026 13.1199C14.6327 13.1199 15.0638 13.5494 15.0638 14.08V25.6002C15.0638 26.1308 14.6327 26.5602 14.1026 26.5602C13.5725 26.5602 13.1414 26.1308 13.1414 25.6002V14.08ZM16.9886 14.08C16.9886 13.5494 17.4197 13.1199 17.9498 13.1199C18.4799 13.1199 18.911 13.5494 18.911 14.08V25.6002C18.911 26.1308 18.4799 26.5602 17.9498 26.5602C17.4197 26.5602 16.9886 26.1308 16.9886 25.6002V14.08ZM20.8358 14.08C20.8358 13.5494 21.2669 13.1199 21.797 13.1199C22.3271 13.1199 22.7582 13.5494 22.7582 14.08V25.6002C22.7582 26.1308 22.3271 26.5602 21.797 26.5602C21.2669 26.5602 20.8358 26.1308 20.8358 25.6002V14.08ZM24.6828 14.08C24.6828 13.5494 25.1139 13.1199 25.644 13.1199C26.1741 13.1199 26.6052 13.5494 26.6052 14.08V25.6002C26.6052 26.1308 26.1741 26.5602 25.644 26.5602C25.1139 26.5602 24.6828 26.1308 24.6828 25.6002V14.08ZM5.76714 14.08C5.76714 13.7267 6.05442 13.4399 6.40835 13.4399C6.76229 13.4399 7.04956 13.7267 7.04956 14.08V25.6002C7.04956 25.9535 6.76229 26.2402 6.40835 26.2402C6.05442 26.2402 5.76714 25.9535 5.76714 25.6002V14.08ZM9.61434 14.08C9.61434 13.7267 9.90161 13.4399 10.2555 13.4399C10.6095 13.4399 10.8968 13.7267 10.8968 14.08V25.6002C10.8968 25.9535 10.6095 26.2402 10.2555 26.2402C9.90161 26.2402 9.61434 25.9535 9.61434 25.6002V14.08ZM13.4614 14.08C13.4614 13.7267 13.7487 13.4399 14.1026 13.4399C14.4565 13.4399 14.7438 13.7267 14.7438 14.08V25.6002C14.7438 25.9535 14.4565 26.2402 14.1026 26.2402C13.7487 26.2402 13.4614 25.9535 13.4614 25.6002V14.08ZM17.3086 14.08C17.3086 13.7267 17.5959 13.4399 17.9498 13.4399C18.3037 13.4399 18.591 13.7267 18.591 14.08V25.6002C18.591 25.9535 18.3037 26.2402 17.9498 26.2402C17.5959 26.2402 17.3086 25.9535 17.3086 25.6002V14.08ZM21.1558 14.08C21.1558 13.7267 21.4431 13.4399 21.797 13.4399C22.1509 13.4399 22.4382 13.7267 22.4382 14.08V25.6002C22.4382 25.9535 22.1509 26.2402 21.797 26.2402C21.4431 26.2402 21.1558 25.9535 21.1558 25.6002V14.08ZM25.0028 14.08C25.0028 13.7267 25.2901 13.4399 25.644 13.4399C25.998 13.4399 26.2852 13.7267 26.2852 14.08V25.6002C26.2852 25.9535 25.998 26.2402 25.644 26.2402C25.2901 26.2402 25.0028 25.9535 25.0028 25.6002V14.08ZM26.9264 10.8798H5.12602C3.3576 10.8798 1.9201 12.316 1.9201 14.0799V25.6001C1.9201 27.3639 3.35766 28.8001 5.12602 28.8001H7.04954V30.7203C7.04954 31.0736 7.33682 31.3604 7.69075 31.3604C8.04469 31.3604 8.33196 31.0736 8.33196 30.7203V28.8001H23.7204V30.7203C23.7204 31.0736 24.0077 31.3604 24.3616 31.3604C24.7156 31.3604 25.0028 31.0736 25.0028 30.7203V28.8001H26.9264C28.6948 28.8001 30.1323 27.3639 30.1323 25.6001V14.0799C30.1323 12.316 28.6948 10.8798 26.9264 10.8798ZM28.85 25.6002C28.85 26.6588 27.987 27.5202 26.9264 27.5202H5.12602C4.06547 27.5202 3.20245 26.6588 3.20245 25.6002V14.0799C3.20245 13.0213 4.06547 12.1599 5.12602 12.1599H26.9264C27.987 12.1599 28.85 13.0213 28.85 14.0799V25.6002Z" fill="#BBC2CD"/>
</svg>
