<svg width="32" height="32" viewBox="0 0 32 32" fill="none" xmlns="http://www.w3.org/2000/svg">
<path d="M31.3174 20.057L31.1607 19.5755L28.1704 18.8308C28.1888 18.561 28.1972 18.2902 28.1972 18.0168C28.1972 14.5498 26.6997 11.2419 24.0889 8.94119L22.8706 10.3081C25.0888 12.2624 26.3604 15.0723 26.3604 18.0168C26.3604 18.1379 26.3587 18.2586 26.3537 18.3785L24.4121 17.895C24.3846 15.9997 23.7063 14.1591 22.4935 12.6978L21.0767 13.8608C21.9191 14.875 22.4316 16.1256 22.5505 17.4315L20.5716 16.939C20.3579 16.0416 19.882 15.2433 19.2293 14.629L22.238 4.1915L21.8978 3.81581C20.4393 2.20411 18.2915 1.2793 16.0058 1.2793C13.7202 1.2793 11.5731 2.20411 10.1146 3.81581L9.77412 4.1915L10.6223 7.13462C9.95667 7.46153 9.31737 7.85125 8.71133 8.30236C6.66329 9.82508 5.11912 11.9952 4.36306 14.4118L6.11706 14.9543C6.95159 12.285 8.78407 10.1558 11.136 8.91668L11.6906 10.842C10.968 11.2719 10.3069 11.8106 9.73512 12.447L11.1046 13.664C11.4401 13.2907 11.815 12.9602 12.2196 12.6776L12.7823 14.6297C12.1332 15.241 11.6587 16.0342 11.4439 16.9262L9.46308 17.4139C9.53103 16.6597 9.7289 15.9326 10.054 15.2445L8.39097 14.4684C7.88542 15.5398 7.61912 16.6845 7.5995 17.8724L0.847409 19.5345L0.689259 20.0156C0.0109635 22.0765 0.275583 24.3885 1.41493 26.3592C2.55427 28.3294 4.43029 29.7201 6.56232 30.1743L7.05998 30.2802L9.20612 28.0794C11.2051 29.4163 13.569 30.1396 16.0058 30.1396C16.8471 30.1396 17.6871 30.0544 18.5032 29.8852L18.1285 28.097C17.4354 28.2407 16.7217 28.313 16.0058 28.313C14.0037 28.313 12.1148 27.7384 10.5132 26.738L11.903 25.3126C13.1173 25.9909 14.5169 26.3775 16.0058 26.3775V24.551C15.0177 24.551 14.0803 24.333 13.239 23.9421L14.6583 22.4858C15.0849 22.6135 15.5374 22.6823 16.0058 22.6823C16.47 22.6823 16.9181 22.6154 17.3418 22.4893L24.9187 30.304L25.4163 30.1993C27.5495 29.7513 29.4299 28.3654 30.5742 26.3982C31.7191 24.431 31.9897 22.1198 31.3174 20.057ZM19.0207 21.5888C19.8454 20.8998 20.4295 19.934 20.6259 18.8355L29.7017 21.0951C30.0328 22.5417 29.7806 24.1151 28.9846 25.4836C28.1881 26.8519 26.9428 27.8534 25.5161 28.2888L19.0207 21.5888ZM11.8272 4.68662C12.9206 3.6771 14.4164 3.10585 16.0058 3.10585C17.5959 3.10585 19.0918 3.6771 20.1845 4.68662L17.6069 13.6307C17.1074 13.4491 16.5678 13.3504 16.0058 13.3504C15.4438 13.3504 14.9043 13.4491 14.4047 13.6307L11.8272 4.68662ZM6.46805 28.2631C5.04255 27.8241 3.79961 26.8189 3.00743 25.4484C2.21525 24.078 1.96666 22.5041 2.3021 21.0585L11.3846 18.8229C11.5779 19.9224 12.159 20.89 12.9826 21.5809L6.46805 28.2631ZM13.1508 18.0168C13.1508 16.4508 14.4317 15.177 16.0058 15.177C17.5806 15.177 18.8614 16.4508 18.8614 18.0168C18.8614 19.5821 17.5806 20.8557 16.0058 20.8557C14.4317 20.856 13.1508 19.5821 13.1508 18.0168Z" fill="#BBC2CD"/>
</svg>
