<svg width="18" height="18" viewBox="0 0 18 18" fill="none" xmlns="http://www.w3.org/2000/svg">
<path d="M16.7534 0.76546C16.1059 0.76546 1.80894 0.76546 1.24799 0.76546C0.981469 0.76546 0.76546 0.981469 0.76546 1.24799V16.7534C0.76546 17.0199 0.981469 17.2359 1.24799 17.2359H16.7534C17.0199 17.2359 17.2359 17.0199 17.2359 16.7534V1.24799C17.2359 0.981469 17.0199 0.76546 16.7534 0.76546ZM1.73053 5.30819L5.30819 1.73053H7.80354L1.73053 7.80354V5.30819ZM3.94327 1.73053L1.73053 3.94327V1.73053H3.94327ZM16.2709 16.2709H1.73053V9.16846L9.16846 1.73053H16.2709V16.2709Z" fill="#062B45"/>
<path fill-rule="evenodd" clip-rule="evenodd" d="M16.7534 0.720703C17.0447 0.720703 17.2807 0.956751 17.2807 1.24799V16.7534C17.2807 17.0447 17.0447 17.2807 16.7534 17.2807H1.24799C0.956751 17.2807 0.720703 17.0447 0.720703 16.7534V1.24799C0.720703 0.956751 0.956751 0.720703 1.24799 0.720703H16.7534ZM1.77528 5.32673V7.69549L7.69549 1.77528H5.32673L1.77528 5.32673ZM5.30819 1.73053L1.73053 5.30819V7.80354L7.80354 1.73053H5.30819ZM3.94327 1.73053H1.73053V3.94327L3.94327 1.73053ZM3.83522 1.77528H1.77528V3.83522L3.83522 1.77528ZM1.77528 16.2261H16.2261V1.77528H9.187L1.77528 9.187V16.2261ZM1.73053 9.16846L9.16846 1.73053H16.2709V16.2709H1.73053V9.16846ZM1.24799 0.76546H16.7534C17.0199 0.76546 17.2359 0.981469 17.2359 1.24799V16.7534C17.2359 17.0199 17.0199 17.2359 16.7534 17.2359H1.24799C0.981469 17.2359 0.76546 17.0199 0.76546 16.7534V1.24799C0.76546 0.981469 0.981469 0.76546 1.24799 0.76546Z" fill="#062B45"/>
</svg>
