<svg width="20" height="20" viewBox="0 0 20 20" fill="none" xmlns="http://www.w3.org/2000/svg">
<path d="M14.4296 7.61743C14.8551 7.61743 15.2 7.27254 15.2 6.84706C15.2 6.42158 14.8551 6.07669 14.4296 6.07669H12.8889V4.88262H14.4296C14.8551 4.88262 15.2 4.53772 15.2 4.11224C15.2 3.68677 14.8551 3.34187 14.4296 3.34187H12.8717C12.6972 1.59248 11.2168 0.221875 9.42222 0.221875C7.5107 0.221875 5.95556 1.77702 5.95556 3.68854V12.2638C5.20799 13.1084 4.8 14.1818 4.8 15.3211C4.8 17.8698 6.87353 19.9434 9.42222 19.9434C11.9709 19.9434 14.0444 17.8698 14.0444 15.3211C14.0444 14.353 13.748 13.4258 13.1872 12.6397C12.9402 12.2933 12.4592 12.2129 12.1127 12.4599C11.7663 12.707 11.6859 13.1881 11.933 13.5345C12.3063 14.0579 12.5037 14.6757 12.5037 15.3211C12.5037 17.0203 11.1214 18.4026 9.42222 18.4026C7.72309 18.4026 6.34074 17.0203 6.34074 15.3211C6.34074 14.4868 6.66907 13.7054 7.26526 13.1208C7.41302 12.9759 7.4963 12.7777 7.4963 12.5708V3.68854C7.4963 2.62659 8.36027 1.76262 9.42222 1.76262C10.4842 1.76262 11.3481 2.62659 11.3481 3.68854V9.54336C11.3481 9.96883 11.693 10.3137 12.1185 10.3137H14.4296C14.8551 10.3137 15.2 9.96883 15.2 9.54336C15.2 9.11788 14.8551 8.77299 14.4296 8.77299H12.8889V7.61743H14.4296Z" fill="#687D8F"/>
<path fill-rule="evenodd" clip-rule="evenodd" d="M12.0837 12.4192C12.4526 12.1562 12.9649 12.2418 13.2279 12.6106C13.7948 13.4053 14.0944 14.3426 14.0944 15.3211C14.0944 17.8974 11.9985 19.9934 9.42222 19.9934C6.84591 19.9934 4.75 17.8974 4.75 15.3211C4.75 14.176 5.15787 13.0965 5.90556 12.2449V3.68854C5.90556 1.74941 7.48309 0.171875 9.42222 0.171875C11.2273 0.171875 12.7189 1.53876 12.9166 3.29187H14.4296C14.8827 3.29187 15.25 3.65916 15.25 4.11224C15.25 4.56533 14.8827 4.93262 14.4296 4.93262H12.9389V6.02669H14.4296C14.8827 6.02669 15.25 6.39397 15.25 6.84706C15.25 7.30015 14.8827 7.66743 14.4296 7.66743H12.9389V8.72299H14.4296C14.8827 8.72299 15.25 9.09027 15.25 9.54336C15.25 9.99645 14.8827 10.3637 14.4296 10.3637H12.1185C11.6654 10.3637 11.2981 9.99645 11.2981 9.54336V3.68854C11.2981 2.6542 10.4566 1.81262 9.42222 1.81262C8.38788 1.81262 7.5463 2.6542 7.5463 3.68854V12.5708C7.5463 12.7912 7.45761 13.0022 7.30027 13.1565C6.71367 13.7317 6.39074 14.5002 6.39074 15.3211C6.39074 16.9926 7.75071 18.3526 9.42222 18.3526C11.0937 18.3526 12.4537 16.9926 12.4537 15.3211C12.4537 14.686 12.2596 14.0784 11.8923 13.5635C11.6291 13.1947 11.7148 12.6823 12.0837 12.4192ZM12.8717 3.34187H14.4296C14.8551 3.34187 15.2 3.68677 15.2 4.11224C15.2 4.53772 14.8551 4.88262 14.4296 4.88262H12.8889V6.07669H14.4296C14.8551 6.07669 15.2 6.42158 15.2 6.84706C15.2 7.27254 14.8551 7.61743 14.4296 7.61743H12.8889V8.77299H14.4296C14.8551 8.77299 15.2 9.11788 15.2 9.54336C15.2 9.96883 14.8551 10.3137 14.4296 10.3137H12.1185C11.693 10.3137 11.3481 9.96883 11.3481 9.54336V3.68854C11.3481 2.62659 10.4842 1.76262 9.42222 1.76262C8.36027 1.76262 7.4963 2.62659 7.4963 3.68854V12.5708C7.4963 12.7777 7.41302 12.9759 7.26526 13.1208C6.66907 13.7054 6.34074 14.4868 6.34074 15.3211C6.34074 17.0203 7.72309 18.4026 9.42222 18.4026C11.1214 18.4026 12.5037 17.0203 12.5037 15.3211C12.5037 14.6757 12.3063 14.0579 11.933 13.5345C11.6859 13.1881 11.7663 12.707 12.1127 12.4599C12.4592 12.2129 12.9402 12.2933 13.1872 12.6397C13.748 13.4258 14.0444 14.353 14.0444 15.3211C14.0444 17.8698 11.9709 19.9434 9.42222 19.9434C6.87353 19.9434 4.8 17.8698 4.8 15.3211C4.8 14.1818 5.20799 13.1084 5.95556 12.2638V3.68854C5.95556 1.77702 7.5107 0.221875 9.42222 0.221875C11.2168 0.221875 12.6972 1.59248 12.8717 3.34187Z" fill="#687D8F"/>
<path d="M9.4216 6.07539C8.99613 6.07539 8.65123 6.42029 8.65123 6.84576V13.9852C8.1907 14.2516 7.88086 14.7495 7.88086 15.3198C7.88086 16.1707 8.57069 16.8606 9.4216 16.8606C10.2725 16.8606 10.9623 16.1707 10.9623 15.3198C10.9623 14.7496 10.6525 14.2516 10.192 13.9852V6.84576C10.192 6.42029 9.84708 6.07539 9.4216 6.07539Z" fill="#5AAFE8"/>
</svg>
