<svg width="24" height="24" viewBox="0 0 24 24" fill="none" xmlns="http://www.w3.org/2000/svg">
<path fill-rule="evenodd" clip-rule="evenodd" d="M11.375 0.468749C11.375 0.209859 11.5848 0 11.8437 0C12.1026 0 12.3125 0.209859 12.3125 0.468749V3.44038C12.3125 3.69923 12.1026 3.90913 11.8437 3.90913C11.5848 3.90913 11.375 3.69923 11.375 3.44038V0.468749ZM19.0678 20.1239V13.4121C19.0678 11.4898 18.3143 9.67764 16.946 8.30936C15.5778 6.94113 13.7656 6.18757 11.8433 6.18757C9.92107 6.18757 8.10889 6.94108 6.74065 8.30936C5.37238 9.67764 4.61886 11.4898 4.61886 13.4121V20.1239C3.97428 20.2759 3.49288 20.8555 3.49288 21.5459V23.5312C3.49288 23.7901 3.70274 24 3.96163 24H19.725C19.9839 24 20.1938 23.7901 20.1938 23.5312V21.5459C20.1938 20.8556 19.7124 20.276 19.0678 20.1239ZM5.55636 13.4121C5.55636 9.94539 8.37673 7.12506 11.8434 7.12506C15.31 7.12506 18.1303 9.94539 18.1303 13.4121V20.0846H12.3121V16.3374C13.6186 16.114 14.6163 14.9741 14.6163 13.6049C14.6163 12.0759 13.3724 10.8319 11.8434 10.8319C10.3143 10.8319 9.07038 12.0759 9.07038 13.6049C9.07038 14.9741 10.0681 16.1139 11.3746 16.3374V20.0846H5.55636V13.4121ZM11.8434 15.4403C10.8313 15.4403 10.0079 14.617 10.0079 13.6049C10.0079 12.5928 10.8313 11.7694 11.8434 11.7694C12.8554 11.7694 13.6788 12.5928 13.6788 13.6049C13.6788 14.6169 12.8554 15.4403 11.8434 15.4403ZM19.2563 23.0625H4.43038V21.546C4.43038 21.2571 4.66541 21.0221 4.95425 21.0221H5.08761H18.5991H18.7324C19.0213 21.0221 19.2563 21.2571 19.2563 21.546V23.0625ZM10.4656 7.99672C10.7169 7.93569 10.9701 8.08995 11.0314 8.34134C11.0927 8.59273 10.9383 8.84627 10.687 8.90773L10.6713 8.91166C10.6344 8.92052 10.5975 8.92474 10.5611 8.92474C10.3495 8.92474 10.1575 8.78041 10.1058 8.56559C10.0452 8.31387 10.2001 8.06075 10.4518 8.00014L10.4656 7.99672ZM8.94984 8.62134C9.17217 8.48887 9.45998 8.56162 9.5925 8.784C9.72501 9.00637 9.65222 9.29405 9.42989 9.42666C8.60372 9.91912 7.95249 10.6609 7.59624 11.5153C7.52119 11.6953 7.34696 11.8038 7.1634 11.8038C7.10326 11.8038 7.04213 11.7921 6.98316 11.7675C6.74424 11.6679 6.63127 11.3934 6.73093 11.1545C7.16405 10.1157 7.95207 9.21609 8.94984 8.62134ZM5.00004 5.92563L2.7919 3.82442C2.60436 3.64592 2.30764 3.65328 2.12919 3.84087C1.95069 4.02842 1.95809 4.32513 2.14564 4.50359L4.35378 6.6048C4.44448 6.6911 4.56073 6.73394 4.67684 6.73394C4.80073 6.73394 4.92434 6.68514 5.01649 6.58835C5.19499 6.4008 5.18759 6.10408 5.00004 5.92563ZM20.8954 3.82437C21.0829 3.64592 21.3796 3.65328 21.5581 3.84082C21.7366 4.02837 21.7292 4.32513 21.5417 4.50354L19.3335 6.60475C19.2428 6.6911 19.1265 6.73394 19.0104 6.73394C18.8865 6.73394 18.7629 6.68514 18.6708 6.58835C18.4923 6.4008 18.4997 6.10408 18.6872 5.92563L20.8954 3.82437Z" fill="#5B6D83"/>
</svg>
