<svg width="48" height="32" viewBox="0 0 48 32" fill="none" xmlns="http://www.w3.org/2000/svg">
<path fill-rule="evenodd" clip-rule="evenodd" d="M0 3C0 1.34315 1.34315 0 3 0H45C46.6569 0 48 1.34315 48 3V29C48 30.6569 46.6569 32 45 32H3C1.34315 32 0 30.6569 0 29V3Z" fill="url(#paint0_linear)"/>
<path fill-rule="evenodd" clip-rule="evenodd" d="M0 3C0 1.34315 1.34315 0 3 0H45C46.6569 0 48 1.34315 48 3V29C48 30.6569 46.6569 32 45 32H3C1.34315 32 0 30.6569 0 29V3Z" fill="#E5E5E5" fill-opacity="0.01"/>
<path fill-rule="evenodd" clip-rule="evenodd" d="M9.73603 17.3576C9.39291 17.6696 8.94703 17.8056 8.24132 17.8056H7.94817V14.0795H8.24132C8.94703 14.0795 9.37539 14.2066 9.73603 14.5353C10.1138 14.8736 10.3409 15.3982 10.3409 15.9379C10.3409 16.4788 10.1138 17.0194 9.73603 17.3576ZM8.46025 13.125H6.85693V18.7594H8.45182C9.29988 18.7594 9.91235 18.5583 10.4497 18.1089C11.0886 17.5771 11.4663 16.7754 11.4663 15.9462C11.4663 14.2833 10.2317 13.125 8.46025 13.125Z" fill="#212D34"/>
<path fill-rule="evenodd" clip-rule="evenodd" d="M11.9685 18.7596H13.0608V13.125H11.9685V18.7596Z" fill="#212D34"/>
<path fill-rule="evenodd" clip-rule="evenodd" d="M15.7317 15.2884C15.0761 15.0444 14.8838 14.8835 14.8838 14.579C14.8838 14.2242 15.2267 13.9545 15.6975 13.9545C16.0246 13.9545 16.2937 14.0899 16.5782 14.4107L17.1498 13.6577C16.6801 13.2444 16.1183 13.0332 15.5043 13.0332C14.5134 13.0332 13.7577 13.7254 13.7577 14.6476C13.7577 15.4238 14.1095 15.8213 15.1354 16.1927C15.5631 16.3447 15.7808 16.4457 15.8905 16.5136C16.1087 16.657 16.218 16.8601 16.218 17.0968C16.218 17.5533 15.8574 17.8915 15.3699 17.8915C14.849 17.8915 14.4293 17.6292 14.1779 17.1399L13.4722 17.8236C13.9754 18.567 14.5798 18.8964 15.411 18.8964C16.546 18.8964 17.3423 18.1369 17.3423 17.0463C17.3423 16.1509 16.9741 15.7458 15.7317 15.2884Z" fill="#212D34"/>
<path fill-rule="evenodd" clip-rule="evenodd" d="M17.6873 15.9466C17.6873 17.6028 18.9797 18.8869 20.6429 18.8869C21.1131 18.8869 21.5159 18.794 22.0124 18.5586V17.2649C21.5758 17.7047 21.189 17.8821 20.6938 17.8821C19.5937 17.8821 18.8129 17.0795 18.8129 15.9383C18.8129 14.8567 19.6183 14.0033 20.6429 14.0033C21.1639 14.0033 21.5583 14.1903 22.0124 14.6372V13.3442C21.533 13.0995 21.1388 12.998 20.6687 12.998C19.0139 12.998 17.6873 14.3083 17.6873 15.9466Z" fill="#212D34"/>
<path fill-rule="evenodd" clip-rule="evenodd" d="M30.6729 16.9097L29.1797 13.125H27.9863L30.3626 18.9042H30.9504L33.3696 13.125H32.1856L30.6729 16.9097Z" fill="#212D34"/>
<path fill-rule="evenodd" clip-rule="evenodd" d="M33.8635 18.7596H36.9611V17.8057H34.955V16.2847H36.8874V15.3304H34.955V14.0798H36.9611V13.125H33.8635V18.7596Z" fill="#212D34"/>
<path fill-rule="evenodd" clip-rule="evenodd" d="M39.0942 15.7191H38.7751V14.0126H39.1115C39.7919 14.0126 40.1616 14.2993 40.1616 14.8477C40.1616 15.4141 39.7919 15.7191 39.0942 15.7191ZM41.2858 14.7886C41.2858 13.7337 40.5636 13.125 39.3041 13.125H37.6843V18.7596H38.7753V16.4961H38.9179L40.4297 18.7596H41.773L40.01 16.386C40.8328 16.2175 41.2858 15.6513 41.2858 14.7886Z" fill="#212D34"/>
<g filter="url(#filter0_i)">
<path fill-rule="evenodd" clip-rule="evenodd" d="M28.3268 15.9622C28.3268 17.6177 26.993 18.9597 25.3477 18.9597C23.7024 18.9597 22.3689 17.6177 22.3689 15.9622C22.3689 14.3067 23.7024 12.9648 25.3477 12.9648C26.993 12.9648 28.3268 14.3067 28.3268 15.9622Z" fill="url(#paint1_linear)"/>
</g>
<defs>
<filter id="filter0_i" x="22.3689" y="12.9648" width="5.95788" height="5.99488" filterUnits="userSpaceOnUse" color-interpolation-filters="sRGB">
<feFlood flood-opacity="0" result="BackgroundImageFix"/>
<feBlend mode="normal" in="SourceGraphic" in2="BackgroundImageFix" result="shape"/>
<feColorMatrix in="SourceAlpha" type="matrix" values="0 0 0 0 0 0 0 0 0 0 0 0 0 0 0 0 0 0 127 0" result="hardAlpha"/>
<feOffset dx="1" dy="1"/>
<feComposite in2="hardAlpha" operator="arithmetic" k2="-1" k3="1"/>
<feColorMatrix type="matrix" values="0 0 0 0 0.314068 0 0 0 0 0.00146228 0 0 0 0 0.00146228 0 0 0 0.5 0"/>
<feBlend mode="normal" in2="shape" result="effect1_innerShadow"/>
</filter>
<linearGradient id="paint0_linear" x1="-24" y1="16" x2="5.53846" y2="60.3077" gradientUnits="userSpaceOnUse">
<stop stop-color="#EDF1F3"/>
<stop offset="1" stop-color="#D3DADF"/>
</linearGradient>
<linearGradient id="paint1_linear" x1="28.997" y1="16.5352" x2="25.462" y2="12.3544" gradientUnits="userSpaceOnUse">
<stop stop-color="#FFA700"/>
<stop offset="1" stop-color="#E75A10"/>
</linearGradient>
</defs>
</svg>
