<svg width="18" height="18" viewBox="0 0 18 18" fill="none" xmlns="http://www.w3.org/2000/svg">
<path fill-rule="evenodd" clip-rule="evenodd" d="M16.2693 1.08008H1.73008C0.875193 1.08008 0.179688 1.77521 0.179688 2.62964V8.82791C0.179688 9.68234 0.875193 10.3775 1.73008 10.3775H16.2693C17.1242 10.3775 17.8197 9.68234 17.8197 8.82791V2.62964C17.8197 1.77521 17.1242 1.08008 16.2693 1.08008ZM16.7861 8.82791C16.7861 9.11272 16.5543 9.34443 16.2693 9.34443H1.73008C1.44512 9.34443 1.21328 9.11272 1.21328 8.82791V8.65573H16.7861V8.82791ZM16.7861 7.62269H1.21328V2.62964C1.21328 2.34483 1.44512 2.11312 1.73008 2.11312H16.2693C16.5543 2.11312 16.7861 2.34483 16.7861 2.62964V7.62269ZM15.408 4.00724C15.6934 4.00724 15.9248 3.77599 15.9248 3.49072C15.9248 3.20545 15.6934 2.9742 15.408 2.9742C15.1225 2.9742 14.8912 3.20545 14.8912 3.49072C14.8912 3.77599 15.1225 4.00724 15.408 4.00724ZM9.55094 11.066C9.83635 11.066 10.0677 11.2972 10.0677 11.5825C10.0677 12.3649 9.72682 12.7452 9.42414 13.0829C9.1825 13.3525 8.96523 13.5948 8.96523 13.9929C8.96523 14.3915 9.18257 14.6338 9.42426 14.9032C9.72691 15.2406 10.0677 15.6206 10.0677 16.4033C10.0677 16.6886 9.83635 16.9199 9.55094 16.9199C9.26553 16.9199 9.03414 16.6886 9.03414 16.4033C9.03414 16.0047 8.8168 15.7625 8.57512 15.493C8.27247 15.1556 7.93164 14.7757 7.93164 13.9929C7.93164 13.2105 8.27256 12.8301 8.57524 12.4925C8.81687 12.2229 9.03414 11.9806 9.03414 11.5825C9.03414 11.2972 9.26553 11.066 9.55094 11.066ZM13.513 11.5825C13.513 11.2972 13.2817 11.066 12.9962 11.066C12.7108 11.066 12.4795 11.2972 12.4795 11.5825C12.4795 11.9806 12.2622 12.2229 12.0206 12.4925C11.7179 12.8301 11.377 13.2105 11.377 13.9929C11.377 14.7757 11.7178 15.1556 12.0204 15.493C12.2621 15.7625 12.4795 16.0047 12.4795 16.4033C12.4795 16.6886 12.7108 16.9199 12.9962 16.9199C13.2817 16.9199 13.513 16.6886 13.513 16.4033C13.513 15.6206 13.1722 15.2406 12.8696 14.9032C12.6279 14.6338 12.4105 14.3915 12.4105 13.9929C12.4105 13.5948 12.6278 13.3525 12.8694 13.0829C13.1721 12.7452 13.513 12.3649 13.513 11.5825ZM6.10563 11.066C6.39104 11.066 6.62242 11.2972 6.62242 11.5825C6.62242 12.3649 6.28151 12.7452 5.97882 13.0829C5.73719 13.3525 5.51992 13.5948 5.51992 13.9929C5.51992 14.3915 5.73726 14.6338 5.97894 14.9032C6.2816 15.2406 6.62242 15.6206 6.62242 16.4033C6.62242 16.6886 6.39104 16.9199 6.10563 16.9199C5.82022 16.9199 5.58883 16.6886 5.58883 16.4033C5.58883 16.0047 5.37149 15.7625 5.12981 15.493C4.82716 15.1556 4.48633 14.7757 4.48633 13.9929C4.48633 13.2105 4.82725 12.8301 5.12993 12.4925C5.37156 12.2229 5.58883 11.9806 5.58883 11.5825C5.58883 11.2972 5.82022 11.066 6.10563 11.066Z" fill="#062B45"/>
</svg>
