<svg width="18" height="18" viewBox="0 0 18 18" fill="none" xmlns="http://www.w3.org/2000/svg">
<g clip-path="url(#clip0)">
<path fill-rule="evenodd" clip-rule="evenodd" d="M16.6661 2.22855C16.8613 2.03329 16.8613 1.71671 16.6661 1.52145C16.4708 1.32618 16.1542 1.32618 15.9589 1.52145L1.33395 16.1464C1.13868 16.3417 1.13868 16.6583 1.33395 16.8536C1.52921 17.0488 1.84579 17.0488 2.04105 16.8536L16.6661 2.22855ZM1.03117 9.18748C1.13211 9.07337 1.2606 8.93217 1.41442 8.77111C1.83847 8.32708 2.45208 7.73512 3.209 7.14409C4.73529 5.95233 6.7826 4.8125 9 4.8125C9.59869 4.8125 10.1855 4.89533 10.7542 5.04068C11.0217 5.10906 11.2941 4.9476 11.3624 4.68006C11.4308 4.41252 11.2694 4.1402 11.0018 4.07182C10.3615 3.90817 9.69131 3.8125 9 3.8125C6.45415 3.8125 4.18896 5.11017 2.59356 6.35591C1.78964 6.98363 1.14011 7.61042 0.691229 8.08046C0.46651 8.31576 0.291343 8.51256 0.17151 8.65158C0.111575 8.72112 0.0654288 8.77626 0.0337931 8.81462C0.0179737 8.83381 0.00577747 8.8488 -0.0027052 8.85929L-0.0126347 8.87164L-0.0154907 8.87522L-0.0163879 8.87635L-0.0167034 8.87675C-0.016824 8.8769 -0.0169299 8.87703 0.375 9.1875L-0.0169299 8.87703C-0.161032 9.05894 -0.161022 9.3161 -0.0169081 9.498L0.375 9.1875C-0.0169081 9.498 -0.0168539 9.49807 -0.0167953 9.49814L-0.016656 9.49831L-0.0162978 9.49877L-0.0152634 9.50007L-0.0119279 9.50424L-0.000227641 9.51877C0.00979291 9.53114 0.0242382 9.54885 0.0429903 9.5715C0.0804902 9.61678 0.135242 9.68185 0.206302 9.76357C0.348374 9.92695 0.555932 10.1572 0.821441 10.4293C1.35164 10.9726 2.11715 11.6869 3.05768 12.3682C3.28131 12.5302 3.59392 12.4802 3.75592 12.2566C3.91792 12.0329 3.86796 11.7203 3.64432 11.5583C2.7616 10.9189 2.03911 10.2453 1.53712 9.73088C1.32801 9.5166 1.1579 9.33071 1.03117 9.18748ZM14.2334 6.11055C14.3952 5.88679 14.7078 5.83659 14.9316 5.99842C15.8752 6.68092 16.6434 7.39732 17.1755 7.94243C17.442 8.21541 17.6503 8.44653 17.7929 8.61053C17.8643 8.69255 17.9192 8.75787 17.9569 8.80333C17.9757 8.82606 17.9902 8.84384 18.0002 8.85626L18.012 8.87084L18.0153 8.87503L18.0164 8.87634L18.0167 8.87679L18.0169 8.87697C18.0169 8.87704 18.017 8.87711 17.625 9.18756C18.017 9.498 18.0169 9.49813 18.0168 9.49828L18.0165 9.49868L18.0156 9.49981L18.0127 9.50339L18.0028 9.51573C17.9943 9.52623 17.9821 9.54123 17.9663 9.56041C17.9346 9.59877 17.8885 9.65391 17.8286 9.72345C17.7088 9.86248 17.5336 10.0593 17.3089 10.2946C16.8601 10.7646 16.2106 11.3914 15.4068 12.0191C13.8114 13.2649 11.5463 14.5626 9.00004 14.5626C8.16496 14.5626 7.36115 14.4235 6.60262 14.192C6.3385 14.1115 6.18971 13.832 6.2703 13.5679C6.35089 13.3038 6.63033 13.155 6.89445 13.2356C7.57142 13.4421 8.27661 13.5626 9.00004 13.5626C11.2178 13.5626 13.2651 12.4227 14.7913 11.231C15.5482 10.64 16.1617 10.048 16.5857 9.60398C16.7395 9.4429 16.868 9.30169 16.9689 9.18758C16.8416 9.04362 16.6705 8.85659 16.46 8.64095C15.9561 8.12481 15.2311 7.44921 14.3455 6.80871C14.1218 6.64688 14.0716 6.3343 14.2334 6.11055ZM17.625 9.18756L18.017 8.87711C18.161 9.059 18.1611 9.3161 18.017 9.498L17.625 9.18756ZM6.5 9.1875C6.5 7.80622 7.61931 6.6875 9 6.6875C9.27614 6.6875 9.5 6.46364 9.5 6.1875C9.5 5.91136 9.27614 5.6875 9 5.6875C7.06719 5.6875 5.5 7.25378 5.5 9.1875C5.5 9.46364 5.72386 9.6875 6 9.6875C6.27614 9.6875 6.5 9.46364 6.5 9.1875ZM12 8.6875C12.2761 8.6875 12.5 8.91136 12.5 9.1875C12.5 11.1212 10.9328 12.6875 9 12.6875C8.72386 12.6875 8.5 12.4636 8.5 12.1875C8.5 11.9114 8.72386 11.6875 9 11.6875C10.3807 11.6875 11.5 10.5688 11.5 9.1875C11.5 8.91136 11.7239 8.6875 12 8.6875Z" fill="#687D8F"/>
</g>
<defs>
<clipPath id="clip0">
<rect width="18" height="18" fill="white"/>
</clipPath>
</defs>
</svg>
