<svg width="18" height="18" viewBox="0 0 18 18" fill="none" xmlns="http://www.w3.org/2000/svg">
<path d="M8.06445 4.32018C7.96444 4.49344 7.78293 4.59028 7.59631 4.59028C7.50469 4.59028 7.41184 4.56696 7.32681 4.51782L7.01505 4.33782C6.75679 4.1887 6.6683 3.85844 6.81741 3.60018C6.96652 3.34188 7.29671 3.25332 7.55505 3.40254L7.86681 3.58254C8.12507 3.73161 8.21356 4.06191 8.06445 4.32018ZM7.32681 5.20254L7.01505 5.38254C6.75679 5.53165 6.6683 5.86191 6.81741 6.12018C6.91742 6.29344 7.09893 6.39028 7.28555 6.39028C7.37714 6.39028 7.47002 6.36696 7.55505 6.31782L7.86681 6.13782C8.12507 5.9887 8.21356 5.65844 8.06445 5.40018C7.91534 5.14191 7.58504 5.05335 7.32681 5.20254ZM10.4445 3.40254L10.1327 3.58254C9.87446 3.73165 9.78597 4.06191 9.93508 4.32018C10.0351 4.49344 10.2166 4.59028 10.4032 4.59028C10.4948 4.59028 10.5877 4.56696 10.6727 4.51782L10.9845 4.33782C11.2427 4.1887 11.3312 3.85844 11.1821 3.60018C11.033 3.34188 10.7028 3.25332 10.4445 3.40254ZM10.9845 5.38254L10.6727 5.20254C10.4144 5.05332 10.0842 5.14188 9.93508 5.40018C9.78597 5.65844 9.87446 5.98874 10.1327 6.13782L10.4445 6.31782C10.5295 6.36692 10.6224 6.39028 10.714 6.39028C10.9006 6.39028 11.0821 6.29344 11.1821 6.12018C11.3313 5.86191 11.2428 5.53161 10.9845 5.38254ZM16.7352 9.07002L15.6552 17.35C15.6201 17.619 15.391 17.8202 15.1198 17.8202H2.87977C2.60854 17.8202 2.3794 17.619 2.3443 17.35L1.2643 9.07002C1.25869 9.02707 1.25829 8.98358 1.26308 8.94052L1.97998 2.48832C1.99708 1.21269 3.04011 0.180176 4.31977 0.180176H13.6798C14.9594 0.180176 16.0024 1.21269 16.0195 2.48832L16.7365 8.94056C16.7412 8.98358 16.7408 9.02707 16.7352 9.07002ZM14.8804 14.9402H10.4678C10.4326 14.9822 10.2944 15.1239 10.2944 15.1239C9.94858 15.4697 9.48883 15.6602 8.99977 15.6602C8.51071 15.6602 8.05095 15.4697 7.70513 15.1239C7.70513 15.1239 7.56693 14.9822 7.53176 14.9402H3.11913L3.35389 16.7402H14.6456L14.8804 14.9402ZM8.40703 14.2985L8.4688 14.3603C8.61064 14.5021 8.79921 14.5802 8.99977 14.5802C9.20032 14.5802 9.38889 14.5021 9.53073 14.3603L9.59251 14.2985C9.88526 14.0057 9.88526 13.5294 9.59251 13.2366L8.99977 12.6438L8.40703 13.2366C8.11427 13.5294 8.11427 14.0057 8.40703 14.2985ZM15.5848 9.54018H13.8598V9.72018C13.8598 10.0184 13.618 10.2602 13.3198 10.2602C13.0215 10.2602 12.7798 10.0184 12.7798 9.72018V9.54018H11.6998V9.72018C11.6998 10.0184 11.458 10.2602 11.1598 10.2602C10.8615 10.2602 10.6198 10.0184 10.6198 9.72018V9.54018H9.53977V9.72018C9.53977 10.0184 9.29799 10.2602 8.99977 10.2602C8.70154 10.2602 8.45977 10.0184 8.45977 9.72018V9.54018H7.37977V9.72018C7.37977 10.0184 7.13799 10.2602 6.83977 10.2602C6.54154 10.2602 6.29977 10.0184 6.29977 9.72018V9.54018H5.21977V9.72018C5.21977 10.0184 4.97799 10.2602 4.67977 10.2602C4.38154 10.2602 4.13977 10.0184 4.13977 9.72018V9.54018H2.41475L2.97823 13.8602H7.10941C7.10789 13.8294 7.1071 13.7985 7.1071 13.7675C7.1071 13.2785 7.29754 12.8187 7.64336 12.4729L8.61791 11.4984C8.82877 11.2875 9.17069 11.2875 9.38158 11.4984L10.3561 12.4729C10.702 12.8187 10.8924 13.2785 10.8924 13.7675C10.8924 13.7985 10.8916 13.8294 10.8901 13.8602H15.0212L15.5848 9.54018ZM15.5964 8.46018L14.9431 2.57979C14.9409 2.55999 14.9398 2.54012 14.9398 2.52018C14.9398 1.82541 14.3745 1.26018 13.6798 1.26018H4.31977C3.625 1.26018 3.05977 1.82541 3.05977 2.52018C3.05977 2.54012 3.05865 2.55999 3.05645 2.57979L2.40309 8.46018H13.3198H15.5964ZM8.99977 2.34018C8.70154 2.34018 8.45977 2.58195 8.45977 2.88018V3.24018C8.45977 3.5384 8.70154 3.78018 8.99977 3.78018C9.29799 3.78018 9.53977 3.5384 9.53977 3.24018V2.88018C9.53977 2.58195 9.29799 2.34018 8.99977 2.34018ZM8.99977 5.94018C8.70154 5.94018 8.45977 6.18195 8.45977 6.48018V6.84018C8.45977 7.1384 8.70154 7.38018 8.99977 7.38018C9.29799 7.38018 9.53977 7.1384 9.53977 6.84018V6.48018C9.53977 6.18195 9.29799 5.94018 8.99977 5.94018Z" fill="#062B45"/>
</svg>
