<svg width="48" height="48" viewBox="0 0 48 48" fill="none" xmlns="http://www.w3.org/2000/svg">
<g clip-path="url(#clip0)">
<path d="M5 38.0398C4.448 38.0398 4 37.5918 4 37.0398V19.3398C4 18.7878 4.448 18.3398 5 18.3398C5.552 18.3398 6 18.7878 6 19.3398V37.0398C6 37.5918 5.552 38.0398 5 38.0398Z" fill="#5AAFE8"/>
<path d="M43.0009 2.08979C42.8849 2.08979 42.7729 2.07179 42.6689 2.03979H15.3809C14.8289 2.03979 14.3809 1.59179 14.3809 1.03979C14.3809 0.487795 14.8289 0.0397949 15.3809 0.0397949H43.0009C43.5529 0.0397949 44.0009 0.487795 44.0009 1.03979C44.0009 1.59179 43.5529 2.08979 43.0009 2.08979Z" fill="#5AAFE8"/>
<path d="M47 10.042H37C36.448 10.042 36 9.59399 36 9.04199V6.04199C36 2.73399 38.692 0.0419922 42 0.0419922C45.308 0.0419922 48 2.73399 48 6.04199V9.04199C48 9.59399 47.552 10.042 47 10.042ZM38 8.04199H46V6.04199C46 3.83599 44.206 2.04199 42 2.04199C39.794 2.04199 38 3.83599 38 6.04199V8.04199Z" fill="#5AAFE8"/>
<path d="M32 47.958H5C2.244 47.958 0 45.716 0 42.958V37.04C0 36.488 0.448 36.04 1 36.04H27C27.552 36.04 28 36.488 28 37.04V41.958C28 44.164 29.794 45.958 32 45.958C34.206 45.958 36 44.164 36 41.958V9.04199C36 8.48999 36.448 8.04199 37 8.04199C37.552 8.04199 38 8.48999 38 9.04199V41.96C38 45.268 35.308 47.958 32 47.958ZM2 38.042V42.96C2 44.614 3.346 45.96 5 45.96H27.532C26.58 44.898 26 43.496 26 41.96V38.042H2Z" fill="#5AAFE8"/>
<path d="M25.001 26C24.935 26 24.871 25.994 24.805 25.98L17.495 24.518C17.301 24.478 17.123 24.386 16.985 24.244L0.898953 8.16198C-0.297047 6.96398 -0.297047 5.01998 0.898953 3.82198L3.82495 0.897977C5.02095 -0.298023 6.96495 -0.298023 8.16295 0.897977L24.247 16.982C24.387 17.12 24.481 17.298 24.521 17.494L25.983 24.804C26.049 25.13 25.945 25.47 25.709 25.706C25.519 25.896 25.263 26 25.001 26ZM18.183 22.616L23.725 23.726L22.617 18.184L6.74895 2.31198C6.33295 1.89798 5.65495 1.89798 5.23895 2.31198L2.31295 5.23598C1.89695 5.65198 1.89695 6.33198 2.31295 6.74798L18.183 22.616Z" fill="#5AAFE8"/>
</g>
<defs>
<clipPath id="clip0">
<rect width="48" height="48" fill="white"/>
</clipPath>
</defs>
</svg>
