<svg width="24" height="24" viewBox="0 0 24 24" fill="none" xmlns="http://www.w3.org/2000/svg">
<path fill-rule="evenodd" clip-rule="evenodd" d="M12 1.5C6.20114 1.5 1.5 6.20114 1.5 12C1.5 17.7989 6.20114 22.5 12 22.5C17.7989 22.5 22.5 17.7989 22.5 12C22.5 6.20114 17.7989 1.5 12 1.5ZM0.5 12C0.5 5.64886 5.64886 0.5 12 0.5C18.3511 0.5 23.5 5.64886 23.5 12C23.5 18.3511 18.3511 23.5 12 23.5C5.64886 23.5 0.5 18.3511 0.5 12ZM12 7C10.6193 7 9.5 8.12003 9.5 9.5C9.5 9.77614 9.27614 10 9 10C8.72386 10 8.5 9.77614 8.5 9.5C8.5 7.56797 10.0667 6 12 6C13.9321 6 15.5 7.56786 15.5 9.5C15.5 11.2644 14.1954 12.722 12.5 12.9646V15.5C12.5 15.7761 12.2761 16 12 16C11.7239 16 11.5 15.7761 11.5 15.5V12.5C11.5 12.2239 11.7239 12 12 12C13.3801 12 14.5 10.8816 14.5 9.5C14.5 8.12014 13.3799 7 12 7ZM12 17C11.4479 17 11 17.4479 11 18C11 18.5521 11.4479 19 12 19C12.5521 19 13 18.5521 13 18C13 17.4479 12.5521 17 12 17Z" fill="#5B6D83"/>
</svg>
