<svg width="20" height="20" viewBox="0 0 20 20" fill="none" xmlns="http://www.w3.org/2000/svg">
<path d="M6.63086 10.6094C6.32992 10.6094 6.08594 10.8534 6.08594 11.1543C6.08594 11.4548 5.84149 11.6992 5.54102 11.6992C5.24055 11.6992 4.99609 11.4548 4.99609 11.1543V8.97461C4.99609 8.67414 5.24055 8.42969 5.54102 8.42969C5.84149 8.42969 6.08594 8.67414 6.08594 8.97461C6.08594 9.27555 6.32992 9.51953 6.63086 9.51953C6.9318 9.51953 7.17578 9.27555 7.17578 8.97461C7.17578 8.0732 6.44243 7.33984 5.54102 7.33984C4.63961 7.33984 3.90625 8.0732 3.90625 8.97461V11.1543C3.90625 12.0557 4.63961 12.7891 5.54102 12.7891C6.44243 12.7891 7.17578 12.0557 7.17578 11.1543C7.17578 10.8534 6.9318 10.6094 6.63086 10.6094Z" fill="#687D8F"/>
<path d="M9.90039 7.33984C8.99898 7.33984 8.26562 8.0732 8.26562 8.97461V11.1543C8.26562 12.0557 8.99898 12.7891 9.90039 12.7891C10.8018 12.7891 11.5352 12.0557 11.5352 11.1543V8.97461C11.5352 8.0732 10.8018 7.33984 9.90039 7.33984ZM10.4453 11.1543C10.4453 11.4548 10.2009 11.6992 9.90039 11.6992C9.59992 11.6992 9.35547 11.4548 9.35547 11.1543V8.97461C9.35547 8.67414 9.59992 8.42969 9.90039 8.42969C10.2009 8.42969 10.4453 8.67414 10.4453 8.97461V11.1543Z" fill="#687D8F"/>
<path d="M15.8926 9.14077V8.97461C15.8926 8.0732 15.1593 7.33984 14.2579 7.33984C13.3564 7.33984 12.6231 8.0732 12.6231 8.97461C12.6231 9.27555 12.8671 9.51953 13.168 9.51953C13.4689 9.51953 13.7129 9.27555 13.7129 8.97461C13.7129 8.67414 13.9574 8.42969 14.2579 8.42969C14.5583 8.42969 14.8028 8.67414 14.8028 8.97461V9.14077C14.8028 9.59088 14.6275 10.014 14.3092 10.3323L12.7827 11.8588C12.6268 12.0147 12.5802 12.2491 12.6645 12.4527C12.7489 12.6563 12.9476 12.7891 13.168 12.7891H15.3477C15.6486 12.7891 15.8926 12.5451 15.8926 12.2442C15.8926 11.9432 15.6486 11.6993 15.3477 11.6993H14.4835L15.0798 11.103C15.604 10.5789 15.8926 9.88201 15.8926 9.14077Z" fill="#687D8F"/>
<path d="M16.9295 6.80172C16.9614 6.63348 16.9836 6.44799 16.9836 6.25C16.9836 4.44718 15.5169 2.98047 13.7141 2.98047C13.37 2.98047 13.035 3.03344 12.7131 3.13846C11.7048 1.69384 10.0685 0.800781 8.26484 0.800781C5.34283 0.800781 2.95062 3.11234 2.82115 6.00297C1.44329 6.91858 0.599609 8.44731 0.599609 10.0645C0.599609 12.7794 2.8323 15.0414 5.54023 15.0414H14.8039C17.2023 15.0414 19.1996 13.0305 19.1996 10.6094C19.1996 8.99942 18.2903 7.55749 16.9295 6.80172ZM14.8039 13.9516H5.54023C3.45289 13.9516 1.68945 12.1715 1.68945 10.0645C1.68945 8.73132 2.43636 7.47193 3.63867 6.77778C3.82028 6.67293 3.93689 6.46822 3.90558 6.22116C3.92123 3.83069 5.87075 1.89062 8.26484 1.89062C9.82692 1.89062 11.233 2.71186 12.0263 4.0875C12.1707 4.33801 12.4856 4.432 12.7438 4.30176C13.0481 4.1482 13.3746 4.07031 13.7141 4.07031C14.9159 4.07031 15.8937 5.04812 15.8937 6.25C15.8937 6.44933 15.8563 6.66182 15.7724 6.939C15.6917 7.20536 15.8247 7.4897 16.0809 7.5985C17.3134 8.12192 18.1098 9.30378 18.1098 10.6094C18.1098 12.421 16.5959 13.9516 14.8039 13.9516Z" fill="#687D8F"/>
<path d="M5.54102 16.1309C5.24007 16.1309 4.99609 16.3748 4.99609 16.6758C4.99609 17.5772 4.26274 18.3105 3.36133 18.3105C3.06039 18.3105 2.81641 18.5545 2.81641 18.8555C2.81641 19.1564 3.06039 19.4004 3.36133 19.4004C4.86368 19.4004 6.08594 18.1781 6.08594 16.6758C6.08594 16.3748 5.84196 16.1309 5.54102 16.1309Z" fill="#5AAFE8"/>
<path d="M9.90039 16.1309C9.59945 16.1309 9.35547 16.3748 9.35547 16.6758C9.35547 17.5772 8.62211 18.3105 7.7207 18.3105C7.41976 18.3105 7.17578 18.5545 7.17578 18.8555C7.17578 19.1564 7.41976 19.4004 7.7207 19.4004C9.22305 19.4004 10.4453 18.1781 10.4453 16.6758C10.4453 16.3748 10.2013 16.1309 9.90039 16.1309Z" fill="#5AAFE8"/>
<path d="M14.2598 16.1309C13.9588 16.1309 13.7148 16.3748 13.7148 16.6758C13.7148 17.5772 12.9815 18.3105 12.0801 18.3105C11.7791 18.3105 11.5352 18.5545 11.5352 18.8555C11.5352 19.1564 11.7791 19.4004 12.0801 19.4004C13.5824 19.4004 14.8047 18.1781 14.8047 16.6758C14.8047 16.3748 14.5607 16.1309 14.2598 16.1309Z" fill="#5AAFE8"/>
</svg>
