<svg width="18" height="18" viewBox="0 0 18 18" fill="none" xmlns="http://www.w3.org/2000/svg">
<path fill-rule="evenodd" clip-rule="evenodd" d="M8.39356 0.786843C8.39356 0.460176 8.67356 0.180176 9.00023 0.180176C9.32689 0.180176 9.6069 0.460176 9.6069 0.786843V2.58351C9.6069 2.91018 9.32689 3.19018 9.00023 3.19018C8.67356 3.19018 8.39356 2.91018 8.39356 2.58351V0.786843ZM12.1256 5.87357C11.3323 5.08023 10.2123 4.5669 8.99895 4.5669C7.78562 4.5669 6.66562 5.0569 5.87228 5.87357C5.07895 6.6669 4.56561 7.7869 4.56561 9.00024C4.56561 10.2136 5.07895 11.3336 5.87228 12.1269C6.66562 12.9202 7.78562 13.4336 8.99895 13.4336C10.2123 13.4336 11.3323 12.9436 12.1256 12.1269C12.919 11.3336 13.4323 10.2136 13.4323 9.00024C13.4323 7.7869 12.9423 6.6669 12.1256 5.87357ZM11.2856 11.2869C10.7023 11.8702 9.88562 12.2202 8.99895 12.2202C8.11228 12.2202 7.29562 11.8702 6.71228 11.2869C6.12895 10.7036 5.77895 9.88691 5.77895 9.00024C5.77895 8.11357 6.12895 7.2969 6.71228 6.71357C7.29562 6.13024 8.11228 5.78024 8.99895 5.78024C9.88562 5.78024 10.7023 6.13024 11.2856 6.71357C11.869 7.2969 12.219 8.11357 12.219 9.00024C12.219 9.88691 11.869 10.7036 11.2856 11.2869ZM17.2131 8.39325H15.4164C15.0898 8.39325 14.8098 8.67325 14.8098 8.99991C14.8098 9.32658 15.0898 9.60658 15.4164 9.60658H17.2131C17.5398 9.60658 17.8198 9.32658 17.8198 8.99991C17.8198 8.67325 17.5398 8.39325 17.2131 8.39325ZM8.39356 15.4169C8.39356 15.0903 8.67356 14.8103 9.00023 14.8103C9.32689 14.8103 9.6069 15.0903 9.6069 15.4169V17.2136C9.6069 17.5403 9.32689 17.8203 9.00023 17.8203C8.67356 17.8203 8.39356 17.5403 8.39356 17.2136V15.4169ZM15.2289 14.3902L13.9456 13.1069C13.7356 12.8736 13.3389 12.8736 13.1056 13.1069C12.8723 13.3402 12.8723 13.7136 13.1056 13.9469L14.3889 15.2302C14.6223 15.4636 14.9956 15.4636 15.2289 15.2302C15.4623 14.9969 15.4623 14.6236 15.2289 14.3902ZM15.2525 2.77031C15.0192 2.53698 14.6459 2.53698 14.4125 2.77031L13.1292 4.05365C12.8959 4.28698 12.8959 4.66032 13.1292 4.89365C13.3392 5.12698 13.7359 5.12698 13.9692 4.89365L15.2525 3.61031C15.4859 3.37698 15.4859 3.00365 15.2525 2.77031ZM0.786355 8.39325H2.58302C2.90969 8.39325 3.18969 8.67325 3.18969 8.99991C3.18969 9.32658 2.90969 9.60658 2.58302 9.60658H0.786355C0.436354 9.60658 0.179688 9.32658 0.179688 8.99991C0.179688 8.67325 0.459688 8.39325 0.786355 8.39325ZM4.86956 13.1069C4.65956 12.8736 4.2629 12.8736 4.02956 13.1069L2.74623 14.3902C2.51289 14.6236 2.51289 14.9969 2.74623 15.2302C2.97956 15.4636 3.3529 15.4636 3.58623 15.2302L4.86956 13.9469C5.1029 13.7136 5.1029 13.3402 4.86956 13.1069ZM3.58623 2.77031L4.86956 4.05365C5.1029 4.28698 5.1029 4.66032 4.86956 4.89365C4.63623 5.12698 4.2629 5.12698 4.02956 4.89365L2.74623 3.61031C2.51289 3.37698 2.51289 3.00365 2.74623 2.77031C2.97956 2.53698 3.3529 2.53698 3.58623 2.77031Z" fill="#062B45"/>
</svg>
