<svg width="18" height="18" viewBox="0 0 18 18" fill="none" xmlns="http://www.w3.org/2000/svg">
<path fill-rule="evenodd" clip-rule="evenodd" d="M2.94592 1.87251C2.65662 1.48875 2.19769 1.25977 1.71743 1.25977C0.86952 1.25977 0.179688 1.9496 0.179688 2.79751C0.179688 3.64542 0.86952 4.33526 1.71743 4.33526H4.84418L2.94592 1.87251ZM1.71743 3.31009C1.4348 3.31009 1.20485 3.08015 1.20485 2.79751C1.20485 2.51487 1.4348 2.28493 1.71743 2.28493C1.88037 2.28493 2.03001 2.3599 2.12808 2.49061L2.75968 3.31009H1.71743ZM11.4911 8.1088V6.48785H12.5163V3.41236H5.34016V6.48785H6.36533V8.10877L7.39049 11.1843V15.7143H5.34016V16.7395H12.5163V15.7143H10.466V11.1843L11.4911 8.1088ZM6.36533 5.46268V4.43752H11.4911V5.46268H6.36533ZM9.44082 15.7143H8.41565V11.6137H9.44082V15.7143ZM9.58393 10.5885H8.27251L7.58906 8.53817H10.2674L9.58393 10.5885ZM7.39049 7.51301V6.48785H10.466V7.51301H7.39049ZM0.179688 7.00049C0.179688 6.15258 0.86952 5.46275 1.71743 5.46275H4.84418L2.94596 7.9255C2.65662 8.30925 2.19769 8.53824 1.71743 8.53824C0.86952 8.53824 0.179688 7.84841 0.179688 7.00049ZM2.12808 7.30743L2.13215 7.30206L2.75968 6.48791H1.71743C1.4348 6.48791 1.20485 6.71786 1.20485 7.00049C1.20485 7.28313 1.4348 7.51308 1.71743 7.51308C1.88037 7.51308 2.03001 7.4381 2.12808 7.30743ZM16.1375 1.25977C15.6573 1.25977 15.1984 1.48875 14.9091 1.8724L13.0108 4.33526H16.1375C16.9855 4.33526 17.6753 3.64542 17.6753 2.79751C17.6753 1.9496 16.9855 1.25977 16.1375 1.25977ZM16.1375 3.31009H15.0953L15.7229 2.49594L15.7269 2.49058C15.825 2.35987 15.9746 2.28493 16.1375 2.28493C16.4202 2.28493 16.6501 2.51487 16.6501 2.79751C16.6501 3.08015 16.4202 3.31009 16.1375 3.31009ZM13.0108 5.46275H16.1375C16.9855 5.46275 17.6753 6.15258 17.6753 7.00049C17.6753 7.84841 16.9855 8.53824 16.1375 8.53824C15.6573 8.53824 15.1984 8.30925 14.9091 7.9256L13.0108 5.46275ZM15.7269 7.30743C15.825 7.43814 15.9746 7.51308 16.1375 7.51308C16.4202 7.51308 16.6501 7.28313 16.6501 7.00049C16.6501 6.71786 16.4202 6.48791 16.1375 6.48791H15.0953L15.7269 7.30743Z" fill="#062B45"/>
</svg>
