<svg width="48" height="32" viewBox="0 0 48 32" fill="none" xmlns="http://www.w3.org/2000/svg">
<g clip-path="url(#clip0)">
<path fill-rule="evenodd" clip-rule="evenodd" d="M0 3C0 1.34315 1.34315 0 3 0H45C46.6569 0 48 1.34315 48 3V29C48 30.6569 46.6569 32 45 32H3C1.34315 32 0 30.6569 0 29V3Z" fill="#F4F6F7"/>
<path fill-rule="evenodd" clip-rule="evenodd" d="M0 3C0 1.34315 1.34315 0 3 0H45C46.6569 0 48 1.34315 48 3V7.61905H0V3Z" fill="#4095DB"/>
<path fill-rule="evenodd" clip-rule="evenodd" d="M0 24.3809H48V28.9999C48 30.6568 46.6569 31.9999 45 31.9999H3C1.34315 31.9999 0 30.6568 0 28.9999V24.3809Z" fill="#F4B662"/>
<path fill-rule="evenodd" clip-rule="evenodd" d="M29.8884 11.8012C29.4522 11.6234 28.7662 11.4294 27.9116 11.4294C25.7306 11.4294 24.1953 12.6315 24.1826 14.3526C24.1687 15.6256 25.2782 16.3358 26.1146 16.7589C26.9742 17.1927 27.263 17.4702 27.2596 17.8581C27.2536 18.4513 26.5734 18.7231 25.9392 18.7231C25.056 18.7231 24.5867 18.5893 23.8612 18.2586L23.5775 18.1176L23.269 20.1002C23.7834 20.3469 24.737 20.561 25.7267 20.5723C28.0446 20.5723 29.5508 19.3848 29.5684 17.5469C29.5764 16.5373 28.9885 15.772 27.7154 15.1402C26.9445 14.7296 26.4714 14.4575 26.4768 14.0418C26.4773 13.6736 26.8765 13.2796 27.7405 13.2796C28.4621 13.2676 28.9845 13.4399 29.3915 13.6199L29.5896 13.7212L29.8884 11.8012ZM19.6804 20.4409L21.0605 11.5838H23.2665L21.8866 20.4409H19.6804ZM33.7051 14.8251C33.7051 14.8251 33.0091 16.7916 32.8263 17.3007H34.6577C34.5705 16.8579 34.1472 14.7438 34.1472 14.7438L33.9983 13.9799C33.9394 14.1555 33.8572 14.3882 33.7947 14.5651C33.739 14.7227 33.699 14.8361 33.7051 14.8251ZM35.5475 11.5926H33.8427C33.3139 11.5926 32.9181 11.7493 32.6864 12.3268L29.4103 20.4439H31.7274C31.7274 20.4439 32.1054 19.352 32.1912 19.1123C32.31 19.1123 32.8703 19.1133 33.4642 19.1144H33.4642L33.4648 19.1144C34.1344 19.1156 34.8465 19.1169 35.0167 19.1169C35.0828 19.426 35.2853 20.4439 35.2853 20.4439H37.3329L35.5475 11.5926ZM17.8298 11.591L15.6706 17.6295L15.4393 16.402C15.439 16.401 15.4387 16.3999 15.4385 16.3989L14.666 12.3324C14.5326 11.7711 14.145 11.6047 13.666 11.5851H10.1085L10.0791 11.7686C10.9447 11.998 11.7188 12.3289 12.3971 12.7404L14.3588 20.433L16.6935 20.4316L20.1675 11.591H17.8298Z" fill="#0071CE"/>
<path fill-rule="evenodd" clip-rule="evenodd" d="M0 3C0 1.34315 1.34315 0 3 0H45C46.6569 0 48 1.34315 48 3V29C48 30.6569 46.6569 32 45 32H3C1.34315 32 0 30.6569 0 29V3Z" fill="#E5E5E5" fill-opacity="0.01"/>
</g>
<defs>
<clipPath id="clip0">
<rect width="48" height="32" fill="white"/>
</clipPath>
</defs>
</svg>
