<svg width="24" height="24" viewBox="0 0 24 24" fill="none" xmlns="http://www.w3.org/2000/svg">
<path fill-rule="evenodd" clip-rule="evenodd" d="M11.8063 2C10.6106 2 9.6399 2.97071 9.6399 4.16644C9.6399 5.36218 10.6106 6.33288 11.8063 6.33288C12.9866 6.33288 13.9476 5.38715 13.9723 4.21277C13.9709 4.19752 13.9702 4.18206 13.9702 4.16644C13.9702 4.15082 13.9709 4.13537 13.9723 4.12011C13.9476 2.94574 12.9866 2 11.8063 2ZM11.8063 7.33288C13.3842 7.33288 14.6936 6.17712 14.9335 4.66644H23.1668C23.4429 4.66644 23.6668 4.44258 23.6668 4.16644C23.6668 3.8903 23.4429 3.66644 23.1668 3.66644H14.9335C14.6936 2.15577 13.3842 1 11.8063 1C10.2284 1 8.91911 2.15577 8.6792 3.66644H0.5C0.223858 3.66644 0 3.8903 0 4.16644C0 4.44258 0.223858 4.66644 0.5 4.66644H8.6792C8.91911 6.17712 10.2284 7.33288 11.8063 7.33288ZM6.47346 9.99933C5.27772 9.99933 4.30701 10.97 4.30701 12.1658C4.30701 13.3615 5.27772 14.3322 6.47346 14.3322C7.64731 14.3322 8.60431 13.3967 8.63893 12.2312C8.63613 12.2098 8.63469 12.1879 8.63469 12.1658C8.63469 12.1436 8.63613 12.1218 8.63893 12.1004C8.60431 10.9348 7.64731 9.99933 6.47346 9.99933ZM9.6006 11.6658C9.36068 10.1551 8.05135 8.99933 6.47346 8.99933C4.89556 8.99933 3.58623 10.1551 3.34632 11.6658H0.5C0.223858 11.6658 0 11.8896 0 12.1658C0 12.4419 0.223858 12.6658 0.5 12.6658H3.34632C3.58623 14.1764 4.89556 15.3322 6.47346 15.3322C8.05135 15.3322 9.36068 14.1764 9.6006 12.6658H23.1655C23.4417 12.6658 23.6655 12.4419 23.6655 12.1658C23.6655 11.8896 23.4417 11.6658 23.1655 11.6658H9.6006ZM6.97346 20.1651C6.97346 18.9694 7.94416 17.9987 9.1399 17.9987C10.3138 17.9987 11.2707 18.9342 11.3054 20.0997C11.3026 20.1211 11.3011 20.1429 11.3011 20.1651C11.3011 20.1873 11.3026 20.2091 11.3054 20.2305C11.2707 21.396 10.3138 22.3315 9.1399 22.3315C7.94416 22.3315 6.97346 21.3608 6.97346 20.1651ZM9.1399 16.9987C10.7178 16.9987 12.0271 18.1544 12.267 19.6651H23.1655C23.4417 19.6651 23.6655 19.889 23.6655 20.1651C23.6655 20.4412 23.4417 20.6651 23.1655 20.6651H12.267C12.0271 22.1758 10.7178 23.3315 9.1399 23.3315C7.562 23.3315 6.25267 22.1758 6.01276 20.6651H0.5C0.223858 20.6651 0 20.4412 0 20.1651C0 19.889 0.223858 19.6651 0.5 19.6651H6.01276C6.25267 18.1544 7.562 16.9987 9.1399 16.9987Z" fill="#5B6D83"/>
</svg>
