<svg width="20" height="20" viewBox="0 0 20 20" fill="none" xmlns="http://www.w3.org/2000/svg">
<path fill-rule="evenodd" clip-rule="evenodd" d="M4.89919 2.36488C3.91435 3.39021 3.26798 4.65879 3.03146 6.03337C2.55745 8.78852 3.67103 11.4926 5.93858 13.0867C6.42876 13.4313 6.69772 13.9212 6.69772 14.4254V17.7698C6.69772 18.9026 7.61905 19.8239 8.75191 19.8239H11.268C12.4008 19.8239 13.3222 18.9026 13.3222 17.7698V14.5044C13.3222 13.9532 13.6068 13.4253 14.1195 13.0598C15.9835 11.7309 17.0964 9.5727 17.0964 7.28602C17.0964 5.14342 16.1416 3.13809 14.4776 1.78514C11.7526 -0.430415 7.55786 -0.403155 4.89919 2.36488ZM11.73 17.7698C11.73 18.0244 11.5226 18.2317 11.268 18.2317H8.75194C8.49739 18.2317 8.29003 18.0243 8.29003 17.7698V15.6305H11.73V17.7698ZM13.1952 11.7633C12.4032 12.3279 11.8952 13.1389 11.7639 14.0383H10.8062V10.4374C11.5442 10.126 12.0642 9.39527 12.0642 8.5442C12.0642 7.41139 11.1429 6.49001 10.01 6.49001C8.87724 6.49001 7.95586 7.41139 7.95586 8.5442C7.95586 9.39527 8.47585 10.126 9.21393 10.4374V14.0383H8.26513C8.15131 13.1478 7.64802 12.3422 6.85442 11.7842C5.09564 10.5477 4.23156 8.44902 4.60074 6.30345C5.02371 3.84531 7.16602 1.79436 9.99634 1.79436C11.2635 1.79436 12.4869 2.21876 13.4732 3.02063C14.7641 4.0702 15.5042 5.62454 15.5042 7.28609C15.5041 9.0587 14.641 10.7326 13.1952 11.7633ZM10.0007 9.19922C10.3321 9.19922 10.6007 8.93059 10.6007 8.59922C10.6007 8.26785 10.3321 7.99922 10.0007 7.99922C9.66931 7.99922 9.40068 8.26785 9.40068 8.59922C9.40068 8.93059 9.66931 9.19922 10.0007 9.19922Z" fill="#687D8F"/>
<path d="M10.009 2.8839C9.66163 2.8839 9.38 3.16554 9.38 3.51292C9.38 3.8603 9.66163 4.14193 10.009 4.14193C11.7432 4.14193 13.1541 5.55282 13.1541 7.28705C13.1541 7.63443 13.4358 7.91606 13.7831 7.91606C14.1305 7.91606 14.4122 7.63443 14.4122 7.28705C14.4122 4.85915 12.4369 2.8839 10.009 2.8839Z" fill="#5AAFE8"/>
<path fill-rule="evenodd" clip-rule="evenodd" d="M9.21289 3.51292C9.21289 3.07325 9.56934 2.7168 10.009 2.7168C12.5292 2.7168 14.5793 4.76686 14.5793 7.28705C14.5793 7.72672 14.2228 8.08317 13.7831 8.08317C13.3435 8.08317 12.987 7.72672 12.987 7.28705C12.987 5.64511 11.6509 4.30904 10.009 4.30904C9.56934 4.30904 9.21289 3.95259 9.21289 3.51292ZM9.38 3.51292C9.38 3.16554 9.66163 2.8839 10.009 2.8839C12.4369 2.8839 14.4122 4.85915 14.4122 7.28705C14.4122 7.63443 14.1305 7.91606 13.7831 7.91606C13.4358 7.91606 13.1541 7.63443 13.1541 7.28705C13.1541 5.55282 11.7432 4.14193 10.009 4.14193C9.66163 4.14193 9.38 3.8603 9.38 3.51292Z" fill="#5AAFE8"/>
</svg>
