<svg width="43" height="22" viewBox="0 0 43 22" fill="none" xmlns="http://www.w3.org/2000/svg">
<path d="M0 11C0 4.92487 4.92487 0 11 0H32C38.0751 0 43 4.92487 43 11V11C43 17.0751 38.0751 22 32 22H11C4.92487 22 0 17.0751 0 11V11Z" fill="#71C76A"/>
<path d="M9.37891 14.8438C9.57422 15.0391 9.90625 15.0391 10.1016 14.8438L15.8438 9.10156C16.0391 8.90625 16.0391 8.57422 15.8438 8.37891L15.1406 7.67578C14.9453 7.48047 14.6328 7.48047 14.4375 7.67578L9.75 12.3633L7.54297 10.1758C7.34766 9.98047 7.03516 9.98047 6.83984 10.1758L6.13672 10.8789C5.94141 11.0742 5.94141 11.4062 6.13672 11.6016L9.37891 14.8438Z" fill="white"/>
<path d="M28.8281 11C28.8281 8.44141 27.2969 6.89062 25.2266 6.89062C23.1484 6.89062 21.6211 8.44141 21.6211 11C21.6211 13.5547 23.1484 15.1094 25.2266 15.1094C27.2969 15.1094 28.8281 13.5586 28.8281 11ZM27.6328 11C27.6328 12.9492 26.6016 14.0078 25.2266 14.0078C23.8477 14.0078 22.8203 12.9492 22.8203 11C22.8203 9.05078 23.8477 7.99219 25.2266 7.99219C26.6016 7.99219 27.6328 9.05078 27.6328 11ZM30.333 15H31.54V12.5117L32.4854 11.4258L35.0713 15H36.5244L33.2861 10.6016L36.5127 7H34.9932L31.6377 10.8203H31.54V7H30.333V15Z" fill="white"/>
</svg>