<svg width="16" height="16" viewBox="0 0 16 16" fill="none" xmlns="http://www.w3.org/2000/svg">
<path d="M15.4062 0.78125L12.1562 0.03125C11.8125 -0.0625 11.4375 0.125 11.2812 0.46875L9.78125 3.96875C9.65625 4.28125 9.75 4.625 10 4.84375L11.9062 6.40625C10.7812 8.78125 8.8125 10.7812 6.375 11.9375L4.8125 10.0312C4.59375 9.78125 4.25 9.6875 3.9375 9.8125L0.4375 11.3125C0.09375 11.4688 -0.0625 11.8438 0 12.1875L0.75 15.4375C0.84375 15.7812 1.125 16 1.5 16C9.5 16 16 9.53125 16 1.5C16 1.15625 15.75 0.875 15.4062 0.78125Z" fill="#9DA9B5"/>
</svg>
