<svg width="48" height="32" viewBox="0 0 48 32" fill="none" xmlns="http://www.w3.org/2000/svg">
<path fill-rule="evenodd" clip-rule="evenodd" d="M0 3C0 1.34315 1.34315 0 3 0H45C46.6569 0 48 1.34315 48 3V29C48 30.6569 46.6569 32 45 32H3C1.34315 32 0 30.6569 0 29V3Z" fill="#F4F6F7"/>
<path fill-rule="evenodd" clip-rule="evenodd" d="M19.0477 24.381C23.6764 24.381 27.4287 20.6288 27.4287 16.0001C27.4287 11.3714 23.6764 7.61914 19.0477 7.61914C14.419 7.61914 10.6667 11.3714 10.6667 16.0001C10.6667 20.6288 14.419 24.381 19.0477 24.381Z" fill="#D8232A"/>
<path fill-rule="evenodd" clip-rule="evenodd" d="M24.3806 22.4654C25.8297 23.6621 27.6878 24.381 29.7139 24.381C34.3426 24.381 38.0949 20.6288 38.0949 16.0001C38.0949 11.3714 34.3426 7.61914 29.7139 7.61914C27.6878 7.61914 25.8297 8.3381 24.3806 9.53482C26.242 11.072 27.4282 13.3975 27.4282 16.0001C27.4282 18.6027 26.242 20.9282 24.3806 22.4654Z" fill="#ED9F2D"/>
<path fill-rule="evenodd" clip-rule="evenodd" d="M24.3811 9.53516C22.5198 11.0724 21.3335 13.3979 21.3335 16.0004C21.3335 18.603 22.5198 20.9285 24.3811 22.4657C26.2425 20.9285 27.4287 18.603 27.4287 16.0004C27.4287 13.3979 26.2425 11.0724 24.3811 9.53516Z" fill="#D8232A"/>
<mask id="mask0" mask-type="alpha" maskUnits="userSpaceOnUse" x="21" y="9" width="7" height="14">
<path fill-rule="evenodd" clip-rule="evenodd" d="M24.3811 9.53516C22.5198 11.0724 21.3335 13.3979 21.3335 16.0004C21.3335 18.603 22.5198 20.9285 24.3811 22.4657C26.2425 20.9285 27.4287 18.603 27.4287 16.0004C27.4287 13.3979 26.2425 11.0724 24.3811 9.53516Z" fill="white"/>
</mask>
<g mask="url(#mask0)">
<path fill-rule="evenodd" clip-rule="evenodd" d="M20.5715 9.9043H28.1906V10.6662H20.5715V9.9043ZM20.5717 11.4281H28.1907V12.19H20.5717V11.4281ZM28.1907 12.9519H20.5717V13.7138H28.1907V12.9519ZM20.5717 14.4757H28.1907V15.2376H20.5717V14.4757ZM28.1907 15.9995H20.5717V16.7614H28.1907V15.9995ZM20.5717 17.5233H28.1907V18.2852H20.5717V17.5233ZM28.1907 19.0471H20.5717V19.809H28.1907V19.0471ZM20.5717 20.5709H28.1907V21.3328H20.5717V20.5709ZM28.1907 22.0947H20.5717V22.8567H28.1907V22.0947Z" fill="#ED9F2D"/>
</g>
<path fill-rule="evenodd" clip-rule="evenodd" d="M0 3C0 1.34315 1.34315 0 3 0H45C46.6569 0 48 1.34315 48 3V29C48 30.6569 46.6569 32 45 32H3C1.34315 32 0 30.6569 0 29V3Z" fill="#E5E5E5" fill-opacity="0.01"/>
</svg>
