<svg width="68" height="68" viewBox="0 0 68 68" fill="none" xmlns="http://www.w3.org/2000/svg">
<rect x="1" y="1" width="66" height="66" rx="6" stroke="#DFE4EB" stroke-width="2"/>
<rect x="4" y="4" width="60" height="60" rx="5" fill="#F2F4F8"/>
<path fill-rule="evenodd" clip-rule="evenodd" d="M46.9241 19.9199H21.0766C19.5568 19.9199 18.3203 21.1557 18.3203 22.6747V33.6938C18.3203 35.2128 19.5568 36.4486 21.0766 36.4486H46.9241C48.4439 36.4486 49.6803 35.2128 49.6803 33.6938V22.6747C49.6803 21.1557 48.4439 19.9199 46.9241 19.9199ZM47.8428 33.6938C47.8428 34.2002 47.4307 34.6121 46.9241 34.6121H21.0766C20.57 34.6121 20.1578 34.2002 20.1578 33.6938V33.3877H47.8428V33.6938ZM47.8428 31.5512H20.1578V22.6747C20.1578 22.1684 20.57 21.7564 21.0766 21.7564H46.9241C47.4307 21.7564 47.8428 22.1684 47.8428 22.6747V31.5512ZM45.3928 25.1236C45.9002 25.1236 46.3116 24.7125 46.3116 24.2053C46.3116 23.6982 45.9002 23.2871 45.3928 23.2871C44.8854 23.2871 44.4741 23.6982 44.4741 24.2053C44.4741 24.7125 44.8854 25.1236 45.3928 25.1236ZM34.9803 37.6728C35.4877 37.6728 35.8991 38.0839 35.8991 38.5911C35.8991 39.9821 35.293 40.6582 34.7549 41.2585C34.3253 41.7377 33.9391 42.1686 33.9391 42.8763C33.9391 43.5849 34.3254 44.0156 34.7551 44.4946C35.2931 45.0944 35.8991 45.7699 35.8991 47.1615C35.8991 47.6686 35.4877 48.0797 34.9803 48.0797C34.4729 48.0797 34.0616 47.6686 34.0616 47.1615C34.0616 46.4529 33.6752 46.0221 33.2455 45.5431C32.7075 44.9433 32.1016 44.2678 32.1016 42.8763C32.1016 41.4852 32.7076 40.8091 33.2457 40.2089C33.6753 39.7296 34.0616 39.2988 34.0616 38.5911C34.0616 38.0839 34.4729 37.6728 34.9803 37.6728ZM42.0241 38.5911C42.0241 38.0839 41.6127 37.6728 41.1053 37.6728C40.5979 37.6728 40.1866 38.0839 40.1866 38.5911C40.1866 39.2988 39.8003 39.7296 39.3707 40.2089C38.8326 40.8091 38.2266 41.4852 38.2266 42.8763C38.2266 44.2678 38.8325 44.9433 39.3705 45.5431C39.8002 46.0221 40.1866 46.4529 40.1866 47.1615C40.1866 47.6686 40.5979 48.0797 41.1053 48.0797C41.6127 48.0797 42.0241 47.6686 42.0241 47.1615C42.0241 45.7699 41.4181 45.0944 40.8801 44.4946C40.4504 44.0156 40.0641 43.5849 40.0641 42.8763C40.0641 42.1686 40.4503 41.7377 40.8799 41.2585C41.418 40.6582 42.0241 39.9821 42.0241 38.5911ZM28.8553 37.6728C29.3627 37.6728 29.7741 38.0839 29.7741 38.5911C29.7741 39.9821 29.168 40.6582 28.6299 41.2585C28.2003 41.7377 27.8141 42.1686 27.8141 42.8763C27.8141 43.5849 28.2004 44.0156 28.6301 44.4946C29.1681 45.0944 29.7741 45.7699 29.7741 47.1615C29.7741 47.6686 29.3627 48.0797 28.8553 48.0797C28.3479 48.0797 27.9366 47.6686 27.9366 47.1615C27.9366 46.4529 27.5502 46.0221 27.1205 45.5431C26.5825 44.9433 25.9766 44.2678 25.9766 42.8763C25.9766 41.4852 26.5826 40.8091 27.1207 40.2089C27.5503 39.7296 27.9366 39.2988 27.9366 38.5911C27.9366 38.0839 28.3479 37.6728 28.8553 37.6728Z" fill="#BBC2CD"/>
</svg>
